{"glyphs":{"0":{"ha":938,"x_min":56,"x_max":882,"o":"m 468 -14 q 245 46 338 -14 q 104 217 153 106 q 56 486 56 329 q 104 755 56 643 q 245 926 153 867 q 468 986 338 986 q 692 926 599 986 q 833 755 785 867 q 882 486 882 643 q 833 217 882 329 q 692 46 785 106 q 468 -14 599 -14 m 468 186 q 608 264 558 186 q 657 486 657 342 q 608 715 657 635 q 468 794 558 794 q 328 715 378 794 q 279 486 279 635 q 328 264 279 342 q 468 186 378 186 z "},"1":{"ha":779,"x_min":96,"x_max":707,"o":"m 293 68 l 293 857 l 344 739 l 136 640 l 96 851 l 372 986 l 525 986 l 525 68 l 293 68 m 115 0 l 115 208 l 707 208 l 707 0 l 115 0 z "},"2":{"ha":761,"x_min":36,"x_max":749,"o":"m 82 0 l 36 114 l 319 424 q 371 483 343 450 q 425 552 399 517 q 467 621 451 588 q 483 682 483 654 q 471 731 483 710 q 435 763 458 751 q 375 775 411 775 q 314 759 343 775 q 259 710 285 743 q 211 628 233 676 l 36 722 q 119 865 65 803 q 244 960 172 926 q 399 994 317 994 q 554 958 485 993 q 665 859 624 922 q 706 711 706 796 q 699 650 706 682 q 678 584 692 618 q 641 512 664 550 q 586 432 618 474 q 511 343 554 390 l 290 103 l 263 208 l 749 208 l 749 0 l 82 0 z "},"3":{"ha":821,"x_min":32,"x_max":768,"o":"m 399 -14 q 192 35 281 -14 q 32 206 104 85 l 201 315 q 265 238 232 267 q 333 195 297 208 q 407 182 368 182 q 478 199 446 182 q 531 249 511 217 q 551 321 551 281 q 534 394 551 364 q 484 439 517 424 q 406 454 451 454 q 361 449 385 454 q 311 436 338 444 q 257 414 285 428 l 206 551 l 442 808 l 506 774 l 100 782 l 100 981 l 697 981 l 740 894 l 419 550 l 364 615 q 401 626 375 621 q 450 631 426 631 q 572 607 515 631 q 674 542 629 583 q 743 444 718 500 q 768 324 768 388 q 719 151 768 226 q 585 31 669 75 q 399 -14 501 -14 z "},"4":{"ha":919,"x_min":26,"x_max":871,"o":"m 485 0 l 485 786 l 611 783 l 260 353 l 226 394 l 871 394 l 871 200 l 121 200 l 26 382 l 522 981 l 713 981 l 713 0 l 485 0 z "},"5":{"ha":828,"x_min":44,"x_max":757,"o":"m 392 -10 q 192 35 282 -10 q 44 163 103 79 l 171 301 q 276 216 228 239 q 385 193 325 193 q 464 211 429 193 q 519 262 499 229 q 539 335 539 294 q 519 409 539 376 q 465 461 499 442 q 386 481 431 481 q 326 475 354 481 q 267 456 299 469 q 193 418 236 443 l 93 551 l 153 981 l 711 981 l 711 782 l 265 782 l 326 860 l 281 551 l 197 579 q 262 621 224 603 q 344 651 300 639 q 433 663 389 663 q 598 620 525 663 q 714 503 671 578 q 757 331 757 428 q 708 158 757 235 q 578 35 660 81 q 392 -10 496 -10 z "},"6":{"ha":804,"x_min":47,"x_max":768,"o":"m 408 0 q 267 27 333 0 q 153 102 201 54 q 76 214 104 150 q 47 351 47 278 q 58 451 47 403 q 90 548 69 499 q 138 649 110 597 q 201 760 167 701 l 338 988 l 556 988 l 561 974 l 372 676 q 310 567 336 618 q 263 467 283 517 q 221 361 242 417 l 176 457 q 221 547 190 506 q 292 617 251 588 q 378 663 333 647 q 465 679 422 679 q 616 635 547 679 q 726 519 685 592 q 768 361 768 447 q 722 176 768 258 q 594 47 675 94 q 408 0 513 0 m 411 194 q 490 214 456 194 q 543 269 524 233 q 563 350 563 304 q 542 423 563 389 q 488 478 522 457 q 413 500 454 500 q 333 480 368 500 q 278 426 297 460 q 258 350 258 392 q 278 270 258 306 q 332 215 297 235 q 411 194 367 194 z "},"7":{"ha":768,"x_min":64,"x_max":719,"o":"m 117 0 l 506 886 l 572 775 l 64 775 l 64 981 l 697 981 l 719 868 l 353 0 l 117 0 z "},"8":{"ha":832,"x_min":56,"x_max":776,"o":"m 415 -4 q 234 34 315 -4 q 104 138 153 72 q 56 285 56 203 q 69 383 56 339 q 112 460 83 426 q 181 519 140 494 q 275 558 222 543 l 258 503 q 188 540 219 518 q 133 591 156 563 q 99 653 111 619 q 88 722 88 686 q 131 860 88 800 q 249 953 175 919 q 415 988 324 988 q 580 953 506 988 q 699 860 654 919 q 743 722 743 800 q 732 653 743 686 q 699 592 721 619 q 644 542 676 565 q 571 503 613 519 l 558 553 q 646 517 606 540 q 715 460 686 494 q 760 383 744 426 q 776 285 776 339 q 728 136 776 201 q 597 33 679 71 q 415 -4 515 -4 m 415 182 q 485 197 454 182 q 533 239 515 213 q 551 300 551 265 q 534 363 551 336 q 485 406 517 390 q 415 422 454 422 q 346 406 376 422 q 297 363 315 390 q 279 300 279 336 q 297 240 279 267 q 346 198 315 214 q 415 182 376 182 m 415 610 q 476 623 449 610 q 518 659 503 636 q 533 713 533 682 q 518 767 533 743 q 476 804 503 790 q 415 818 449 818 q 353 804 381 818 q 311 767 326 790 q 296 713 296 743 q 311 659 296 682 q 353 623 326 636 q 415 610 381 610 z "},"9":{"ha":801,"x_min":42,"x_max":764,"o":"m 289 0 l 283 14 l 588 628 l 628 544 q 583 454 614 494 q 510 384 553 414 q 422 338 468 354 q 335 322 376 322 q 189 365 256 322 q 82 481 122 408 q 42 638 42 553 q 90 819 42 738 q 219 948 138 900 q 404 996 301 996 q 544 969 479 996 q 659 897 610 943 q 736 789 708 850 q 764 660 764 728 q 756 562 764 610 q 729 464 747 514 q 687 360 711 414 q 631 242 663 306 l 508 0 l 289 0 m 392 508 q 468 528 435 508 q 520 580 501 547 q 539 653 539 613 q 520 730 539 696 q 469 783 501 764 q 393 803 436 803 q 320 784 351 803 q 270 731 289 765 q 251 653 251 697 q 270 583 251 615 q 321 529 289 550 q 392 508 353 508 z "},"A":{"ha":964,"x_min":-1,"x_max":965,"o":"m -1 0 l 383 972 l 583 972 l 965 0 l 726 0 l 543 493 q 521 556 532 522 q 499 624 510 589 q 477 694 488 660 q 460 757 467 728 l 501 758 q 483 690 493 724 q 462 624 472 657 q 439 559 451 592 q 415 492 426 526 l 232 0 l -1 0 m 182 186 l 256 364 l 703 364 l 775 186 l 182 186 z "},"Á":{"ha":964,"x_min":-1,"x_max":965,"o":"m -1 0 l 383 972 l 583 972 l 965 0 l 726 0 l 543 493 q 521 556 532 522 q 499 624 510 589 q 477 694 488 660 q 460 757 467 728 l 501 758 q 483 690 493 724 q 462 624 472 657 q 439 559 451 592 q 415 492 426 526 l 232 0 l -1 0 m 182 186 l 256 364 l 703 364 l 775 186 l 182 186 m 358 1039 l 307 1150 l 597 1310 l 674 1147 l 358 1039 z "},"Ă":{"ha":964,"x_min":-1,"x_max":965,"o":"m -1 0 l 383 972 l 583 972 l 965 0 l 726 0 l 543 493 q 521 556 532 522 q 499 624 510 589 q 477 694 488 660 q 460 757 467 728 l 501 758 q 483 690 493 724 q 462 624 472 657 q 439 559 451 592 q 415 492 426 526 l 232 0 l -1 0 m 182 186 l 256 364 l 703 364 l 775 186 l 182 186 m 482 1051 q 368 1078 419 1051 q 281 1152 317 1104 q 233 1263 246 1200 l 375 1279 q 418 1219 389 1243 q 482 1196 447 1196 q 546 1219 517 1196 q 589 1279 575 1243 l 731 1263 q 683 1152 718 1200 q 597 1078 647 1104 q 482 1051 546 1051 z "},"Ắ":{"ha":964,"x_min":-1,"x_max":965,"o":"m -1 0 l 383 972 l 583 972 l 965 0 l 726 0 l 543 493 q 521 556 532 522 q 499 624 510 589 q 477 694 488 660 q 460 757 467 728 l 501 758 q 483 690 493 724 q 462 624 472 657 q 439 559 451 592 q 415 492 426 526 l 232 0 l -1 0 m 182 186 l 256 364 l 703 364 l 775 186 l 182 186 m 482 1035 q 320 1088 388 1035 q 233 1232 253 1140 l 368 1249 q 416 1185 385 1203 q 482 1168 447 1168 q 548 1185 517 1168 q 596 1249 579 1203 l 731 1232 q 644 1088 711 1140 q 482 1035 576 1035 m 494 1233 l 408 1297 l 540 1525 l 679 1425 l 494 1233 z "},"Ặ":{"ha":964,"x_min":-1,"x_max":965,"o":"m -1 0 l 383 972 l 583 972 l 965 0 l 726 0 l 543 493 q 521 556 532 522 q 499 624 510 589 q 477 694 488 660 q 460 757 467 728 l 501 758 q 483 690 493 724 q 462 624 472 657 q 439 559 451 592 q 415 492 426 526 l 232 0 l -1 0 m 182 186 l 256 364 l 703 364 l 775 186 l 182 186 m 482 -311 q 382 -280 418 -311 q 346 -193 346 -249 q 383 -108 346 -140 q 482 -75 419 -75 q 582 -106 546 -75 q 618 -193 618 -136 q 581 -278 618 -244 q 482 -311 544 -311 m 482 1051 q 368 1078 419 1051 q 281 1152 317 1104 q 233 1263 246 1200 l 375 1279 q 418 1219 389 1243 q 482 1196 447 1196 q 546 1219 517 1196 q 589 1279 575 1243 l 731 1263 q 683 1152 718 1200 q 597 1078 647 1104 q 482 1051 546 1051 z "},"Ằ":{"ha":964,"x_min":-1,"x_max":965,"o":"m -1 0 l 383 972 l 583 972 l 965 0 l 726 0 l 543 493 q 521 556 532 522 q 499 624 510 589 q 477 694 488 660 q 460 757 467 728 l 501 758 q 483 690 493 724 q 462 624 472 657 q 439 559 451 592 q 415 492 426 526 l 232 0 l -1 0 m 182 186 l 256 364 l 703 364 l 775 186 l 182 186 m 482 1035 q 320 1087 388 1035 q 233 1232 253 1139 l 368 1249 q 415 1185 385 1203 q 482 1168 446 1168 q 548 1185 517 1168 q 596 1249 579 1203 l 731 1232 q 644 1088 711 1140 q 482 1035 576 1035 m 479 1233 l 294 1425 l 433 1525 l 565 1297 l 479 1233 z "},"Ẳ":{"ha":964,"x_min":-1,"x_max":965,"o":"m -1 0 l 383 972 l 583 972 l 965 0 l 726 0 l 543 493 q 521 556 532 522 q 499 624 510 589 q 477 694 488 660 q 460 757 467 728 l 501 758 q 483 690 493 724 q 462 624 472 657 q 439 559 451 592 q 415 492 426 526 l 232 0 l -1 0 m 182 186 l 256 364 l 703 364 l 775 186 l 182 186 m 482 1035 q 320 1088 388 1035 q 233 1232 253 1140 l 368 1249 q 415 1185 383 1203 q 482 1168 447 1168 q 549 1185 517 1168 q 596 1249 581 1203 l 731 1232 q 644 1088 711 1140 q 482 1035 576 1035 m 447 1231 q 428 1256 436 1242 q 421 1285 421 1269 q 428 1312 422 1299 q 456 1339 435 1325 q 482 1360 471 1350 q 494 1378 493 1369 q 482 1397 494 1390 q 447 1404 469 1404 q 392 1397 421 1404 q 333 1376 363 1389 l 303 1494 q 375 1522 332 1511 q 464 1532 418 1532 q 593 1498 544 1532 q 642 1404 642 1464 q 621 1342 642 1364 q 576 1307 600 1321 q 539 1284 553 1294 q 525 1261 525 1274 q 526 1256 525 1258 q 528 1250 526 1253 l 447 1231 z "},"Ẵ":{"ha":964,"x_min":-1,"x_max":965,"o":"m -1 0 l 383 972 l 583 972 l 965 0 l 726 0 l 543 493 q 521 556 532 522 q 499 624 510 589 q 477 694 488 660 q 460 757 467 728 l 501 758 q 483 690 493 724 q 462 624 472 657 q 439 559 451 592 q 415 492 426 526 l 232 0 l -1 0 m 182 186 l 256 364 l 703 364 l 775 186 l 182 186 m 482 1035 q 320 1085 388 1035 q 233 1226 253 1136 l 368 1243 q 416 1184 385 1200 q 482 1168 447 1168 q 548 1184 517 1168 q 596 1243 579 1200 l 731 1226 q 644 1085 711 1136 q 482 1035 576 1035 m 592 1322 q 538 1331 564 1322 q 481 1353 511 1339 q 438 1371 454 1364 q 407 1378 421 1378 q 371 1363 383 1378 q 354 1324 358 1349 l 226 1331 q 273 1462 228 1411 q 388 1513 318 1513 q 442 1503 417 1513 q 497 1481 468 1494 q 535 1464 518 1471 q 567 1457 553 1457 q 598 1472 589 1457 q 611 1511 607 1486 l 739 1506 q 720 1413 739 1456 q 669 1347 701 1371 q 592 1322 636 1322 z "},"Ǎ":{"ha":964,"x_min":-1,"x_max":965,"o":"m -1 0 l 383 972 l 583 972 l 965 0 l 726 0 l 543 493 q 521 556 532 522 q 499 624 510 589 q 477 694 488 660 q 460 757 467 728 l 501 758 q 483 690 493 724 q 462 624 472 657 q 439 559 451 592 q 415 492 426 526 l 232 0 l -1 0 m 182 186 l 256 364 l 703 364 l 775 186 l 182 186 m 415 1049 l 229 1197 l 299 1275 l 503 1178 l 461 1178 l 665 1275 l 735 1197 l 549 1049 l 415 1049 z "},"Â":{"ha":964,"x_min":-1,"x_max":965,"o":"m -1 0 l 383 972 l 583 972 l 965 0 l 726 0 l 543 493 q 521 556 532 522 q 499 624 510 589 q 477 694 488 660 q 460 757 467 728 l 501 758 q 483 690 493 724 q 462 624 472 657 q 439 559 451 592 q 415 492 426 526 l 232 0 l -1 0 m 182 186 l 256 364 l 703 364 l 775 186 l 182 186 m 299 1047 l 231 1126 l 419 1274 l 544 1274 l 733 1126 l 665 1047 l 461 1146 l 503 1146 l 299 1047 z "},"Ấ":{"ha":964,"x_min":-1,"x_max":965,"o":"m -1 0 l 383 972 l 583 972 l 965 0 l 726 0 l 543 493 q 521 556 532 522 q 499 624 510 589 q 477 694 488 660 q 460 757 467 728 l 501 758 q 483 690 493 724 q 462 624 472 657 q 439 559 451 592 q 415 492 426 526 l 232 0 l -1 0 m 182 186 l 256 364 l 703 364 l 775 186 l 182 186 m 296 1042 l 233 1118 l 419 1260 l 544 1260 l 731 1118 l 668 1042 l 461 1132 l 503 1132 l 296 1042 m 732 1222 l 643 1283 l 775 1511 l 914 1413 l 732 1222 z "},"Ậ":{"ha":964,"x_min":-1,"x_max":965,"o":"m -1 0 l 383 972 l 583 972 l 965 0 l 726 0 l 543 493 q 521 556 532 522 q 499 624 510 589 q 477 694 488 660 q 460 757 467 728 l 501 758 q 483 690 493 724 q 462 624 472 657 q 439 559 451 592 q 415 492 426 526 l 232 0 l -1 0 m 182 186 l 256 364 l 703 364 l 775 186 l 182 186 m 482 -311 q 382 -280 418 -311 q 346 -193 346 -249 q 383 -108 346 -140 q 482 -75 419 -75 q 582 -106 546 -75 q 618 -193 618 -136 q 581 -278 618 -244 q 482 -311 544 -311 m 299 1047 l 231 1126 l 419 1274 l 544 1274 l 733 1126 l 665 1047 l 461 1146 l 503 1146 l 299 1047 z "},"Ầ":{"ha":964,"x_min":-1,"x_max":965,"o":"m -1 0 l 383 972 l 583 972 l 965 0 l 726 0 l 543 493 q 521 556 532 522 q 499 624 510 589 q 477 694 488 660 q 460 757 467 728 l 501 758 q 483 690 493 724 q 462 624 472 657 q 439 559 451 592 q 415 492 426 526 l 232 0 l -1 0 m 182 186 l 256 364 l 703 364 l 775 186 l 182 186 m 296 1042 l 233 1118 l 419 1260 l 544 1260 l 731 1118 l 668 1042 l 461 1132 l 503 1132 l 296 1042 m 717 1222 l 532 1414 l 671 1514 l 803 1285 l 717 1222 z "},"Ẩ":{"ha":964,"x_min":-1,"x_max":965,"o":"m -1 0 l 383 972 l 583 972 l 965 0 l 726 0 l 543 493 q 521 556 532 522 q 499 624 510 589 q 477 694 488 660 q 460 757 467 728 l 501 758 q 483 690 493 724 q 462 624 472 657 q 439 559 451 592 q 415 492 426 526 l 232 0 l -1 0 m 182 186 l 256 364 l 703 364 l 775 186 l 182 186 m 296 1042 l 232 1118 l 419 1260 l 544 1260 l 731 1118 l 668 1042 l 461 1132 l 503 1132 l 296 1042 m 692 1217 q 674 1243 681 1229 q 667 1272 667 1257 q 673 1299 667 1286 q 703 1326 679 1311 q 729 1347 718 1338 q 740 1365 740 1356 q 728 1385 740 1378 q 694 1392 715 1392 q 638 1383 668 1392 q 579 1364 608 1375 l 550 1482 q 622 1508 579 1497 q 711 1519 664 1519 q 840 1485 792 1519 q 888 1392 888 1450 q 867 1329 888 1350 q 822 1294 846 1308 q 786 1271 800 1282 q 772 1247 772 1260 q 772 1243 772 1246 q 774 1236 772 1240 l 692 1217 z "},"Ẫ":{"ha":964,"x_min":-1,"x_max":965,"o":"m -1 0 l 383 972 l 583 972 l 965 0 l 726 0 l 543 493 q 521 556 532 522 q 499 624 510 589 q 477 694 488 660 q 460 757 467 728 l 501 758 q 483 690 493 724 q 462 624 472 657 q 439 559 451 592 q 415 492 426 526 l 232 0 l -1 0 m 182 186 l 256 364 l 703 364 l 775 186 l 182 186 m 296 1042 l 233 1118 l 419 1260 l 544 1260 l 731 1118 l 668 1042 l 461 1132 l 503 1132 l 296 1042 m 596 1325 q 537 1333 565 1325 q 481 1353 508 1340 q 438 1369 454 1364 q 407 1375 421 1375 q 371 1361 383 1375 q 354 1324 358 1347 l 226 1331 q 273 1460 228 1410 q 388 1510 318 1510 q 440 1502 417 1510 q 494 1481 464 1494 q 535 1466 517 1472 q 567 1460 553 1460 q 598 1474 589 1460 q 611 1511 607 1488 l 739 1506 q 720 1415 739 1456 q 670 1349 701 1374 q 596 1325 639 1325 z "},"Ȁ":{"ha":964,"x_min":-1,"x_max":965,"o":"m -1 0 l 383 972 l 583 972 l 965 0 l 726 0 l 543 493 q 521 556 532 522 q 499 624 510 589 q 477 694 488 660 q 460 757 467 728 l 501 758 q 483 690 493 724 q 462 624 472 657 q 439 559 451 592 q 415 492 426 526 l 232 0 l -1 0 m 182 186 l 256 364 l 703 364 l 775 186 l 182 186 m 653 1032 l 417 1203 l 532 1333 l 729 1122 l 653 1032 m 344 1028 l 99 1194 l 213 1331 l 419 1122 l 344 1028 z "},"Ä":{"ha":964,"x_min":-1,"x_max":965,"o":"m -1 0 l 383 972 l 583 972 l 965 0 l 726 0 l 543 493 q 521 556 532 522 q 499 624 510 589 q 477 694 488 660 q 460 757 467 728 l 501 758 q 483 690 493 724 q 462 624 472 657 q 439 559 451 592 q 415 492 426 526 l 232 0 l -1 0 m 182 186 l 256 364 l 703 364 l 775 186 l 182 186 m 651 1047 q 561 1078 592 1047 q 531 1165 531 1110 q 563 1249 531 1215 q 651 1283 594 1283 q 741 1252 710 1283 q 772 1165 772 1221 q 740 1081 772 1115 q 651 1047 708 1047 m 314 1047 q 224 1078 254 1047 q 193 1165 193 1110 q 224 1249 193 1215 q 314 1283 256 1283 q 403 1252 372 1283 q 433 1165 433 1221 q 402 1081 433 1115 q 314 1047 371 1047 z "},"Ạ":{"ha":964,"x_min":-1,"x_max":965,"o":"m -1 0 l 383 972 l 583 972 l 965 0 l 726 0 l 543 493 q 521 556 532 522 q 499 624 510 589 q 477 694 488 660 q 460 757 467 728 l 501 758 q 483 690 493 724 q 462 624 472 657 q 439 559 451 592 q 415 492 426 526 l 232 0 l -1 0 m 182 186 l 256 364 l 703 364 l 775 186 l 182 186 m 482 -311 q 382 -280 418 -311 q 346 -193 346 -249 q 383 -108 346 -140 q 482 -75 419 -75 q 582 -106 546 -75 q 618 -193 618 -136 q 581 -278 618 -244 q 482 -311 544 -311 z "},"À":{"ha":964,"x_min":-1,"x_max":965,"o":"m -1 0 l 383 972 l 583 972 l 965 0 l 726 0 l 543 493 q 521 556 532 522 q 499 624 510 589 q 477 694 488 660 q 460 757 467 728 l 501 758 q 483 690 493 724 q 462 624 472 657 q 439 559 451 592 q 415 492 426 526 l 232 0 l -1 0 m 182 186 l 256 364 l 703 364 l 775 186 l 182 186 m 618 1039 l 303 1147 l 379 1310 l 669 1150 l 618 1039 z "},"Ả":{"ha":964,"x_min":-1,"x_max":965,"o":"m -1 0 l 383 972 l 583 972 l 965 0 l 726 0 l 543 493 q 521 556 532 522 q 499 624 510 589 q 477 694 488 660 q 460 757 467 728 l 501 758 q 483 690 493 724 q 462 624 472 657 q 439 559 451 592 q 415 492 426 526 l 232 0 l -1 0 m 182 186 l 256 364 l 703 364 l 775 186 l 182 186 m 447 1036 q 429 1064 438 1049 q 421 1096 421 1079 q 430 1128 421 1113 q 464 1163 439 1144 q 494 1185 483 1175 q 506 1208 506 1194 q 494 1227 506 1221 q 464 1233 482 1233 q 406 1225 436 1233 q 344 1203 375 1217 l 313 1321 q 388 1349 343 1338 q 481 1361 433 1361 q 606 1327 560 1361 q 653 1236 653 1293 q 633 1167 653 1190 q 592 1129 614 1143 q 555 1103 569 1115 q 540 1076 540 1090 q 542 1067 540 1071 q 544 1057 543 1063 l 447 1036 z "},"Ȃ":{"ha":964,"x_min":-1,"x_max":965,"o":"m -1 0 l 383 972 l 583 972 l 965 0 l 726 0 l 543 493 q 521 556 532 522 q 499 624 510 589 q 477 694 488 660 q 460 757 467 728 l 501 758 q 483 690 493 724 q 462 624 472 657 q 439 559 451 592 q 415 492 426 526 l 232 0 l -1 0 m 182 186 l 256 364 l 703 364 l 775 186 l 182 186 m 375 1053 l 233 1069 q 281 1179 246 1132 q 368 1253 317 1226 q 482 1279 419 1279 q 597 1253 546 1279 q 683 1179 647 1226 q 731 1069 718 1132 l 589 1053 q 546 1111 575 1088 q 482 1135 517 1135 q 418 1111 447 1135 q 375 1053 389 1088 z "},"Ā":{"ha":964,"x_min":-1,"x_max":965,"o":"m -1 0 l 383 972 l 583 972 l 965 0 l 726 0 l 543 493 q 521 556 532 522 q 499 624 510 589 q 477 694 488 660 q 460 757 467 728 l 501 758 q 483 690 493 724 q 462 624 472 657 q 439 559 451 592 q 415 492 426 526 l 232 0 l -1 0 m 182 186 l 256 364 l 703 364 l 775 186 l 182 186 m 232 1096 l 232 1236 l 731 1236 l 731 1096 l 232 1096 z "},"Ą":{"ha":964,"x_min":-1,"x_max":965,"o":"m -1 0 l 383 972 l 583 972 l 965 0 l 726 0 l 543 493 q 521 556 532 522 q 499 624 510 589 q 477 694 488 660 q 460 757 467 728 l 501 758 q 483 690 493 724 q 462 624 472 657 q 439 559 451 592 q 415 492 426 526 l 232 0 l -1 0 m 182 186 l 256 364 l 703 364 l 775 186 l 182 186 m 788 -293 q 702 -274 740 -293 q 642 -222 664 -256 q 621 -144 621 -187 q 636 -77 621 -110 q 682 -17 651 -44 q 756 33 713 11 q 851 69 799 54 l 903 0 q 838 -23 868 -6 q 792 -62 808 -40 q 775 -107 775 -83 q 785 -137 775 -125 q 813 -150 794 -150 q 837 -142 826 -150 q 858 -117 847 -133 l 954 -187 q 891 -263 935 -233 q 788 -293 847 -293 z "},"Å":{"ha":964,"x_min":-1,"x_max":965,"o":"m -1 0 l 383 972 l 583 972 l 965 0 l 726 0 l 543 493 q 521 556 532 522 q 499 624 510 589 q 477 694 488 660 q 460 757 467 728 l 501 758 q 483 690 493 724 q 462 624 472 657 q 439 559 451 592 q 415 492 426 526 l 232 0 l -1 0 m 182 186 l 256 364 l 703 364 l 775 186 l 182 186 m 482 935 q 391 958 433 935 q 323 1021 349 982 q 297 1104 297 1060 q 323 1195 297 1154 q 390 1260 349 1236 q 482 1283 432 1283 q 572 1260 531 1283 q 640 1195 614 1236 q 665 1104 665 1154 q 640 1021 665 1060 q 572 958 614 982 q 482 935 531 935 m 482 1049 q 522 1065 506 1049 q 539 1104 539 1082 q 522 1147 539 1131 q 482 1163 504 1163 q 442 1147 458 1163 q 425 1104 425 1131 q 442 1065 425 1082 q 482 1049 458 1049 z "},"Ǻ":{"ha":964,"x_min":-1,"x_max":965,"o":"m -1 0 l 383 972 l 583 972 l 965 0 l 726 0 l 543 493 q 521 556 532 522 q 499 624 510 589 q 477 694 488 660 q 460 757 467 728 l 501 758 q 483 690 493 724 q 462 624 472 657 q 439 559 451 592 q 415 492 426 526 l 232 0 l -1 0 m 182 186 l 256 364 l 703 364 l 775 186 l 182 186 m 482 935 q 391 958 433 935 q 323 1021 349 982 q 297 1104 297 1060 q 323 1195 297 1154 q 390 1260 349 1236 q 482 1283 432 1283 q 572 1260 531 1283 q 640 1195 614 1236 q 665 1104 665 1154 q 640 1021 665 1060 q 572 958 614 982 q 482 935 531 935 m 482 1049 q 522 1065 506 1049 q 539 1104 539 1082 q 522 1147 539 1131 q 482 1163 504 1163 q 442 1147 458 1163 q 425 1104 425 1131 q 442 1065 425 1082 q 482 1049 458 1049 m 358 1307 l 307 1418 l 597 1578 l 674 1415 l 358 1307 z "},"Ã":{"ha":964,"x_min":-1,"x_max":965,"o":"m -1 0 l 383 972 l 583 972 l 965 0 l 726 0 l 543 493 q 521 556 532 522 q 499 624 510 589 q 477 694 488 660 q 460 757 467 728 l 501 758 q 483 690 493 724 q 462 624 472 657 q 439 559 451 592 q 415 492 426 526 l 232 0 l -1 0 m 182 186 l 256 364 l 703 364 l 775 186 l 182 186 m 589 1067 q 533 1075 561 1067 q 472 1097 506 1083 q 430 1115 447 1110 q 399 1121 413 1121 q 367 1107 379 1121 q 356 1068 356 1093 l 217 1068 q 267 1212 217 1160 q 394 1264 318 1264 q 444 1257 419 1264 q 506 1233 468 1250 q 543 1217 528 1222 q 571 1211 558 1211 q 599 1226 589 1211 q 608 1264 610 1240 l 746 1264 q 726 1165 746 1211 q 671 1093 706 1119 q 589 1067 636 1067 z "},"Æ":{"ha":1493,"x_min":-12,"x_max":1411,"o":"m -12 0 l 665 972 l 1411 972 l 1411 778 l 956 778 l 956 586 l 1349 586 l 1349 399 l 956 399 l 956 194 l 1411 194 l 1411 0 l 731 0 l 731 199 l 357 199 l 483 383 l 731 383 l 731 775 l 765 764 l 243 0 l -12 0 z "},"Ǽ":{"ha":1493,"x_min":-12,"x_max":1411,"o":"m -12 0 l 665 972 l 1411 972 l 1411 778 l 956 778 l 956 586 l 1349 586 l 1349 399 l 956 399 l 956 194 l 1411 194 l 1411 0 l 731 0 l 731 199 l 357 199 l 483 383 l 731 383 l 731 775 l 765 764 l 243 0 l -12 0 m 876 1039 l 825 1150 l 1115 1310 l 1192 1147 l 876 1039 z "},"B":{"ha":974,"x_min":122,"x_max":913,"o":"m 122 0 l 122 972 l 551 972 q 721 944 651 972 q 826 862 790 915 q 861 733 861 808 q 820 593 861 650 q 701 517 779 536 l 699 543 q 812 494 764 529 q 886 409 860 460 q 913 294 913 358 q 888 166 913 221 q 815 74 863 111 q 705 18 768 36 q 565 0 642 0 l 122 0 m 344 197 l 557 197 q 623 210 596 197 q 665 247 650 222 q 681 306 681 271 q 665 360 681 338 q 619 394 649 382 q 550 406 590 406 l 344 406 l 344 197 m 344 582 l 518 582 q 580 594 554 582 q 619 627 606 606 q 632 679 632 649 q 601 749 632 724 q 510 775 571 775 l 344 775 l 344 582 z "},"C":{"ha":964,"x_min":60,"x_max":933,"o":"m 564 -14 q 362 23 454 -14 q 201 127 269 60 q 97 287 133 194 q 60 490 60 379 q 99 690 60 599 q 206 849 138 782 q 369 954 275 917 q 574 992 463 992 q 710 974 643 992 q 834 920 776 956 q 933 836 892 885 l 789 671 q 727 724 760 701 q 656 760 694 747 q 572 772 617 772 q 467 752 517 772 q 381 695 418 732 q 324 606 344 658 q 303 488 303 553 q 324 372 303 424 q 382 282 344 319 q 473 225 419 244 q 592 206 526 206 q 676 218 636 206 q 751 252 717 231 q 811 301 785 274 l 925 121 q 833 51 890 82 q 705 3 775 21 q 564 -14 635 -14 z "},"Ć":{"ha":964,"x_min":60,"x_max":933,"o":"m 564 -14 q 362 23 454 -14 q 201 127 269 60 q 97 287 133 194 q 60 490 60 379 q 99 690 60 599 q 206 849 138 782 q 369 954 275 917 q 574 992 463 992 q 710 974 643 992 q 834 920 776 956 q 933 836 892 885 l 789 671 q 727 724 760 701 q 656 760 694 747 q 572 772 617 772 q 467 752 517 772 q 381 695 418 732 q 324 606 344 658 q 303 488 303 553 q 324 372 303 424 q 382 282 344 319 q 473 225 419 244 q 592 206 526 206 q 676 218 636 206 q 751 252 717 231 q 811 301 785 274 l 925 121 q 833 51 890 82 q 705 3 775 21 q 564 -14 635 -14 m 447 1039 l 396 1150 l 686 1310 l 763 1147 l 447 1039 z "},"Č":{"ha":964,"x_min":60,"x_max":933,"o":"m 564 -14 q 362 23 454 -14 q 201 127 269 60 q 97 287 133 194 q 60 490 60 379 q 99 690 60 599 q 206 849 138 782 q 369 954 275 917 q 574 992 463 992 q 710 974 643 992 q 834 920 776 956 q 933 836 892 885 l 789 671 q 727 724 760 701 q 656 760 694 747 q 572 772 617 772 q 467 752 517 772 q 381 695 418 732 q 324 606 344 658 q 303 488 303 553 q 324 372 303 424 q 382 282 344 319 q 473 225 419 244 q 592 206 526 206 q 676 218 636 206 q 751 252 717 231 q 811 301 785 274 l 925 121 q 833 51 890 82 q 705 3 775 21 q 564 -14 635 -14 m 504 1049 l 318 1197 l 388 1275 l 592 1178 l 550 1178 l 754 1275 l 824 1197 l 638 1049 l 504 1049 z "},"Ç":{"ha":964,"x_min":60,"x_max":933,"o":"m 564 -14 q 362 23 454 -14 q 201 127 269 60 q 97 287 133 194 q 60 490 60 379 q 99 690 60 599 q 206 849 138 782 q 369 954 275 917 q 574 992 463 992 q 710 974 643 992 q 834 920 776 956 q 933 836 892 885 l 789 671 q 727 724 760 701 q 656 760 694 747 q 572 772 617 772 q 467 752 517 772 q 381 695 418 732 q 324 606 344 658 q 303 488 303 553 q 324 372 303 424 q 382 282 344 319 q 473 225 419 244 q 592 206 526 206 q 676 218 636 206 q 751 252 717 231 q 811 301 785 274 l 925 121 q 833 51 890 82 q 705 3 775 21 q 564 -14 635 -14 m 414 -342 l 401 -237 q 460 -231 429 -237 q 514 -210 492 -224 q 536 -182 536 -197 q 520 -156 536 -165 q 482 -141 504 -146 q 438 -136 460 -136 l 413 -117 l 508 33 l 622 33 l 560 -60 q 667 -105 632 -68 q 701 -193 701 -142 q 675 -265 701 -236 q 606 -311 649 -293 q 513 -336 563 -329 q 414 -342 463 -343 z "},"Ḉ":{"ha":964,"x_min":60,"x_max":933,"o":"m 564 -14 q 362 23 454 -14 q 201 127 269 60 q 97 287 133 194 q 60 490 60 379 q 99 690 60 599 q 206 849 138 782 q 369 954 275 917 q 574 992 463 992 q 710 974 643 992 q 834 920 776 956 q 933 836 892 885 l 789 671 q 727 724 760 701 q 656 760 694 747 q 572 772 617 772 q 467 752 517 772 q 381 695 418 732 q 324 606 344 658 q 303 488 303 553 q 324 372 303 424 q 382 282 344 319 q 473 225 419 244 q 592 206 526 206 q 676 218 636 206 q 751 252 717 231 q 811 301 785 274 l 925 121 q 833 51 890 82 q 705 3 775 21 q 564 -14 635 -14 m 414 -342 l 401 -237 q 460 -231 429 -237 q 514 -210 492 -224 q 536 -182 536 -197 q 520 -156 536 -165 q 482 -141 504 -146 q 438 -136 460 -136 l 413 -117 l 508 33 l 622 33 l 560 -60 q 667 -105 632 -68 q 701 -193 701 -142 q 675 -265 701 -236 q 606 -311 649 -293 q 513 -336 563 -329 q 414 -342 463 -343 m 447 1039 l 396 1150 l 686 1310 l 763 1147 l 447 1039 z "},"Ĉ":{"ha":964,"x_min":60,"x_max":933,"o":"m 564 -14 q 362 23 454 -14 q 201 127 269 60 q 97 287 133 194 q 60 490 60 379 q 99 690 60 599 q 206 849 138 782 q 369 954 275 917 q 574 992 463 992 q 710 974 643 992 q 834 920 776 956 q 933 836 892 885 l 789 671 q 727 724 760 701 q 656 760 694 747 q 572 772 617 772 q 467 752 517 772 q 381 695 418 732 q 324 606 344 658 q 303 488 303 553 q 324 372 303 424 q 382 282 344 319 q 473 225 419 244 q 592 206 526 206 q 676 218 636 206 q 751 252 717 231 q 811 301 785 274 l 925 121 q 833 51 890 82 q 705 3 775 21 q 564 -14 635 -14 m 386 1047 l 318 1126 l 507 1274 l 632 1274 l 821 1126 l 753 1047 l 549 1146 l 590 1146 l 386 1047 z "},"Ċ":{"ha":964,"x_min":60,"x_max":933,"o":"m 564 -14 q 362 23 454 -14 q 201 127 269 60 q 97 287 133 194 q 60 490 60 379 q 99 690 60 599 q 206 849 138 782 q 369 954 275 917 q 574 992 463 992 q 710 974 643 992 q 834 920 776 956 q 933 836 892 885 l 789 671 q 727 724 760 701 q 656 760 694 747 q 572 772 617 772 q 467 752 517 772 q 381 695 418 732 q 324 606 344 658 q 303 488 303 553 q 324 372 303 424 q 382 282 344 319 q 473 225 419 244 q 592 206 526 206 q 676 218 636 206 q 751 252 717 231 q 811 301 785 274 l 925 121 q 833 51 890 82 q 705 3 775 21 q 564 -14 635 -14 m 571 1050 q 473 1081 507 1050 q 439 1165 439 1111 q 474 1247 439 1214 q 571 1281 508 1281 q 669 1250 635 1281 q 703 1165 703 1219 q 668 1083 703 1117 q 571 1050 633 1050 z "},"D":{"ha":1072,"x_min":122,"x_max":1013,"o":"m 122 0 l 122 972 l 529 972 q 725 937 636 972 q 878 836 814 901 q 978 682 943 771 q 1013 486 1013 593 q 978 290 1013 379 q 878 135 943 200 q 725 35 814 71 q 529 0 636 0 l 122 0 m 358 161 l 326 208 l 522 208 q 626 228 581 208 q 705 285 672 249 q 756 372 738 321 q 774 486 774 424 q 756 600 774 549 q 705 688 738 651 q 626 744 672 724 q 522 764 581 764 l 322 764 l 358 808 l 358 161 z "},"Ǳ":{"ha":1958,"x_min":122,"x_max":1878,"o":"m 122 0 l 122 972 l 529 972 q 725 937 636 972 q 878 836 814 901 q 978 682 943 771 q 1013 486 1013 593 q 978 290 1013 379 q 878 135 943 200 q 725 35 814 71 q 529 0 636 0 l 122 0 m 358 161 l 326 208 l 522 208 q 626 228 581 208 q 705 285 672 249 q 756 372 738 321 q 774 486 774 424 q 756 600 774 549 q 705 688 738 651 q 626 744 672 724 q 522 764 581 764 l 322 764 l 358 808 l 358 161 m 1093 0 l 1093 157 l 1615 851 l 1697 756 l 1129 756 l 1129 972 l 1863 972 l 1863 817 l 1343 121 l 1260 207 l 1878 207 l 1878 0 l 1093 0 z "},"Ǆ":{"ha":1958,"x_min":122,"x_max":1878,"o":"m 122 0 l 122 972 l 529 972 q 725 937 636 972 q 878 836 814 901 q 978 682 943 771 q 1013 486 1013 593 q 978 290 1013 379 q 878 135 943 200 q 725 35 814 71 q 529 0 636 0 l 122 0 m 358 161 l 326 208 l 522 208 q 626 228 581 208 q 705 285 672 249 q 756 372 738 321 q 774 486 774 424 q 756 600 774 549 q 705 688 738 651 q 626 744 672 724 q 522 764 581 764 l 322 764 l 358 808 l 358 161 m 1093 0 l 1093 157 l 1615 851 l 1697 756 l 1129 756 l 1129 972 l 1863 972 l 1863 817 l 1343 121 l 1260 207 l 1878 207 l 1878 0 l 1093 0 m 1418 1049 l 1232 1197 l 1301 1275 l 1506 1178 l 1464 1178 l 1668 1275 l 1738 1197 l 1551 1049 l 1418 1049 z "},"Ð":{"ha":1072,"x_min":49,"x_max":1013,"o":"m 49 404 l 49 568 l 501 568 l 501 404 l 49 404 m 122 0 l 122 972 l 529 972 q 725 937 636 972 q 878 836 814 901 q 978 682 943 771 q 1013 486 1013 593 q 978 290 1013 379 q 878 135 943 200 q 725 35 814 71 q 529 0 636 0 l 122 0 m 358 161 l 326 208 l 522 208 q 626 228 581 208 q 705 285 672 249 q 756 372 738 321 q 774 486 774 424 q 756 600 774 549 q 705 688 738 651 q 626 744 672 724 q 522 764 581 764 l 322 764 l 358 808 l 358 161 z "},"Ď":{"ha":1072,"x_min":122,"x_max":1013,"o":"m 122 0 l 122 972 l 529 972 q 725 937 636 972 q 878 836 814 901 q 978 682 943 771 q 1013 486 1013 593 q 978 290 1013 379 q 878 135 943 200 q 725 35 814 71 q 529 0 636 0 l 122 0 m 358 161 l 326 208 l 522 208 q 626 228 581 208 q 705 285 672 249 q 756 372 738 321 q 774 486 774 424 q 756 600 774 549 q 705 688 738 651 q 626 744 672 724 q 522 764 581 764 l 322 764 l 358 808 l 358 161 m 469 1049 l 283 1197 l 353 1275 l 557 1178 l 515 1178 l 719 1275 l 789 1197 l 603 1049 l 469 1049 z "},"Đ":{"ha":1072,"x_min":49,"x_max":1013,"o":"m 49 404 l 49 568 l 501 568 l 501 404 l 49 404 m 122 0 l 122 972 l 529 972 q 725 937 636 972 q 878 836 814 901 q 978 682 943 771 q 1013 486 1013 593 q 978 290 1013 379 q 878 135 943 200 q 725 35 814 71 q 529 0 636 0 l 122 0 m 358 161 l 326 208 l 522 208 q 626 228 581 208 q 705 285 672 249 q 756 372 738 321 q 774 486 774 424 q 756 600 774 549 q 705 688 738 651 q 626 744 672 724 q 522 764 581 764 l 322 764 l 358 808 l 358 161 z "},"Ḍ":{"ha":1072,"x_min":122,"x_max":1013,"o":"m 122 0 l 122 972 l 529 972 q 725 937 636 972 q 878 836 814 901 q 978 682 943 771 q 1013 486 1013 593 q 978 290 1013 379 q 878 135 943 200 q 725 35 814 71 q 529 0 636 0 l 122 0 m 358 161 l 326 208 l 522 208 q 626 228 581 208 q 705 285 672 249 q 756 372 738 321 q 774 486 774 424 q 756 600 774 549 q 705 688 738 651 q 626 744 672 724 q 522 764 581 764 l 322 764 l 358 808 l 358 161 m 536 -311 q 436 -280 472 -311 q 400 -193 400 -249 q 437 -108 400 -140 q 536 -75 474 -75 q 636 -106 600 -75 q 672 -193 672 -136 q 635 -278 672 -244 q 536 -311 599 -311 z "},"Ḏ":{"ha":1072,"x_min":122,"x_max":1013,"o":"m 122 0 l 122 972 l 529 972 q 725 937 636 972 q 878 836 814 901 q 978 682 943 771 q 1013 486 1013 593 q 978 290 1013 379 q 878 135 943 200 q 725 35 814 71 q 529 0 636 0 l 122 0 m 358 161 l 326 208 l 522 208 q 626 228 581 208 q 705 285 672 249 q 756 372 738 321 q 774 486 774 424 q 756 600 774 549 q 705 688 738 651 q 626 744 672 724 q 522 764 581 764 l 322 764 l 358 808 l 358 161 m 324 -275 l 324 -111 l 749 -111 l 749 -275 l 324 -275 z "},"ǲ":{"ha":1835,"x_min":122,"x_max":1764,"o":"m 122 0 l 122 972 l 529 972 q 725 937 636 972 q 878 836 814 901 q 978 682 943 771 q 1013 486 1013 593 q 978 290 1013 379 q 878 135 943 200 q 725 35 814 71 q 529 0 636 0 l 122 0 m 358 161 l 326 208 l 522 208 q 626 228 581 208 q 705 285 672 249 q 756 372 738 321 q 774 486 774 424 q 756 600 774 549 q 705 688 738 651 q 626 744 672 724 q 522 764 581 764 l 322 764 l 358 808 l 358 161 m 1140 0 l 1140 128 l 1532 631 l 1532 557 l 1140 557 l 1140 738 l 1751 738 l 1751 604 l 1381 117 l 1375 181 l 1764 181 l 1764 0 l 1140 0 z "},"ǅ":{"ha":1835,"x_min":122,"x_max":1764,"o":"m 122 0 l 122 972 l 529 972 q 725 937 636 972 q 878 836 814 901 q 978 682 943 771 q 1013 486 1013 593 q 978 290 1013 379 q 878 135 943 200 q 725 35 814 71 q 529 0 636 0 l 122 0 m 358 161 l 326 208 l 522 208 q 626 228 581 208 q 705 285 672 249 q 756 372 738 321 q 774 486 774 424 q 756 600 774 549 q 705 688 738 651 q 626 744 672 724 q 522 764 581 764 l 322 764 l 358 808 l 358 161 m 1140 0 l 1140 128 l 1532 631 l 1532 557 l 1140 557 l 1140 738 l 1751 738 l 1751 604 l 1381 117 l 1375 181 l 1764 181 l 1764 0 l 1140 0 m 1386 843 l 1192 1022 l 1272 1092 l 1474 972 l 1432 972 l 1633 1092 l 1714 1022 l 1519 843 l 1386 843 z "},"E":{"ha":896,"x_min":122,"x_max":814,"o":"m 122 0 l 122 972 l 800 972 l 800 771 l 351 771 l 351 201 l 814 201 l 814 0 l 122 0 m 233 399 l 233 590 l 738 590 l 738 399 l 233 399 z "},"É":{"ha":896,"x_min":122,"x_max":814,"o":"m 122 0 l 122 972 l 800 972 l 800 771 l 351 771 l 351 201 l 814 201 l 814 0 l 122 0 m 233 399 l 233 590 l 738 590 l 738 399 l 233 399 m 353 1039 l 301 1150 l 592 1310 l 668 1147 l 353 1039 z "},"Ĕ":{"ha":896,"x_min":122,"x_max":814,"o":"m 122 0 l 122 972 l 800 972 l 800 771 l 351 771 l 351 201 l 814 201 l 814 0 l 122 0 m 233 399 l 233 590 l 738 590 l 738 399 l 233 399 m 476 1051 q 363 1078 414 1051 q 276 1152 311 1104 q 228 1263 240 1200 l 369 1279 q 413 1219 383 1243 q 476 1196 442 1196 q 540 1219 511 1196 q 583 1279 569 1243 l 725 1263 q 677 1152 713 1200 q 591 1078 642 1104 q 476 1051 540 1051 z "},"Ě":{"ha":896,"x_min":122,"x_max":814,"o":"m 122 0 l 122 972 l 800 972 l 800 771 l 351 771 l 351 201 l 814 201 l 814 0 l 122 0 m 233 399 l 233 590 l 738 590 l 738 399 l 233 399 m 410 1049 l 224 1197 l 293 1275 l 497 1178 l 456 1178 l 660 1275 l 729 1197 l 543 1049 l 410 1049 z "},"Ḝ":{"ha":896,"x_min":122,"x_max":814,"o":"m 122 0 l 122 972 l 800 972 l 800 771 l 351 771 l 351 201 l 814 201 l 814 0 l 122 0 m 233 399 l 233 590 l 738 590 l 738 399 l 233 399 m 310 -342 l 297 -237 q 356 -231 325 -237 q 410 -210 388 -224 q 432 -182 432 -197 q 416 -156 432 -165 q 378 -141 400 -146 q 333 -136 356 -136 l 308 -117 l 404 33 l 518 33 l 456 -60 q 563 -105 528 -68 q 597 -193 597 -142 q 571 -265 597 -236 q 501 -311 544 -293 q 408 -336 458 -329 q 310 -342 358 -343 m 476 1051 q 363 1078 414 1051 q 276 1152 311 1104 q 228 1263 240 1200 l 369 1279 q 413 1219 383 1243 q 476 1196 442 1196 q 540 1219 511 1196 q 583 1279 569 1243 l 725 1263 q 677 1152 713 1200 q 591 1078 642 1104 q 476 1051 540 1051 z "},"Ê":{"ha":896,"x_min":122,"x_max":814,"o":"m 122 0 l 122 972 l 800 972 l 800 771 l 351 771 l 351 201 l 814 201 l 814 0 l 122 0 m 233 399 l 233 590 l 738 590 l 738 399 l 233 399 m 292 1047 l 224 1126 l 413 1274 l 538 1274 l 726 1126 l 658 1047 l 454 1146 l 496 1146 l 292 1047 z "},"Ế":{"ha":896,"x_min":122,"x_max":907,"o":"m 122 0 l 122 972 l 800 972 l 800 771 l 351 771 l 351 201 l 814 201 l 814 0 l 122 0 m 233 399 l 233 590 l 738 590 l 738 399 l 233 399 m 289 1042 l 226 1118 l 413 1260 l 538 1260 l 724 1118 l 661 1042 l 454 1132 l 496 1132 l 289 1042 m 725 1222 l 636 1283 l 768 1511 l 907 1413 l 725 1222 z "},"Ệ":{"ha":896,"x_min":122,"x_max":814,"o":"m 122 0 l 122 972 l 800 972 l 800 771 l 351 771 l 351 201 l 814 201 l 814 0 l 122 0 m 233 399 l 233 590 l 738 590 l 738 399 l 233 399 m 449 -311 q 349 -280 385 -311 q 313 -193 313 -249 q 349 -108 313 -140 q 449 -75 386 -75 q 549 -106 513 -75 q 585 -193 585 -136 q 548 -278 585 -244 q 449 -311 511 -311 m 292 1047 l 224 1126 l 413 1274 l 538 1274 l 726 1126 l 658 1047 l 454 1146 l 496 1146 l 292 1047 z "},"Ề":{"ha":896,"x_min":122,"x_max":814,"o":"m 122 0 l 122 972 l 800 972 l 800 771 l 351 771 l 351 201 l 814 201 l 814 0 l 122 0 m 233 399 l 233 590 l 738 590 l 738 399 l 233 399 m 289 1042 l 226 1118 l 413 1260 l 538 1260 l 724 1118 l 661 1042 l 454 1132 l 496 1132 l 289 1042 m 710 1222 l 525 1414 l 664 1514 l 796 1285 l 710 1222 z "},"Ể":{"ha":896,"x_min":122,"x_max":882,"o":"m 122 0 l 122 972 l 800 972 l 800 771 l 351 771 l 351 201 l 814 201 l 814 0 l 122 0 m 233 399 l 233 590 l 738 590 l 738 399 l 233 399 m 290 1042 l 226 1118 l 414 1260 l 539 1260 l 725 1118 l 663 1042 l 456 1132 l 497 1132 l 290 1042 m 686 1217 q 668 1243 675 1229 q 661 1272 661 1257 q 667 1299 661 1286 q 697 1326 674 1311 q 724 1347 713 1338 q 735 1365 735 1356 q 722 1385 735 1378 q 689 1392 710 1392 q 633 1383 663 1392 q 574 1364 603 1375 l 544 1482 q 616 1508 574 1497 q 706 1519 658 1519 q 834 1485 786 1519 q 882 1392 882 1450 q 861 1329 882 1350 q 817 1294 840 1308 q 781 1271 794 1282 q 767 1247 767 1260 q 767 1243 767 1246 q 768 1236 767 1240 l 686 1217 z "},"Ễ":{"ha":896,"x_min":122,"x_max":814,"o":"m 122 0 l 122 972 l 800 972 l 800 771 l 351 771 l 351 201 l 814 201 l 814 0 l 122 0 m 233 399 l 233 590 l 738 590 l 738 399 l 233 399 m 289 1042 l 226 1118 l 413 1260 l 538 1260 l 724 1118 l 661 1042 l 454 1132 l 496 1132 l 289 1042 m 589 1325 q 530 1333 558 1325 q 474 1353 501 1340 q 431 1369 447 1364 q 400 1375 414 1375 q 364 1361 376 1375 q 347 1324 351 1347 l 219 1331 q 266 1460 221 1410 q 381 1510 311 1510 q 433 1502 410 1510 q 488 1481 457 1494 q 528 1466 510 1472 q 560 1460 546 1460 q 591 1474 582 1460 q 604 1511 600 1488 l 732 1506 q 713 1415 732 1456 q 663 1349 694 1374 q 589 1325 632 1325 z "},"Ȅ":{"ha":896,"x_min":92,"x_max":814,"o":"m 122 0 l 122 972 l 800 972 l 800 771 l 351 771 l 351 201 l 814 201 l 814 0 l 122 0 m 233 399 l 233 590 l 738 590 l 738 399 l 233 399 m 646 1032 l 410 1203 l 525 1333 l 722 1122 l 646 1032 m 338 1028 l 92 1194 l 206 1331 l 413 1122 l 338 1028 z "},"Ë":{"ha":896,"x_min":122,"x_max":814,"o":"m 122 0 l 122 972 l 800 972 l 800 771 l 351 771 l 351 201 l 814 201 l 814 0 l 122 0 m 233 399 l 233 590 l 738 590 l 738 399 l 233 399 m 644 1047 q 554 1078 585 1047 q 524 1165 524 1110 q 556 1249 524 1215 q 644 1283 588 1283 q 734 1252 703 1283 q 765 1165 765 1221 q 733 1081 765 1115 q 644 1047 701 1047 m 307 1047 q 217 1078 247 1047 q 186 1165 186 1110 q 217 1249 186 1215 q 307 1283 249 1283 q 396 1252 365 1283 q 426 1165 426 1221 q 395 1081 426 1115 q 307 1047 364 1047 z "},"Ė":{"ha":896,"x_min":122,"x_max":814,"o":"m 122 0 l 122 972 l 800 972 l 800 771 l 351 771 l 351 201 l 814 201 l 814 0 l 122 0 m 233 399 l 233 590 l 738 590 l 738 399 l 233 399 m 476 1050 q 378 1081 413 1050 q 344 1165 344 1111 q 379 1247 344 1214 q 476 1281 414 1281 q 574 1250 540 1281 q 608 1165 608 1219 q 574 1083 608 1117 q 476 1050 539 1050 z "},"Ẹ":{"ha":896,"x_min":122,"x_max":814,"o":"m 122 0 l 122 972 l 800 972 l 800 771 l 351 771 l 351 201 l 814 201 l 814 0 l 122 0 m 233 399 l 233 590 l 738 590 l 738 399 l 233 399 m 449 -311 q 349 -280 385 -311 q 313 -193 313 -249 q 349 -108 313 -140 q 449 -75 386 -75 q 549 -106 513 -75 q 585 -193 585 -136 q 548 -278 585 -244 q 449 -311 511 -311 z "},"È":{"ha":896,"x_min":122,"x_max":814,"o":"m 122 0 l 122 972 l 800 972 l 800 771 l 351 771 l 351 201 l 814 201 l 814 0 l 122 0 m 233 399 l 233 590 l 738 590 l 738 399 l 233 399 m 613 1039 l 297 1147 l 374 1310 l 664 1150 l 613 1039 z "},"Ẻ":{"ha":896,"x_min":122,"x_max":814,"o":"m 122 0 l 122 972 l 800 972 l 800 771 l 351 771 l 351 201 l 814 201 l 814 0 l 122 0 m 233 399 l 233 590 l 738 590 l 738 399 l 233 399 m 440 1036 q 422 1064 431 1049 q 414 1096 414 1079 q 423 1128 414 1113 q 457 1163 432 1144 q 488 1185 476 1175 q 499 1208 499 1194 q 487 1227 499 1221 q 457 1233 475 1233 q 399 1225 429 1233 q 338 1203 368 1217 l 306 1321 q 381 1349 336 1338 q 474 1361 426 1361 q 599 1327 553 1361 q 646 1236 646 1293 q 626 1167 646 1190 q 585 1129 607 1143 q 548 1103 563 1115 q 533 1076 533 1090 q 535 1067 533 1071 q 538 1057 536 1063 l 440 1036 z "},"Ȇ":{"ha":896,"x_min":122,"x_max":814,"o":"m 122 0 l 122 972 l 800 972 l 800 771 l 351 771 l 351 201 l 814 201 l 814 0 l 122 0 m 233 399 l 233 590 l 738 590 l 738 399 l 233 399 m 369 1053 l 228 1069 q 276 1179 240 1132 q 363 1253 311 1226 q 476 1279 414 1279 q 591 1253 540 1279 q 677 1179 642 1226 q 725 1069 713 1132 l 583 1053 q 540 1111 569 1088 q 476 1135 511 1135 q 413 1111 442 1135 q 369 1053 383 1088 z "},"Ē":{"ha":896,"x_min":122,"x_max":814,"o":"m 122 0 l 122 972 l 800 972 l 800 771 l 351 771 l 351 201 l 814 201 l 814 0 l 122 0 m 233 399 l 233 590 l 738 590 l 738 399 l 233 399 m 226 1096 l 226 1236 l 725 1236 l 725 1096 l 226 1096 z "},"Ḗ":{"ha":896,"x_min":122,"x_max":814,"o":"m 122 0 l 122 972 l 800 972 l 800 771 l 351 771 l 351 201 l 814 201 l 814 0 l 122 0 m 233 399 l 233 590 l 738 590 l 738 399 l 233 399 m 226 1096 l 226 1236 l 725 1236 l 725 1096 l 226 1096 m 353 1303 l 301 1414 l 592 1574 l 668 1411 l 353 1303 z "},"Ḕ":{"ha":896,"x_min":122,"x_max":814,"o":"m 122 0 l 122 972 l 800 972 l 800 771 l 351 771 l 351 201 l 814 201 l 814 0 l 122 0 m 233 399 l 233 590 l 738 590 l 738 399 l 233 399 m 226 1096 l 226 1236 l 725 1236 l 725 1096 l 226 1096 m 613 1303 l 297 1411 l 374 1574 l 664 1414 l 613 1303 z "},"Ę":{"ha":896,"x_min":122,"x_max":814,"o":"m 122 0 l 122 972 l 800 972 l 800 771 l 351 771 l 351 201 l 814 201 l 814 0 l 122 0 m 233 399 l 233 590 l 738 590 l 738 399 l 233 399 m 642 -293 q 556 -274 594 -293 q 497 -222 518 -256 q 475 -144 475 -187 q 490 -77 475 -110 q 536 -17 506 -44 q 610 33 567 11 q 706 69 653 54 l 757 0 q 692 -23 722 -6 q 646 -62 663 -40 q 629 -107 629 -83 q 639 -137 629 -125 q 667 -150 649 -150 q 691 -142 681 -150 q 713 -117 701 -133 l 808 -187 q 745 -263 789 -233 q 642 -293 701 -293 z "},"Ẽ":{"ha":896,"x_min":122,"x_max":814,"o":"m 122 0 l 122 972 l 800 972 l 800 771 l 351 771 l 351 201 l 814 201 l 814 0 l 122 0 m 233 399 l 233 590 l 738 590 l 738 399 l 233 399 m 583 1067 q 528 1075 556 1067 q 467 1097 500 1083 q 424 1115 442 1110 q 393 1121 407 1121 q 362 1107 374 1121 q 350 1068 350 1093 l 211 1068 q 262 1212 211 1160 q 389 1264 313 1264 q 438 1257 414 1264 q 500 1233 463 1250 q 538 1217 522 1222 q 565 1211 553 1211 q 594 1226 583 1211 q 603 1264 604 1240 l 740 1264 q 720 1165 740 1211 q 665 1093 700 1119 q 583 1067 631 1067 z "},"F":{"ha":858,"x_min":122,"x_max":792,"o":"m 122 0 l 122 972 l 358 972 l 358 0 l 122 0 m 232 372 l 232 569 l 735 569 l 735 372 l 232 372 m 232 764 l 232 972 l 792 972 l 792 764 l 232 764 z "},"G":{"ha":1086,"x_min":60,"x_max":1028,"o":"m 574 -14 q 363 24 457 -14 q 200 129 268 61 q 96 290 132 197 q 60 490 60 382 q 98 690 60 599 q 207 849 136 781 q 374 954 278 917 q 585 992 471 992 q 737 971 665 992 q 867 914 808 950 q 965 831 925 878 l 822 679 q 751 735 788 713 q 672 770 714 757 q 583 783 631 783 q 472 761 522 783 q 383 699 421 739 q 324 606 344 660 q 303 490 303 553 q 325 374 303 428 q 386 280 347 319 q 478 217 425 240 q 593 194 532 194 q 674 208 636 194 q 740 246 713 222 q 785 302 768 269 q 801 372 801 335 l 801 408 l 832 361 l 564 361 l 564 546 l 1021 546 q 1025 504 1024 531 q 1027 453 1026 478 q 1028 415 1028 428 q 994 242 1028 321 q 899 107 960 164 q 754 18 838 50 q 574 -14 671 -14 z "},"Ğ":{"ha":1086,"x_min":60,"x_max":1028,"o":"m 574 -14 q 363 24 457 -14 q 200 129 268 61 q 96 290 132 197 q 60 490 60 382 q 98 690 60 599 q 207 849 136 781 q 374 954 278 917 q 585 992 471 992 q 737 971 665 992 q 867 914 808 950 q 965 831 925 878 l 822 679 q 751 735 788 713 q 672 770 714 757 q 583 783 631 783 q 472 761 522 783 q 383 699 421 739 q 324 606 344 660 q 303 490 303 553 q 325 374 303 428 q 386 280 347 319 q 478 217 425 240 q 593 194 532 194 q 674 208 636 194 q 740 246 713 222 q 785 302 768 269 q 801 372 801 335 l 801 408 l 832 361 l 564 361 l 564 546 l 1021 546 q 1025 504 1024 531 q 1027 453 1026 478 q 1028 415 1028 428 q 994 242 1028 321 q 899 107 960 164 q 754 18 838 50 q 574 -14 671 -14 m 572 1051 q 458 1078 510 1051 q 372 1152 407 1104 q 324 1263 336 1200 l 465 1279 q 508 1219 479 1243 q 572 1196 538 1196 q 636 1219 607 1196 q 679 1279 665 1243 l 821 1263 q 773 1152 808 1200 q 687 1078 738 1104 q 572 1051 636 1051 z "},"Ǧ":{"ha":1086,"x_min":60,"x_max":1028,"o":"m 574 -14 q 363 24 457 -14 q 200 129 268 61 q 96 290 132 197 q 60 490 60 382 q 98 690 60 599 q 207 849 136 781 q 374 954 278 917 q 585 992 471 992 q 737 971 665 992 q 867 914 808 950 q 965 831 925 878 l 822 679 q 751 735 788 713 q 672 770 714 757 q 583 783 631 783 q 472 761 522 783 q 383 699 421 739 q 324 606 344 660 q 303 490 303 553 q 325 374 303 428 q 386 280 347 319 q 478 217 425 240 q 593 194 532 194 q 674 208 636 194 q 740 246 713 222 q 785 302 768 269 q 801 372 801 335 l 801 408 l 832 361 l 564 361 l 564 546 l 1021 546 q 1025 504 1024 531 q 1027 453 1026 478 q 1028 415 1028 428 q 994 242 1028 321 q 899 107 960 164 q 754 18 838 50 q 574 -14 671 -14 m 506 1049 l 319 1197 l 389 1275 l 593 1178 l 551 1178 l 756 1275 l 825 1197 l 639 1049 l 506 1049 z "},"Ĝ":{"ha":1086,"x_min":60,"x_max":1028,"o":"m 574 -14 q 363 24 457 -14 q 200 129 268 61 q 96 290 132 197 q 60 490 60 382 q 98 690 60 599 q 207 849 136 781 q 374 954 278 917 q 585 992 471 992 q 737 971 665 992 q 867 914 808 950 q 965 831 925 878 l 822 679 q 751 735 788 713 q 672 770 714 757 q 583 783 631 783 q 472 761 522 783 q 383 699 421 739 q 324 606 344 660 q 303 490 303 553 q 325 374 303 428 q 386 280 347 319 q 478 217 425 240 q 593 194 532 194 q 674 208 636 194 q 740 246 713 222 q 785 302 768 269 q 801 372 801 335 l 801 408 l 832 361 l 564 361 l 564 546 l 1021 546 q 1025 504 1024 531 q 1027 453 1026 478 q 1028 415 1028 428 q 994 242 1028 321 q 899 107 960 164 q 754 18 838 50 q 574 -14 671 -14 m 388 1047 l 319 1126 l 508 1274 l 633 1274 l 822 1126 l 754 1047 l 550 1146 l 592 1146 l 388 1047 z "},"Ģ":{"ha":1086,"x_min":60,"x_max":1028,"o":"m 574 -14 q 363 24 457 -14 q 200 129 268 61 q 96 290 132 197 q 60 490 60 382 q 98 690 60 599 q 207 849 136 781 q 374 954 278 917 q 585 992 471 992 q 737 971 665 992 q 867 914 808 950 q 965 831 925 878 l 822 679 q 751 735 788 713 q 672 770 714 757 q 583 783 631 783 q 472 761 522 783 q 383 699 421 739 q 324 606 344 660 q 303 490 303 553 q 325 374 303 428 q 386 280 347 319 q 478 217 425 240 q 593 194 532 194 q 674 208 636 194 q 740 246 713 222 q 785 302 768 269 q 801 372 801 335 l 801 408 l 832 361 l 564 361 l 564 546 l 1021 546 q 1025 504 1024 531 q 1027 453 1026 478 q 1028 415 1028 428 q 994 242 1028 321 q 899 107 960 164 q 754 18 838 50 q 574 -14 671 -14 m 467 -408 l 411 -332 q 453 -313 431 -325 q 494 -285 476 -301 q 511 -251 511 -268 q 503 -234 511 -240 q 478 -219 496 -228 q 436 -191 449 -208 q 424 -146 424 -174 q 456 -78 424 -101 q 536 -56 488 -56 q 635 -90 594 -56 q 675 -190 675 -124 q 660 -265 675 -231 q 619 -326 646 -299 q 553 -373 592 -353 q 467 -408 514 -393 z "},"Ġ":{"ha":1086,"x_min":60,"x_max":1028,"o":"m 574 -14 q 363 24 457 -14 q 200 129 268 61 q 96 290 132 197 q 60 490 60 382 q 98 690 60 599 q 207 849 136 781 q 374 954 278 917 q 585 992 471 992 q 737 971 665 992 q 867 914 808 950 q 965 831 925 878 l 822 679 q 751 735 788 713 q 672 770 714 757 q 583 783 631 783 q 472 761 522 783 q 383 699 421 739 q 324 606 344 660 q 303 490 303 553 q 325 374 303 428 q 386 280 347 319 q 478 217 425 240 q 593 194 532 194 q 674 208 636 194 q 740 246 713 222 q 785 302 768 269 q 801 372 801 335 l 801 408 l 832 361 l 564 361 l 564 546 l 1021 546 q 1025 504 1024 531 q 1027 453 1026 478 q 1028 415 1028 428 q 994 242 1028 321 q 899 107 960 164 q 754 18 838 50 q 574 -14 671 -14 m 572 1050 q 474 1081 508 1050 q 440 1165 440 1111 q 475 1247 440 1214 q 572 1281 510 1281 q 670 1250 636 1281 q 704 1165 704 1219 q 669 1083 704 1117 q 572 1050 635 1050 z "},"Ḡ":{"ha":1086,"x_min":60,"x_max":1028,"o":"m 574 -14 q 363 24 457 -14 q 200 129 268 61 q 96 290 132 197 q 60 490 60 382 q 98 690 60 599 q 207 849 136 781 q 374 954 278 917 q 585 992 471 992 q 737 971 665 992 q 867 914 808 950 q 965 831 925 878 l 822 679 q 751 735 788 713 q 672 770 714 757 q 583 783 631 783 q 472 761 522 783 q 383 699 421 739 q 324 606 344 660 q 303 490 303 553 q 325 374 303 428 q 386 280 347 319 q 478 217 425 240 q 593 194 532 194 q 674 208 636 194 q 740 246 713 222 q 785 302 768 269 q 801 372 801 335 l 801 408 l 832 361 l 564 361 l 564 546 l 1021 546 q 1025 504 1024 531 q 1027 453 1026 478 q 1028 415 1028 428 q 994 242 1028 321 q 899 107 960 164 q 754 18 838 50 q 574 -14 671 -14 m 322 1096 l 322 1236 l 821 1236 l 821 1096 l 322 1096 z "},"H":{"ha":1082,"x_min":122,"x_max":961,"o":"m 725 0 l 725 972 l 961 972 l 961 0 l 725 0 m 122 0 l 122 972 l 358 972 l 358 0 l 122 0 m 214 379 l 215 590 l 850 590 l 850 379 l 214 379 z "},"Ħ":{"ha":1139,"x_min":47,"x_max":1096,"o":"m 47 665 l 47 858 l 174 858 l 281 844 l 828 844 l 944 858 l 1096 858 l 1096 665 l 949 665 l 844 679 l 267 679 l 168 665 l 47 665 m 754 0 l 754 972 l 990 972 l 990 0 l 754 0 m 151 0 l 151 972 l 388 972 l 388 0 l 151 0 m 244 379 l 244 590 l 881 590 l 881 379 l 244 379 z "},"Ḫ":{"ha":1082,"x_min":122,"x_max":961,"o":"m 725 0 l 725 972 l 961 972 l 961 0 l 725 0 m 122 0 l 122 972 l 358 972 l 358 0 l 122 0 m 214 379 l 215 590 l 850 590 l 850 379 l 214 379 m 542 -326 q 380 -267 447 -326 q 293 -104 313 -208 l 435 -87 q 479 -157 450 -132 q 542 -182 508 -182 q 604 -157 575 -182 q 649 -87 633 -132 l 790 -104 q 703 -267 771 -208 q 542 -326 636 -326 z "},"Ĥ":{"ha":1082,"x_min":122,"x_max":961,"o":"m 725 0 l 725 972 l 961 972 l 961 0 l 725 0 m 122 0 l 122 972 l 358 972 l 358 0 l 122 0 m 214 379 l 215 590 l 850 590 l 850 379 l 214 379 m 358 1047 l 290 1126 l 479 1274 l 604 1274 l 793 1126 l 725 1047 l 521 1146 l 563 1146 l 358 1047 z "},"Ḥ":{"ha":1082,"x_min":122,"x_max":961,"o":"m 725 0 l 725 972 l 961 972 l 961 0 l 725 0 m 122 0 l 122 972 l 358 972 l 358 0 l 122 0 m 214 379 l 215 590 l 850 590 l 850 379 l 214 379 m 542 -311 q 442 -280 478 -311 q 406 -193 406 -249 q 442 -108 406 -140 q 542 -75 479 -75 q 642 -106 606 -75 q 678 -193 678 -136 q 641 -278 678 -244 q 542 -311 604 -311 z "},"I":{"ha":771,"x_min":103,"x_max":668,"o":"m 103 0 l 103 199 l 267 199 l 267 774 l 103 774 l 103 972 l 668 972 l 668 774 l 503 774 l 503 199 l 668 199 l 668 0 l 103 0 z "},"Ĳ":{"ha":1694,"x_min":103,"x_max":1601,"o":"m 103 0 l 103 199 l 267 199 l 267 774 l 103 774 l 103 972 l 668 972 l 668 774 l 503 774 l 503 199 l 668 199 l 668 0 l 103 0 m 1133 -14 q 1033 -2 1081 -14 q 947 33 986 10 q 878 88 908 56 q 825 161 847 121 l 960 301 q 997 253 979 272 q 1033 222 1015 235 q 1069 204 1050 210 q 1108 199 1088 199 q 1167 215 1142 199 q 1207 258 1193 231 q 1221 324 1221 286 l 1221 767 l 1043 767 l 1043 972 l 1601 972 l 1601 767 l 1451 767 l 1451 296 q 1427 168 1451 225 q 1360 70 1403 111 q 1259 8 1317 29 q 1133 -14 1201 -14 z "},"Í":{"ha":771,"x_min":103,"x_max":668,"o":"m 103 0 l 103 199 l 267 199 l 267 774 l 103 774 l 103 972 l 668 972 l 668 774 l 503 774 l 503 199 l 668 199 l 668 0 l 103 0 m 263 1039 l 211 1150 l 501 1310 l 578 1147 l 263 1039 z "},"Ĭ":{"ha":771,"x_min":103,"x_max":668,"o":"m 103 0 l 103 199 l 267 199 l 267 774 l 103 774 l 103 972 l 668 972 l 668 774 l 503 774 l 503 199 l 668 199 l 668 0 l 103 0 m 385 1051 q 271 1078 322 1051 q 184 1152 219 1104 q 136 1263 149 1200 l 278 1279 q 321 1219 292 1243 q 385 1196 350 1196 q 449 1219 419 1196 q 492 1279 478 1243 l 633 1263 q 585 1152 621 1200 q 499 1078 550 1104 q 385 1051 449 1051 z "},"Ǐ":{"ha":771,"x_min":103,"x_max":668,"o":"m 103 0 l 103 199 l 267 199 l 267 774 l 103 774 l 103 972 l 668 972 l 668 774 l 503 774 l 503 199 l 668 199 l 668 0 l 103 0 m 318 1049 l 132 1197 l 201 1275 l 406 1178 l 364 1178 l 568 1275 l 638 1197 l 451 1049 l 318 1049 z "},"Î":{"ha":771,"x_min":103,"x_max":668,"o":"m 103 0 l 103 199 l 267 199 l 267 774 l 103 774 l 103 972 l 668 972 l 668 774 l 503 774 l 503 199 l 668 199 l 668 0 l 103 0 m 201 1047 l 133 1126 l 322 1274 l 447 1274 l 636 1126 l 568 1047 l 364 1146 l 406 1146 l 201 1047 z "},"Ȉ":{"ha":771,"x_min":1,"x_max":668,"o":"m 103 0 l 103 199 l 267 199 l 267 774 l 103 774 l 103 972 l 668 972 l 668 774 l 503 774 l 503 199 l 668 199 l 668 0 l 103 0 m 556 1032 l 319 1203 l 435 1333 l 632 1122 l 556 1032 m 247 1028 l 1 1194 l 115 1331 l 322 1122 l 247 1028 z "},"Ï":{"ha":771,"x_min":96,"x_max":675,"o":"m 103 0 l 103 199 l 267 199 l 267 774 l 103 774 l 103 972 l 668 972 l 668 774 l 503 774 l 503 199 l 668 199 l 668 0 l 103 0 m 554 1047 q 464 1078 494 1047 q 433 1165 433 1110 q 465 1249 433 1215 q 554 1283 497 1283 q 644 1252 613 1283 q 675 1165 675 1221 q 643 1081 675 1115 q 554 1047 611 1047 m 217 1047 q 126 1078 157 1047 q 96 1165 96 1110 q 127 1249 96 1215 q 217 1283 158 1283 q 306 1252 275 1283 q 336 1165 336 1221 q 305 1081 336 1115 q 217 1047 274 1047 z "},"Ḯ":{"ha":771,"x_min":96,"x_max":675,"o":"m 103 0 l 103 199 l 267 199 l 267 774 l 103 774 l 103 972 l 668 972 l 668 774 l 503 774 l 503 199 l 668 199 l 668 0 l 103 0 m 263 1324 l 211 1436 l 501 1596 l 578 1433 l 263 1324 m 217 1047 q 126 1078 157 1047 q 96 1165 96 1110 q 127 1249 96 1215 q 217 1283 158 1283 q 306 1252 275 1283 q 336 1165 336 1221 q 305 1081 336 1115 q 217 1047 274 1047 m 554 1047 q 464 1078 494 1047 q 433 1165 433 1110 q 465 1249 433 1215 q 554 1283 497 1283 q 644 1252 613 1283 q 675 1165 675 1221 q 643 1081 675 1115 q 554 1047 611 1047 z "},"İ":{"ha":771,"x_min":103,"x_max":668,"o":"m 103 0 l 103 199 l 267 199 l 267 774 l 103 774 l 103 972 l 668 972 l 668 774 l 503 774 l 503 199 l 668 199 l 668 0 l 103 0 m 385 1050 q 287 1081 321 1050 q 253 1165 253 1111 q 288 1247 253 1214 q 385 1281 322 1281 q 483 1250 449 1281 q 517 1165 517 1219 q 482 1083 517 1117 q 385 1050 447 1050 z "},"Ị":{"ha":771,"x_min":103,"x_max":668,"o":"m 103 0 l 103 199 l 267 199 l 267 774 l 103 774 l 103 972 l 668 972 l 668 774 l 503 774 l 503 199 l 668 199 l 668 0 l 103 0 m 385 -311 q 285 -280 321 -311 q 249 -193 249 -249 q 285 -108 249 -140 q 385 -75 322 -75 q 485 -106 449 -75 q 521 -193 521 -136 q 484 -278 521 -244 q 385 -311 447 -311 z "},"Ì":{"ha":771,"x_min":103,"x_max":668,"o":"m 103 0 l 103 199 l 267 199 l 267 774 l 103 774 l 103 972 l 668 972 l 668 774 l 503 774 l 503 199 l 668 199 l 668 0 l 103 0 m 522 1039 l 207 1147 l 283 1310 l 574 1150 l 522 1039 z "},"Ỉ":{"ha":771,"x_min":103,"x_max":668,"o":"m 103 0 l 103 199 l 267 199 l 267 774 l 103 774 l 103 972 l 668 972 l 668 774 l 503 774 l 503 199 l 668 199 l 668 0 l 103 0 m 350 1036 q 332 1064 340 1049 q 324 1096 324 1079 q 333 1128 324 1113 q 367 1163 342 1144 q 397 1185 386 1175 q 408 1208 408 1194 q 397 1227 408 1221 q 367 1233 385 1233 q 308 1225 339 1233 q 247 1203 278 1217 l 215 1321 q 291 1349 246 1338 q 383 1361 336 1361 q 509 1327 463 1361 q 556 1236 556 1293 q 536 1167 556 1190 q 494 1129 517 1143 q 458 1103 472 1115 q 443 1076 443 1090 q 444 1067 443 1071 q 447 1057 446 1063 l 350 1036 z "},"Ȋ":{"ha":771,"x_min":103,"x_max":668,"o":"m 103 0 l 103 199 l 267 199 l 267 774 l 103 774 l 103 972 l 668 972 l 668 774 l 503 774 l 503 199 l 668 199 l 668 0 l 103 0 m 278 1053 l 136 1069 q 184 1179 149 1132 q 271 1253 219 1226 q 385 1279 322 1279 q 499 1253 449 1279 q 585 1179 550 1226 q 633 1069 621 1132 l 492 1053 q 449 1111 478 1088 q 385 1135 419 1135 q 321 1111 350 1135 q 278 1053 292 1088 z "},"Ī":{"ha":771,"x_min":103,"x_max":668,"o":"m 103 0 l 103 199 l 267 199 l 267 774 l 103 774 l 103 972 l 668 972 l 668 774 l 503 774 l 503 199 l 668 199 l 668 0 l 103 0 m 135 1096 l 135 1236 l 633 1236 l 633 1096 l 135 1096 z "},"Į":{"ha":771,"x_min":103,"x_max":668,"o":"m 103 0 l 103 199 l 267 199 l 267 774 l 103 774 l 103 972 l 668 972 l 668 774 l 503 774 l 503 199 l 668 199 l 668 0 l 103 0 m 436 -293 q 351 -274 389 -293 q 291 -222 313 -256 q 269 -144 269 -187 q 285 -77 269 -110 q 331 -17 300 -44 q 404 33 361 11 q 500 69 447 54 l 551 0 q 487 -23 517 -6 q 440 -62 457 -40 q 424 -107 424 -83 q 433 -137 424 -125 q 461 -150 443 -150 q 485 -142 475 -150 q 507 -117 496 -133 l 603 -187 q 540 -263 583 -233 q 436 -293 496 -293 z "},"Ĩ":{"ha":771,"x_min":103,"x_max":668,"o":"m 103 0 l 103 199 l 267 199 l 267 774 l 103 774 l 103 972 l 668 972 l 668 774 l 503 774 l 503 199 l 668 199 l 668 0 l 103 0 m 492 1067 q 436 1075 464 1067 q 375 1097 408 1083 q 333 1115 350 1110 q 301 1121 315 1121 q 270 1107 282 1121 q 258 1068 258 1093 l 119 1068 q 170 1212 119 1160 q 297 1264 221 1264 q 347 1257 322 1264 q 408 1233 371 1250 q 446 1217 431 1222 q 474 1211 461 1211 q 502 1226 492 1211 q 511 1264 513 1240 l 649 1264 q 628 1165 649 1211 q 574 1093 608 1119 q 492 1067 539 1067 z "},"J":{"ha":924,"x_min":54,"x_max":831,"o":"m 363 -14 q 263 -2 310 -14 q 176 33 215 10 q 107 88 138 56 q 54 161 76 121 l 189 301 q 226 253 208 272 q 262 222 244 235 q 298 204 279 210 q 338 199 317 199 q 397 215 371 199 q 436 258 422 231 q 450 324 450 286 l 450 767 l 272 767 l 272 972 l 831 972 l 831 767 l 681 767 l 681 296 q 656 168 681 225 q 589 70 632 111 q 488 8 546 29 q 363 -14 431 -14 z "},"Ĵ":{"ha":924,"x_min":54,"x_max":831,"o":"m 363 -14 q 263 -2 310 -14 q 176 33 215 10 q 107 88 138 56 q 54 161 76 121 l 189 301 q 226 253 208 272 q 262 222 244 235 q 298 204 279 210 q 338 199 317 199 q 397 215 371 199 q 436 258 422 231 q 450 324 450 286 l 450 767 l 272 767 l 272 972 l 831 972 l 831 767 l 681 767 l 681 296 q 656 168 681 225 q 589 70 632 111 q 488 8 546 29 q 363 -14 431 -14 m 379 1047 l 311 1126 l 500 1274 l 625 1274 l 814 1126 l 746 1047 l 542 1146 l 583 1146 l 379 1047 z "},"K":{"ha":1026,"x_min":122,"x_max":1021,"o":"m 294 285 l 233 483 l 715 972 l 994 972 l 294 285 m 122 0 l 122 972 l 358 972 l 358 0 l 122 0 m 746 0 l 385 475 l 544 613 l 1021 0 l 746 0 z "},"Ķ":{"ha":1026,"x_min":122,"x_max":1021,"o":"m 294 285 l 233 483 l 715 972 l 994 972 l 294 285 m 122 0 l 122 972 l 358 972 l 358 0 l 122 0 m 746 0 l 385 475 l 544 613 l 1021 0 l 746 0 m 436 -408 l 381 -332 q 423 -313 400 -325 q 463 -285 446 -301 q 481 -251 481 -268 q 473 -234 481 -240 q 447 -219 465 -228 q 406 -191 418 -208 q 393 -146 393 -174 q 425 -78 393 -101 q 506 -56 457 -56 q 604 -90 564 -56 q 644 -190 644 -124 q 630 -265 644 -231 q 588 -326 615 -299 q 522 -373 561 -353 q 436 -408 483 -393 z "},"L":{"ha":846,"x_min":122,"x_max":792,"o":"m 122 0 l 122 972 l 358 972 l 358 208 l 792 208 l 792 0 l 122 0 z "},"Ǉ":{"ha":1769,"x_min":122,"x_max":1676,"o":"m 122 0 l 122 972 l 358 972 l 358 208 l 792 208 l 792 0 l 122 0 m 1208 -14 q 1108 -2 1156 -14 q 1022 33 1061 10 q 953 88 983 56 q 900 161 922 121 l 1035 301 q 1072 253 1054 272 q 1108 222 1090 235 q 1144 204 1125 210 q 1183 199 1163 199 q 1242 215 1217 199 q 1282 258 1268 231 q 1296 324 1296 286 l 1296 767 l 1118 767 l 1118 972 l 1676 972 l 1676 767 l 1526 767 l 1526 296 q 1502 168 1526 225 q 1435 70 1478 111 q 1334 8 1392 29 q 1208 -14 1276 -14 z "},"Ĺ":{"ha":846,"x_min":68,"x_max":792,"o":"m 122 0 l 122 972 l 358 972 l 358 208 l 792 208 l 792 0 l 122 0 m 119 1039 l 68 1150 l 358 1310 l 435 1147 l 119 1039 z "},"Ľ":{"ha":846,"x_min":122,"x_max":792,"o":"m 122 0 l 122 972 l 358 972 l 358 208 l 792 208 l 792 0 l 122 0 m 551 619 l 496 696 q 538 715 515 703 q 578 743 561 726 q 596 776 596 760 q 588 794 596 788 q 563 808 581 800 q 521 837 533 819 q 508 882 508 854 q 540 949 508 926 q 621 972 572 972 q 719 938 679 972 q 760 838 760 904 q 745 763 760 797 q 703 702 731 729 q 638 655 676 675 q 551 619 599 635 z "},"Ļ":{"ha":846,"x_min":122,"x_max":792,"o":"m 122 0 l 122 972 l 358 972 l 358 208 l 792 208 l 792 0 l 122 0 m 347 -408 l 292 -332 q 334 -313 311 -325 q 374 -285 357 -301 q 392 -251 392 -268 q 384 -234 392 -240 q 358 -219 376 -228 q 317 -191 329 -208 q 304 -146 304 -174 q 336 -78 304 -101 q 417 -56 368 -56 q 515 -90 475 -56 q 556 -190 556 -124 q 541 -265 556 -231 q 499 -326 526 -299 q 433 -373 472 -353 q 347 -408 394 -393 z "},"Ŀ":{"ha":846,"x_min":122,"x_max":792,"o":"m 122 0 l 122 972 l 358 972 l 358 208 l 792 208 l 792 0 l 122 0 m 664 415 q 576 447 607 415 q 544 539 544 479 q 578 629 544 594 q 664 664 611 664 q 753 631 721 664 q 785 539 785 599 q 751 450 785 485 q 664 415 718 415 z "},"Ḷ":{"ha":846,"x_min":122,"x_max":792,"o":"m 122 0 l 122 972 l 358 972 l 358 208 l 792 208 l 792 0 l 122 0 m 424 -311 q 324 -280 360 -311 q 288 -193 288 -249 q 324 -108 288 -140 q 424 -75 361 -75 q 524 -106 488 -75 q 560 -193 560 -136 q 523 -278 560 -244 q 424 -311 486 -311 z "},"ǈ":{"ha":1283,"x_min":122,"x_max":1207,"o":"m 122 0 l 122 972 l 358 972 l 358 208 l 792 208 l 792 0 l 122 0 m 878 -292 l 793 -119 q 893 -103 857 -119 q 944 -48 929 -86 q 960 57 960 -10 l 960 738 l 1182 738 l 1182 4 q 1147 -162 1182 -97 q 1044 -260 1113 -228 q 878 -292 976 -292 m 1075 883 q 977 913 1013 883 q 942 999 942 943 q 978 1081 942 1049 q 1075 1113 1014 1113 q 1172 1083 1138 1113 q 1207 999 1207 1053 q 1172 915 1207 947 q 1075 883 1136 883 z "},"Ḻ":{"ha":846,"x_min":122,"x_max":792,"o":"m 122 0 l 122 972 l 358 972 l 358 208 l 792 208 l 792 0 l 122 0 m 210 -275 l 210 -111 l 635 -111 l 635 -275 l 210 -275 z "},"Ł":{"ha":868,"x_min":-11,"x_max":814,"o":"m 56 331 l -11 503 l 485 721 l 554 546 l 56 331 m 144 0 l 144 972 l 381 972 l 381 208 l 814 208 l 814 0 l 144 0 z "},"M":{"ha":1219,"x_min":122,"x_max":1097,"o":"m 122 0 l 122 972 l 333 972 l 688 396 l 536 397 l 894 972 l 1097 972 l 1097 0 l 868 0 l 868 303 q 874 528 868 428 q 896 726 881 628 l 922 654 l 653 236 l 561 236 l 297 651 l 324 726 q 345 535 339 633 q 351 303 351 438 l 351 0 l 122 0 z "},"Ṃ":{"ha":1219,"x_min":122,"x_max":1097,"o":"m 122 0 l 122 972 l 333 972 l 688 396 l 536 397 l 894 972 l 1097 972 l 1097 0 l 868 0 l 868 303 q 874 528 868 428 q 896 726 881 628 l 922 654 l 653 236 l 561 236 l 297 651 l 324 726 q 345 535 339 633 q 351 303 351 438 l 351 0 l 122 0 m 610 -311 q 510 -280 546 -311 q 474 -193 474 -249 q 510 -108 474 -140 q 610 -75 547 -75 q 710 -106 674 -75 q 746 -193 746 -136 q 709 -278 746 -244 q 610 -311 672 -311 z "},"N":{"ha":1121,"x_min":122,"x_max":999,"o":"m 122 0 l 122 972 l 333 972 l 843 278 l 797 285 q 786 372 790 331 q 778 454 782 414 q 773 536 775 494 q 770 626 771 578 q 769 732 769 675 l 769 972 l 999 972 l 999 0 l 785 0 l 253 717 l 324 707 q 335 594 331 640 q 344 511 340 547 q 349 446 347 475 q 351 388 350 417 q 351 325 351 360 l 351 0 l 122 0 z "},"Ǌ":{"ha":2044,"x_min":122,"x_max":1951,"o":"m 122 0 l 122 972 l 333 972 l 843 278 l 797 285 q 786 372 790 331 q 778 454 782 414 q 773 536 775 494 q 770 626 771 578 q 769 732 769 675 l 769 972 l 999 972 l 999 0 l 785 0 l 253 717 l 324 707 q 335 594 331 640 q 344 511 340 547 q 349 446 347 475 q 351 388 350 417 q 351 325 351 360 l 351 0 l 122 0 m 1483 -14 q 1383 -2 1431 -14 q 1297 33 1336 10 q 1228 88 1258 56 q 1175 161 1197 121 l 1310 301 q 1347 253 1329 272 q 1383 222 1365 235 q 1419 204 1400 210 q 1458 199 1438 199 q 1517 215 1492 199 q 1557 258 1543 231 q 1571 324 1571 286 l 1571 767 l 1393 767 l 1393 972 l 1951 972 l 1951 767 l 1801 767 l 1801 296 q 1777 168 1801 225 q 1710 70 1753 111 q 1609 8 1667 29 q 1483 -14 1551 -14 z "},"Ń":{"ha":1121,"x_min":122,"x_max":999,"o":"m 122 0 l 122 972 l 333 972 l 843 278 l 797 285 q 786 372 790 331 q 778 454 782 414 q 773 536 775 494 q 770 626 771 578 q 769 732 769 675 l 769 972 l 999 972 l 999 0 l 785 0 l 253 717 l 324 707 q 335 594 331 640 q 344 511 340 547 q 349 446 347 475 q 351 388 350 417 q 351 325 351 360 l 351 0 l 122 0 m 438 1039 l 386 1150 l 676 1310 l 753 1147 l 438 1039 z "},"Ň":{"ha":1121,"x_min":122,"x_max":999,"o":"m 122 0 l 122 972 l 333 972 l 843 278 l 797 285 q 786 372 790 331 q 778 454 782 414 q 773 536 775 494 q 770 626 771 578 q 769 732 769 675 l 769 972 l 999 972 l 999 0 l 785 0 l 253 717 l 324 707 q 335 594 331 640 q 344 511 340 547 q 349 446 347 475 q 351 388 350 417 q 351 325 351 360 l 351 0 l 122 0 m 494 1049 l 308 1197 l 378 1275 l 582 1178 l 540 1178 l 744 1275 l 814 1197 l 628 1049 l 494 1049 z "},"Ņ":{"ha":1121,"x_min":122,"x_max":999,"o":"m 122 0 l 122 972 l 333 972 l 843 278 l 797 285 q 786 372 790 331 q 778 454 782 414 q 773 536 775 494 q 770 626 771 578 q 769 732 769 675 l 769 972 l 999 972 l 999 0 l 785 0 l 253 717 l 324 707 q 335 594 331 640 q 344 511 340 547 q 349 446 347 475 q 351 388 350 417 q 351 325 351 360 l 351 0 l 122 0 m 485 -408 l 429 -332 q 472 -313 449 -325 q 512 -285 494 -301 q 529 -251 529 -268 q 522 -234 529 -240 q 496 -219 514 -228 q 454 -191 467 -208 q 442 -146 442 -174 q 474 -78 442 -101 q 554 -56 506 -56 q 653 -90 613 -56 q 693 -190 693 -124 q 678 -265 693 -231 q 637 -326 664 -299 q 571 -373 610 -353 q 485 -408 532 -393 z "},"Ṅ":{"ha":1121,"x_min":122,"x_max":999,"o":"m 122 0 l 122 972 l 333 972 l 843 278 l 797 285 q 786 372 790 331 q 778 454 782 414 q 773 536 775 494 q 770 626 771 578 q 769 732 769 675 l 769 972 l 999 972 l 999 0 l 785 0 l 253 717 l 324 707 q 335 594 331 640 q 344 511 340 547 q 349 446 347 475 q 351 388 350 417 q 351 325 351 360 l 351 0 l 122 0 m 561 1050 q 463 1081 497 1050 q 429 1165 429 1111 q 464 1247 429 1214 q 561 1281 499 1281 q 659 1250 625 1281 q 693 1165 693 1219 q 658 1083 693 1117 q 561 1050 624 1050 z "},"Ṇ":{"ha":1121,"x_min":122,"x_max":999,"o":"m 122 0 l 122 972 l 333 972 l 843 278 l 797 285 q 786 372 790 331 q 778 454 782 414 q 773 536 775 494 q 770 626 771 578 q 769 732 769 675 l 769 972 l 999 972 l 999 0 l 785 0 l 253 717 l 324 707 q 335 594 331 640 q 344 511 340 547 q 349 446 347 475 q 351 388 350 417 q 351 325 351 360 l 351 0 l 122 0 m 561 -311 q 461 -280 497 -311 q 425 -193 425 -249 q 462 -108 425 -140 q 561 -75 499 -75 q 661 -106 625 -75 q 697 -193 697 -136 q 660 -278 697 -244 q 561 -311 624 -311 z "},"Ɲ":{"ha":1107,"x_min":-68,"x_max":985,"o":"m 25 -282 l -68 -108 q 65 -67 21 -108 q 108 57 108 -25 l 108 972 l 319 972 l 829 278 l 783 285 q 770 393 775 343 q 762 494 765 443 q 757 603 758 546 q 756 732 756 660 l 756 972 l 985 972 l 985 0 l 771 0 l 239 717 l 310 707 q 322 605 317 651 q 330 518 326 558 q 335 440 333 478 q 338 366 338 403 q 338 288 338 329 l 338 4 q 302 -158 338 -94 q 196 -251 267 -221 q 25 -282 125 -282 z "},"ǋ":{"ha":1558,"x_min":122,"x_max":1482,"o":"m 122 0 l 122 972 l 333 972 l 843 278 l 797 285 q 786 372 790 331 q 778 454 782 414 q 773 536 775 494 q 770 626 771 578 q 769 732 769 675 l 769 972 l 999 972 l 999 0 l 785 0 l 253 717 l 324 707 q 335 594 331 640 q 344 511 340 547 q 349 446 347 475 q 351 388 350 417 q 351 325 351 360 l 351 0 l 122 0 m 1153 -292 l 1068 -119 q 1168 -103 1132 -119 q 1219 -48 1204 -86 q 1235 57 1235 -10 l 1235 738 l 1457 738 l 1457 4 q 1422 -162 1457 -97 q 1319 -260 1388 -228 q 1153 -292 1251 -292 m 1350 883 q 1252 913 1288 883 q 1217 999 1217 943 q 1253 1081 1217 1049 q 1350 1113 1289 1113 q 1447 1083 1413 1113 q 1482 999 1482 1053 q 1447 915 1482 947 q 1350 883 1411 883 z "},"Ṉ":{"ha":1121,"x_min":122,"x_max":999,"o":"m 122 0 l 122 972 l 333 972 l 843 278 l 797 285 q 786 372 790 331 q 778 454 782 414 q 773 536 775 494 q 770 626 771 578 q 769 732 769 675 l 769 972 l 999 972 l 999 0 l 785 0 l 253 717 l 324 707 q 335 594 331 640 q 344 511 340 547 q 349 446 347 475 q 351 388 350 417 q 351 325 351 360 l 351 0 l 122 0 m 347 -275 l 347 -111 l 772 -111 l 772 -275 l 347 -275 z "},"Ñ":{"ha":1121,"x_min":122,"x_max":999,"o":"m 122 0 l 122 972 l 333 972 l 843 278 l 797 285 q 786 372 790 331 q 778 454 782 414 q 773 536 775 494 q 770 626 771 578 q 769 732 769 675 l 769 972 l 999 972 l 999 0 l 785 0 l 253 717 l 324 707 q 335 594 331 640 q 344 511 340 547 q 349 446 347 475 q 351 388 350 417 q 351 325 351 360 l 351 0 l 122 0 m 668 1067 q 613 1075 640 1067 q 551 1097 585 1083 q 509 1115 526 1110 q 478 1121 492 1121 q 447 1107 458 1121 q 435 1068 435 1093 l 296 1068 q 347 1212 296 1160 q 474 1264 397 1264 q 523 1257 499 1264 q 585 1233 547 1250 q 622 1217 607 1222 q 650 1211 638 1211 q 678 1226 668 1211 q 688 1264 689 1240 l 825 1264 q 805 1165 825 1211 q 750 1093 785 1119 q 668 1067 715 1067 z "},"Ŋ":{"ha":1121,"x_min":122,"x_max":999,"o":"m 686 -282 l 593 -108 q 659 -102 626 -108 q 718 -82 692 -96 q 760 -48 744 -68 q 775 0 775 -28 l 775 83 l 788 -3 l 314 633 l 332 646 q 338 584 335 615 q 343 521 340 553 q 348 459 346 489 q 351 403 350 429 q 351 358 351 378 l 351 0 l 122 0 l 122 972 l 333 972 l 815 318 l 794 307 q 781 413 786 364 q 774 511 776 463 q 770 613 771 560 q 769 732 769 667 l 769 972 l 999 972 l 999 -14 q 961 -165 999 -106 q 853 -253 924 -224 q 686 -282 783 -282 z "},"O":{"ha":1128,"x_min":60,"x_max":1067,"o":"m 565 -14 q 363 24 454 -14 q 203 129 271 61 q 97 289 135 197 q 60 490 60 381 q 97 692 60 600 q 203 851 135 783 q 363 957 271 919 q 564 994 454 994 q 765 957 674 994 q 925 851 857 919 q 1030 692 993 783 q 1067 490 1067 600 q 1030 290 1067 382 q 925 129 993 197 q 765 24 857 61 q 565 -14 674 -14 m 564 208 q 669 229 621 208 q 752 288 717 250 q 807 378 788 326 q 826 490 826 429 q 807 603 826 551 q 752 692 788 654 q 669 751 717 731 q 564 772 621 772 q 459 751 507 772 q 375 692 411 731 q 320 603 339 654 q 301 490 301 551 q 320 377 301 429 q 375 288 339 325 q 459 229 411 250 q 564 208 507 208 z "},"Ó":{"ha":1128,"x_min":60,"x_max":1067,"o":"m 565 -14 q 363 24 454 -14 q 203 129 271 61 q 97 289 135 197 q 60 490 60 381 q 97 692 60 600 q 203 851 135 783 q 363 957 271 919 q 564 994 454 994 q 765 957 674 994 q 925 851 857 919 q 1030 692 993 783 q 1067 490 1067 600 q 1030 290 1067 382 q 925 129 993 197 q 765 24 857 61 q 565 -14 674 -14 m 564 208 q 669 229 621 208 q 752 288 717 250 q 807 378 788 326 q 826 490 826 429 q 807 603 826 551 q 752 692 788 654 q 669 751 717 731 q 564 772 621 772 q 459 751 507 772 q 375 692 411 731 q 320 603 339 654 q 301 490 301 551 q 320 377 301 429 q 375 288 339 325 q 459 229 411 250 q 564 208 507 208 m 440 1039 l 389 1150 l 679 1310 l 756 1147 l 440 1039 z "},"Ŏ":{"ha":1128,"x_min":60,"x_max":1067,"o":"m 565 -14 q 363 24 454 -14 q 203 129 271 61 q 97 289 135 197 q 60 490 60 381 q 97 692 60 600 q 203 851 135 783 q 363 957 271 919 q 564 994 454 994 q 765 957 674 994 q 925 851 857 919 q 1030 692 993 783 q 1067 490 1067 600 q 1030 290 1067 382 q 925 129 993 197 q 765 24 857 61 q 565 -14 674 -14 m 564 208 q 669 229 621 208 q 752 288 717 250 q 807 378 788 326 q 826 490 826 429 q 807 603 826 551 q 752 692 788 654 q 669 751 717 731 q 564 772 621 772 q 459 751 507 772 q 375 692 411 731 q 320 603 339 654 q 301 490 301 551 q 320 377 301 429 q 375 288 339 325 q 459 229 411 250 q 564 208 507 208 m 564 1051 q 450 1078 501 1051 q 363 1152 399 1104 q 315 1263 328 1200 l 457 1279 q 500 1219 471 1243 q 564 1196 529 1196 q 628 1219 599 1196 q 671 1279 657 1243 l 813 1263 q 765 1152 800 1200 q 678 1078 729 1104 q 564 1051 628 1051 z "},"Ǒ":{"ha":1128,"x_min":60,"x_max":1067,"o":"m 565 -14 q 363 24 454 -14 q 203 129 271 61 q 97 289 135 197 q 60 490 60 381 q 97 692 60 600 q 203 851 135 783 q 363 957 271 919 q 564 994 454 994 q 765 957 674 994 q 925 851 857 919 q 1030 692 993 783 q 1067 490 1067 600 q 1030 290 1067 382 q 925 129 993 197 q 765 24 857 61 q 565 -14 674 -14 m 564 208 q 669 229 621 208 q 752 288 717 250 q 807 378 788 326 q 826 490 826 429 q 807 603 826 551 q 752 692 788 654 q 669 751 717 731 q 564 772 621 772 q 459 751 507 772 q 375 692 411 731 q 320 603 339 654 q 301 490 301 551 q 320 377 301 429 q 375 288 339 325 q 459 229 411 250 q 564 208 507 208 m 497 1049 l 311 1197 l 381 1275 l 585 1178 l 543 1178 l 747 1275 l 817 1197 l 631 1049 l 497 1049 z "},"Ô":{"ha":1128,"x_min":60,"x_max":1067,"o":"m 565 -14 q 363 24 454 -14 q 203 129 271 61 q 97 289 135 197 q 60 490 60 381 q 97 692 60 600 q 203 851 135 783 q 363 957 271 919 q 564 994 454 994 q 765 957 674 994 q 925 851 857 919 q 1030 692 993 783 q 1067 490 1067 600 q 1030 290 1067 382 q 925 129 993 197 q 765 24 857 61 q 565 -14 674 -14 m 564 208 q 669 229 621 208 q 752 288 717 250 q 807 378 788 326 q 826 490 826 429 q 807 603 826 551 q 752 692 788 654 q 669 751 717 731 q 564 772 621 772 q 459 751 507 772 q 375 692 411 731 q 320 603 339 654 q 301 490 301 551 q 320 377 301 429 q 375 288 339 325 q 459 229 411 250 q 564 208 507 208 m 381 1047 l 313 1126 l 501 1274 l 626 1274 l 815 1126 l 747 1047 l 543 1146 l 585 1146 l 381 1047 z "},"Ố":{"ha":1128,"x_min":60,"x_max":1067,"o":"m 565 -14 q 363 24 454 -14 q 203 129 271 61 q 97 289 135 197 q 60 490 60 381 q 97 692 60 600 q 203 851 135 783 q 363 957 271 919 q 564 994 454 994 q 765 957 674 994 q 925 851 857 919 q 1030 692 993 783 q 1067 490 1067 600 q 1030 290 1067 382 q 925 129 993 197 q 765 24 857 61 q 565 -14 674 -14 m 564 208 q 669 229 621 208 q 752 288 717 250 q 807 378 788 326 q 826 490 826 429 q 807 603 826 551 q 752 692 788 654 q 669 751 717 731 q 564 772 621 772 q 459 751 507 772 q 375 692 411 731 q 320 603 339 654 q 301 490 301 551 q 320 377 301 429 q 375 288 339 325 q 459 229 411 250 q 564 208 507 208 m 378 1042 l 315 1118 l 501 1260 l 626 1260 l 813 1118 l 750 1042 l 543 1132 l 585 1132 l 378 1042 m 814 1222 l 725 1283 l 857 1511 l 996 1413 l 814 1222 z "},"Ộ":{"ha":1128,"x_min":60,"x_max":1067,"o":"m 565 -14 q 363 24 454 -14 q 203 129 271 61 q 97 289 135 197 q 60 490 60 381 q 97 692 60 600 q 203 851 135 783 q 363 957 271 919 q 564 994 454 994 q 765 957 674 994 q 925 851 857 919 q 1030 692 993 783 q 1067 490 1067 600 q 1030 290 1067 382 q 925 129 993 197 q 765 24 857 61 q 565 -14 674 -14 m 564 208 q 669 229 621 208 q 752 288 717 250 q 807 378 788 326 q 826 490 826 429 q 807 603 826 551 q 752 692 788 654 q 669 751 717 731 q 564 772 621 772 q 459 751 507 772 q 375 692 411 731 q 320 603 339 654 q 301 490 301 551 q 320 377 301 429 q 375 288 339 325 q 459 229 411 250 q 564 208 507 208 m 564 -311 q 464 -280 500 -311 q 428 -193 428 -249 q 465 -108 428 -140 q 564 -75 501 -75 q 664 -106 628 -75 q 700 -193 700 -136 q 663 -278 700 -244 q 564 -311 626 -311 m 381 1047 l 313 1126 l 501 1274 l 626 1274 l 815 1126 l 747 1047 l 543 1146 l 585 1146 l 381 1047 z "},"Ồ":{"ha":1128,"x_min":60,"x_max":1067,"o":"m 565 -14 q 363 24 454 -14 q 203 129 271 61 q 97 289 135 197 q 60 490 60 381 q 97 692 60 600 q 203 851 135 783 q 363 957 271 919 q 564 994 454 994 q 765 957 674 994 q 925 851 857 919 q 1030 692 993 783 q 1067 490 1067 600 q 1030 290 1067 382 q 925 129 993 197 q 765 24 857 61 q 565 -14 674 -14 m 564 208 q 669 229 621 208 q 752 288 717 250 q 807 378 788 326 q 826 490 826 429 q 807 603 826 551 q 752 692 788 654 q 669 751 717 731 q 564 772 621 772 q 459 751 507 772 q 375 692 411 731 q 320 603 339 654 q 301 490 301 551 q 320 377 301 429 q 375 288 339 325 q 459 229 411 250 q 564 208 507 208 m 378 1042 l 315 1118 l 501 1260 l 626 1260 l 813 1118 l 750 1042 l 543 1132 l 585 1132 l 378 1042 m 799 1222 l 614 1414 l 753 1514 l 885 1285 l 799 1222 z "},"Ổ":{"ha":1128,"x_min":60,"x_max":1067,"o":"m 565 -14 q 363 24 454 -14 q 203 129 271 61 q 97 289 135 197 q 60 490 60 381 q 97 692 60 600 q 203 851 135 783 q 363 957 271 919 q 564 994 454 994 q 765 957 674 994 q 925 851 857 919 q 1030 692 993 783 q 1067 490 1067 600 q 1030 290 1067 382 q 925 129 993 197 q 765 24 857 61 q 565 -14 674 -14 m 564 208 q 669 229 621 208 q 752 288 717 250 q 807 378 788 326 q 826 490 826 429 q 807 603 826 551 q 752 692 788 654 q 669 751 717 731 q 564 772 621 772 q 459 751 507 772 q 375 692 411 731 q 320 603 339 654 q 301 490 301 551 q 320 377 301 429 q 375 288 339 325 q 459 229 411 250 q 564 208 507 208 m 378 1042 l 314 1118 l 501 1260 l 626 1260 l 813 1118 l 750 1042 l 543 1132 l 585 1132 l 378 1042 m 774 1217 q 756 1243 763 1229 q 749 1272 749 1257 q 755 1299 749 1286 q 785 1326 761 1311 q 811 1347 800 1338 q 822 1365 822 1356 q 810 1385 822 1378 q 776 1392 797 1392 q 720 1383 750 1392 q 661 1364 690 1375 l 632 1482 q 703 1508 661 1497 q 793 1519 746 1519 q 922 1485 874 1519 q 969 1392 969 1450 q 949 1329 969 1350 q 904 1294 928 1308 q 868 1271 882 1282 q 854 1247 854 1260 q 854 1243 854 1246 q 856 1236 854 1240 l 774 1217 z "},"Ỗ":{"ha":1128,"x_min":60,"x_max":1067,"o":"m 565 -14 q 363 24 454 -14 q 203 129 271 61 q 97 289 135 197 q 60 490 60 381 q 97 692 60 600 q 203 851 135 783 q 363 957 271 919 q 564 994 454 994 q 765 957 674 994 q 925 851 857 919 q 1030 692 993 783 q 1067 490 1067 600 q 1030 290 1067 382 q 925 129 993 197 q 765 24 857 61 q 565 -14 674 -14 m 564 208 q 669 229 621 208 q 752 288 717 250 q 807 378 788 326 q 826 490 826 429 q 807 603 826 551 q 752 692 788 654 q 669 751 717 731 q 564 772 621 772 q 459 751 507 772 q 375 692 411 731 q 320 603 339 654 q 301 490 301 551 q 320 377 301 429 q 375 288 339 325 q 459 229 411 250 q 564 208 507 208 m 378 1042 l 315 1118 l 501 1260 l 626 1260 l 813 1118 l 750 1042 l 543 1132 l 585 1132 l 378 1042 m 678 1325 q 619 1333 647 1325 q 563 1353 590 1340 q 519 1369 536 1364 q 489 1375 503 1375 q 453 1361 465 1375 q 436 1324 440 1347 l 308 1331 q 355 1460 310 1410 q 469 1510 400 1510 q 522 1502 499 1510 q 576 1481 546 1494 q 617 1466 599 1472 q 649 1460 635 1460 q 680 1474 671 1460 q 693 1511 689 1488 l 821 1506 q 802 1415 821 1456 q 752 1349 783 1374 q 678 1325 721 1325 z "},"Ȍ":{"ha":1128,"x_min":60,"x_max":1067,"o":"m 565 -14 q 363 24 454 -14 q 203 129 271 61 q 97 289 135 197 q 60 490 60 381 q 97 692 60 600 q 203 851 135 783 q 363 957 271 919 q 564 994 454 994 q 765 957 674 994 q 925 851 857 919 q 1030 692 993 783 q 1067 490 1067 600 q 1030 290 1067 382 q 925 129 993 197 q 765 24 857 61 q 565 -14 674 -14 m 564 208 q 669 229 621 208 q 752 288 717 250 q 807 378 788 326 q 826 490 826 429 q 807 603 826 551 q 752 692 788 654 q 669 751 717 731 q 564 772 621 772 q 459 751 507 772 q 375 692 411 731 q 320 603 339 654 q 301 490 301 551 q 320 377 301 429 q 375 288 339 325 q 459 229 411 250 q 564 208 507 208 m 735 1032 l 499 1203 l 614 1333 l 811 1122 l 735 1032 m 426 1028 l 181 1194 l 294 1331 l 501 1122 l 426 1028 z "},"Ö":{"ha":1128,"x_min":60,"x_max":1067,"o":"m 565 -14 q 363 24 454 -14 q 203 129 271 61 q 97 289 135 197 q 60 490 60 381 q 97 692 60 600 q 203 851 135 783 q 363 957 271 919 q 564 994 454 994 q 765 957 674 994 q 925 851 857 919 q 1030 692 993 783 q 1067 490 1067 600 q 1030 290 1067 382 q 925 129 993 197 q 765 24 857 61 q 565 -14 674 -14 m 564 208 q 669 229 621 208 q 752 288 717 250 q 807 378 788 326 q 826 490 826 429 q 807 603 826 551 q 752 692 788 654 q 669 751 717 731 q 564 772 621 772 q 459 751 507 772 q 375 692 411 731 q 320 603 339 654 q 301 490 301 551 q 320 377 301 429 q 375 288 339 325 q 459 229 411 250 q 564 208 507 208 m 732 1047 q 642 1078 672 1047 q 611 1165 611 1110 q 643 1249 611 1215 q 732 1283 675 1283 q 822 1252 790 1283 q 853 1165 853 1221 q 821 1081 853 1115 q 732 1047 789 1047 m 394 1047 q 304 1078 335 1047 q 274 1165 274 1110 q 305 1249 274 1215 q 394 1283 336 1283 q 483 1252 453 1283 q 514 1165 514 1221 q 483 1081 514 1115 q 394 1047 451 1047 z "},"Ȫ":{"ha":1128,"x_min":60,"x_max":1067,"o":"m 565 -14 q 363 24 454 -14 q 203 129 271 61 q 97 289 135 197 q 60 490 60 381 q 97 692 60 600 q 203 851 135 783 q 363 957 271 919 q 564 994 454 994 q 765 957 674 994 q 925 851 857 919 q 1030 692 993 783 q 1067 490 1067 600 q 1030 290 1067 382 q 925 129 993 197 q 765 24 857 61 q 565 -14 674 -14 m 564 208 q 669 229 621 208 q 752 288 717 250 q 807 378 788 326 q 826 490 826 429 q 807 603 826 551 q 752 692 788 654 q 669 751 717 731 q 564 772 621 772 q 459 751 507 772 q 375 692 411 731 q 320 603 339 654 q 301 490 301 551 q 320 377 301 429 q 375 288 339 325 q 459 229 411 250 q 564 208 507 208 m 732 1047 q 642 1078 672 1047 q 611 1165 611 1110 q 643 1249 611 1215 q 732 1283 675 1283 q 822 1252 790 1283 q 853 1165 853 1221 q 821 1081 853 1115 q 732 1047 789 1047 m 394 1047 q 304 1078 335 1047 q 274 1165 274 1110 q 305 1249 274 1215 q 394 1283 336 1283 q 483 1252 453 1283 q 514 1165 514 1221 q 483 1081 514 1115 q 394 1047 451 1047 m 314 1360 l 314 1500 l 813 1500 l 813 1360 l 314 1360 z "},"Ȱ":{"ha":1128,"x_min":60,"x_max":1067,"o":"m 565 -14 q 363 24 454 -14 q 203 129 271 61 q 97 289 135 197 q 60 490 60 381 q 97 692 60 600 q 203 851 135 783 q 363 957 271 919 q 564 994 454 994 q 765 957 674 994 q 925 851 857 919 q 1030 692 993 783 q 1067 490 1067 600 q 1030 290 1067 382 q 925 129 993 197 q 765 24 857 61 q 565 -14 674 -14 m 564 208 q 669 229 621 208 q 752 288 717 250 q 807 378 788 326 q 826 490 826 429 q 807 603 826 551 q 752 692 788 654 q 669 751 717 731 q 564 772 621 772 q 459 751 507 772 q 375 692 411 731 q 320 603 339 654 q 301 490 301 551 q 320 377 301 429 q 375 288 339 325 q 459 229 411 250 q 564 208 507 208 m 564 1050 q 466 1081 500 1050 q 432 1165 432 1111 q 467 1247 432 1214 q 564 1281 501 1281 q 662 1250 628 1281 q 696 1165 696 1219 q 661 1083 696 1117 q 564 1050 626 1050 m 314 1360 l 314 1500 l 813 1500 l 813 1360 l 314 1360 z "},"Ọ":{"ha":1128,"x_min":60,"x_max":1067,"o":"m 565 -14 q 363 24 454 -14 q 203 129 271 61 q 97 289 135 197 q 60 490 60 381 q 97 692 60 600 q 203 851 135 783 q 363 957 271 919 q 564 994 454 994 q 765 957 674 994 q 925 851 857 919 q 1030 692 993 783 q 1067 490 1067 600 q 1030 290 1067 382 q 925 129 993 197 q 765 24 857 61 q 565 -14 674 -14 m 564 208 q 669 229 621 208 q 752 288 717 250 q 807 378 788 326 q 826 490 826 429 q 807 603 826 551 q 752 692 788 654 q 669 751 717 731 q 564 772 621 772 q 459 751 507 772 q 375 692 411 731 q 320 603 339 654 q 301 490 301 551 q 320 377 301 429 q 375 288 339 325 q 459 229 411 250 q 564 208 507 208 m 564 -311 q 464 -280 500 -311 q 428 -193 428 -249 q 465 -108 428 -140 q 564 -75 501 -75 q 664 -106 628 -75 q 700 -193 700 -136 q 663 -278 700 -244 q 564 -311 626 -311 z "},"Ò":{"ha":1128,"x_min":60,"x_max":1067,"o":"m 565 -14 q 363 24 454 -14 q 203 129 271 61 q 97 289 135 197 q 60 490 60 381 q 97 692 60 600 q 203 851 135 783 q 363 957 271 919 q 564 994 454 994 q 765 957 674 994 q 925 851 857 919 q 1030 692 993 783 q 1067 490 1067 600 q 1030 290 1067 382 q 925 129 993 197 q 765 24 857 61 q 565 -14 674 -14 m 564 208 q 669 229 621 208 q 752 288 717 250 q 807 378 788 326 q 826 490 826 429 q 807 603 826 551 q 752 692 788 654 q 669 751 717 731 q 564 772 621 772 q 459 751 507 772 q 375 692 411 731 q 320 603 339 654 q 301 490 301 551 q 320 377 301 429 q 375 288 339 325 q 459 229 411 250 q 564 208 507 208 m 700 1039 l 385 1147 l 461 1310 l 751 1150 l 700 1039 z "},"Ỏ":{"ha":1128,"x_min":60,"x_max":1067,"o":"m 565 -14 q 363 24 454 -14 q 203 129 271 61 q 97 289 135 197 q 60 490 60 381 q 97 692 60 600 q 203 851 135 783 q 363 957 271 919 q 564 994 454 994 q 765 957 674 994 q 925 851 857 919 q 1030 692 993 783 q 1067 490 1067 600 q 1030 290 1067 382 q 925 129 993 197 q 765 24 857 61 q 565 -14 674 -14 m 564 208 q 669 229 621 208 q 752 288 717 250 q 807 378 788 326 q 826 490 826 429 q 807 603 826 551 q 752 692 788 654 q 669 751 717 731 q 564 772 621 772 q 459 751 507 772 q 375 692 411 731 q 320 603 339 654 q 301 490 301 551 q 320 377 301 429 q 375 288 339 325 q 459 229 411 250 q 564 208 507 208 m 529 1036 q 511 1064 519 1049 q 503 1096 503 1079 q 512 1128 503 1113 q 546 1163 521 1144 q 576 1185 565 1175 q 588 1208 588 1194 q 576 1227 588 1221 q 546 1233 564 1233 q 488 1225 518 1233 q 426 1203 457 1217 l 394 1321 q 470 1349 425 1338 q 563 1361 515 1361 q 688 1327 642 1361 q 735 1236 735 1293 q 715 1167 735 1190 q 674 1129 696 1143 q 637 1103 651 1115 q 622 1076 622 1090 q 624 1067 622 1071 q 626 1057 625 1063 l 529 1036 z "},"Ơ":{"ha":1128,"x_min":60,"x_max":1067,"o":"m 564 -14 q 363 24 454 -14 q 203 129 271 61 q 97 289 135 197 q 60 490 60 381 q 97 692 60 600 q 203 851 135 783 q 363 957 271 919 q 564 994 454 994 q 624 990 593 994 q 685 981 656 986 q 728 971 707 975 q 774 967 750 967 q 838 987 813 967 q 877 1047 864 1007 q 890 1146 890 1086 l 1067 1146 q 1056 1039 1067 1090 q 1022 947 1046 988 q 957 883 999 907 q 851 856 915 858 l 885 886 q 983 781 942 842 q 1045 647 1024 721 q 1067 490 1067 574 q 1030 290 1067 382 q 925 129 993 197 q 765 24 857 61 q 564 -14 674 -14 m 564 208 q 669 229 621 208 q 752 288 717 250 q 807 378 788 326 q 826 490 826 429 q 807 603 826 551 q 752 692 788 654 q 669 751 717 731 q 564 772 621 772 q 459 751 507 772 q 375 692 411 731 q 320 603 339 654 q 301 490 301 551 q 320 377 301 429 q 375 288 339 325 q 459 229 411 250 q 564 208 507 208 z "},"Ớ":{"ha":1128,"x_min":60,"x_max":1067,"o":"m 564 -14 q 363 24 454 -14 q 203 129 271 61 q 97 289 135 197 q 60 490 60 381 q 97 692 60 600 q 203 851 135 783 q 363 957 271 919 q 564 994 454 994 q 624 990 593 994 q 685 981 656 986 q 728 971 707 975 q 774 967 750 967 q 838 987 813 967 q 877 1047 864 1007 q 890 1146 890 1086 l 1067 1146 q 1056 1039 1067 1090 q 1022 947 1046 988 q 957 883 999 907 q 851 856 915 858 l 885 886 q 983 781 942 842 q 1045 647 1024 721 q 1067 490 1067 574 q 1030 290 1067 382 q 925 129 993 197 q 765 24 857 61 q 564 -14 674 -14 m 564 208 q 669 229 621 208 q 752 288 717 250 q 807 378 788 326 q 826 490 826 429 q 807 603 826 551 q 752 692 788 654 q 669 751 717 731 q 564 772 621 772 q 459 751 507 772 q 375 692 411 731 q 320 603 339 654 q 301 490 301 551 q 320 377 301 429 q 375 288 339 325 q 459 229 411 250 q 564 208 507 208 m 440 1039 l 389 1150 l 679 1310 l 756 1147 l 440 1039 z "},"Ợ":{"ha":1128,"x_min":60,"x_max":1067,"o":"m 564 -14 q 363 24 454 -14 q 203 129 271 61 q 97 289 135 197 q 60 490 60 381 q 97 692 60 600 q 203 851 135 783 q 363 957 271 919 q 564 994 454 994 q 624 990 593 994 q 685 981 656 986 q 728 971 707 975 q 774 967 750 967 q 838 987 813 967 q 877 1047 864 1007 q 890 1146 890 1086 l 1067 1146 q 1056 1039 1067 1090 q 1022 947 1046 988 q 957 883 999 907 q 851 856 915 858 l 885 886 q 983 781 942 842 q 1045 647 1024 721 q 1067 490 1067 574 q 1030 290 1067 382 q 925 129 993 197 q 765 24 857 61 q 564 -14 674 -14 m 564 208 q 669 229 621 208 q 752 288 717 250 q 807 378 788 326 q 826 490 826 429 q 807 603 826 551 q 752 692 788 654 q 669 751 717 731 q 564 772 621 772 q 459 751 507 772 q 375 692 411 731 q 320 603 339 654 q 301 490 301 551 q 320 377 301 429 q 375 288 339 325 q 459 229 411 250 q 564 208 507 208 m 564 -311 q 464 -280 500 -311 q 428 -193 428 -249 q 465 -108 428 -140 q 564 -75 501 -75 q 664 -106 628 -75 q 700 -193 700 -136 q 663 -278 700 -244 q 564 -311 626 -311 z "},"Ờ":{"ha":1128,"x_min":60,"x_max":1067,"o":"m 564 -14 q 363 24 454 -14 q 203 129 271 61 q 97 289 135 197 q 60 490 60 381 q 97 692 60 600 q 203 851 135 783 q 363 957 271 919 q 564 994 454 994 q 624 990 593 994 q 685 981 656 986 q 728 971 707 975 q 774 967 750 967 q 838 987 813 967 q 877 1047 864 1007 q 890 1146 890 1086 l 1067 1146 q 1056 1039 1067 1090 q 1022 947 1046 988 q 957 883 999 907 q 851 856 915 858 l 885 886 q 983 781 942 842 q 1045 647 1024 721 q 1067 490 1067 574 q 1030 290 1067 382 q 925 129 993 197 q 765 24 857 61 q 564 -14 674 -14 m 564 208 q 669 229 621 208 q 752 288 717 250 q 807 378 788 326 q 826 490 826 429 q 807 603 826 551 q 752 692 788 654 q 669 751 717 731 q 564 772 621 772 q 459 751 507 772 q 375 692 411 731 q 320 603 339 654 q 301 490 301 551 q 320 377 301 429 q 375 288 339 325 q 459 229 411 250 q 564 208 507 208 m 700 1039 l 385 1147 l 461 1310 l 751 1150 l 700 1039 z "},"Ở":{"ha":1128,"x_min":60,"x_max":1067,"o":"m 564 -14 q 363 24 454 -14 q 203 129 271 61 q 97 289 135 197 q 60 490 60 381 q 97 692 60 600 q 203 851 135 783 q 363 957 271 919 q 564 994 454 994 q 624 990 593 994 q 685 981 656 986 q 728 971 707 975 q 774 967 750 967 q 838 987 813 967 q 877 1047 864 1007 q 890 1146 890 1086 l 1067 1146 q 1056 1039 1067 1090 q 1022 947 1046 988 q 957 883 999 907 q 851 856 915 858 l 885 886 q 983 781 942 842 q 1045 647 1024 721 q 1067 490 1067 574 q 1030 290 1067 382 q 925 129 993 197 q 765 24 857 61 q 564 -14 674 -14 m 564 208 q 669 229 621 208 q 752 288 717 250 q 807 378 788 326 q 826 490 826 429 q 807 603 826 551 q 752 692 788 654 q 669 751 717 731 q 564 772 621 772 q 459 751 507 772 q 375 692 411 731 q 320 603 339 654 q 301 490 301 551 q 320 377 301 429 q 375 288 339 325 q 459 229 411 250 q 564 208 507 208 m 529 1036 q 511 1064 519 1049 q 503 1096 503 1079 q 512 1128 503 1113 q 546 1163 521 1144 q 576 1185 565 1175 q 588 1208 588 1194 q 576 1227 588 1221 q 546 1233 564 1233 q 488 1225 518 1233 q 426 1203 457 1217 l 394 1321 q 470 1349 425 1338 q 563 1361 515 1361 q 688 1327 642 1361 q 735 1236 735 1293 q 715 1167 735 1190 q 674 1129 696 1143 q 637 1103 651 1115 q 622 1076 622 1090 q 624 1067 622 1071 q 626 1057 625 1063 l 529 1036 z "},"Ỡ":{"ha":1128,"x_min":60,"x_max":1067,"o":"m 564 -14 q 363 24 454 -14 q 203 129 271 61 q 97 289 135 197 q 60 490 60 381 q 97 692 60 600 q 203 851 135 783 q 363 957 271 919 q 564 994 454 994 q 624 990 593 994 q 685 981 656 986 q 728 971 707 975 q 774 967 750 967 q 838 987 813 967 q 877 1047 864 1007 q 890 1146 890 1086 l 1067 1146 q 1056 1039 1067 1090 q 1022 947 1046 988 q 957 883 999 907 q 851 856 915 858 l 885 886 q 983 781 942 842 q 1045 647 1024 721 q 1067 490 1067 574 q 1030 290 1067 382 q 925 129 993 197 q 765 24 857 61 q 564 -14 674 -14 m 564 208 q 669 229 621 208 q 752 288 717 250 q 807 378 788 326 q 826 490 826 429 q 807 603 826 551 q 752 692 788 654 q 669 751 717 731 q 564 772 621 772 q 459 751 507 772 q 375 692 411 731 q 320 603 339 654 q 301 490 301 551 q 320 377 301 429 q 375 288 339 325 q 459 229 411 250 q 564 208 507 208 m 671 1067 q 615 1075 643 1067 q 554 1097 588 1083 q 512 1115 529 1110 q 481 1121 494 1121 q 449 1107 461 1121 q 438 1068 438 1093 l 299 1068 q 349 1212 299 1160 q 476 1264 400 1264 q 526 1257 501 1264 q 588 1233 550 1250 q 625 1217 610 1222 q 653 1211 640 1211 q 681 1226 671 1211 q 690 1264 692 1240 l 828 1264 q 808 1165 828 1211 q 753 1093 788 1119 q 671 1067 718 1067 z "},"Ő":{"ha":1128,"x_min":60,"x_max":1067,"o":"m 565 -14 q 363 24 454 -14 q 203 129 271 61 q 97 289 135 197 q 60 490 60 381 q 97 692 60 600 q 203 851 135 783 q 363 957 271 919 q 564 994 454 994 q 765 957 674 994 q 925 851 857 919 q 1030 692 993 783 q 1067 490 1067 600 q 1030 290 1067 382 q 925 129 993 197 q 765 24 857 61 q 565 -14 674 -14 m 564 208 q 669 229 621 208 q 752 288 717 250 q 807 378 788 326 q 826 490 826 429 q 807 603 826 551 q 752 692 788 654 q 669 751 717 731 q 564 772 621 772 q 459 751 507 772 q 375 692 411 731 q 320 603 339 654 q 301 490 301 551 q 320 377 301 429 q 375 288 339 325 q 459 229 411 250 q 564 208 507 208 m 396 1046 l 324 1143 l 533 1342 l 640 1206 l 396 1046 m 704 1043 l 635 1143 l 853 1339 l 960 1197 l 704 1043 z "},"Ȏ":{"ha":1128,"x_min":60,"x_max":1067,"o":"m 565 -14 q 363 24 454 -14 q 203 129 271 61 q 97 289 135 197 q 60 490 60 381 q 97 692 60 600 q 203 851 135 783 q 363 957 271 919 q 564 994 454 994 q 765 957 674 994 q 925 851 857 919 q 1030 692 993 783 q 1067 490 1067 600 q 1030 290 1067 382 q 925 129 993 197 q 765 24 857 61 q 565 -14 674 -14 m 564 208 q 669 229 621 208 q 752 288 717 250 q 807 378 788 326 q 826 490 826 429 q 807 603 826 551 q 752 692 788 654 q 669 751 717 731 q 564 772 621 772 q 459 751 507 772 q 375 692 411 731 q 320 603 339 654 q 301 490 301 551 q 320 377 301 429 q 375 288 339 325 q 459 229 411 250 q 564 208 507 208 m 457 1053 l 315 1069 q 363 1179 328 1132 q 450 1253 399 1226 q 564 1279 501 1279 q 678 1253 628 1279 q 765 1179 729 1226 q 813 1069 800 1132 l 671 1053 q 628 1111 657 1088 q 564 1135 599 1135 q 500 1111 529 1135 q 457 1053 471 1088 z "},"Ō":{"ha":1128,"x_min":60,"x_max":1067,"o":"m 565 -14 q 363 24 454 -14 q 203 129 271 61 q 97 289 135 197 q 60 490 60 381 q 97 692 60 600 q 203 851 135 783 q 363 957 271 919 q 564 994 454 994 q 765 957 674 994 q 925 851 857 919 q 1030 692 993 783 q 1067 490 1067 600 q 1030 290 1067 382 q 925 129 993 197 q 765 24 857 61 q 565 -14 674 -14 m 564 208 q 669 229 621 208 q 752 288 717 250 q 807 378 788 326 q 826 490 826 429 q 807 603 826 551 q 752 692 788 654 q 669 751 717 731 q 564 772 621 772 q 459 751 507 772 q 375 692 411 731 q 320 603 339 654 q 301 490 301 551 q 320 377 301 429 q 375 288 339 325 q 459 229 411 250 q 564 208 507 208 m 314 1096 l 314 1236 l 813 1236 l 813 1096 l 314 1096 z "},"Ṓ":{"ha":1128,"x_min":60,"x_max":1067,"o":"m 565 -14 q 363 24 454 -14 q 203 129 271 61 q 97 289 135 197 q 60 490 60 381 q 97 692 60 600 q 203 851 135 783 q 363 957 271 919 q 564 994 454 994 q 765 957 674 994 q 925 851 857 919 q 1030 692 993 783 q 1067 490 1067 600 q 1030 290 1067 382 q 925 129 993 197 q 765 24 857 61 q 565 -14 674 -14 m 564 208 q 669 229 621 208 q 752 288 717 250 q 807 378 788 326 q 826 490 826 429 q 807 603 826 551 q 752 692 788 654 q 669 751 717 731 q 564 772 621 772 q 459 751 507 772 q 375 692 411 731 q 320 603 339 654 q 301 490 301 551 q 320 377 301 429 q 375 288 339 325 q 459 229 411 250 q 564 208 507 208 m 314 1096 l 314 1236 l 813 1236 l 813 1096 l 314 1096 m 440 1303 l 389 1414 l 679 1574 l 756 1411 l 440 1303 z "},"Ṑ":{"ha":1128,"x_min":60,"x_max":1067,"o":"m 565 -14 q 363 24 454 -14 q 203 129 271 61 q 97 289 135 197 q 60 490 60 381 q 97 692 60 600 q 203 851 135 783 q 363 957 271 919 q 564 994 454 994 q 765 957 674 994 q 925 851 857 919 q 1030 692 993 783 q 1067 490 1067 600 q 1030 290 1067 382 q 925 129 993 197 q 765 24 857 61 q 565 -14 674 -14 m 564 208 q 669 229 621 208 q 752 288 717 250 q 807 378 788 326 q 826 490 826 429 q 807 603 826 551 q 752 692 788 654 q 669 751 717 731 q 564 772 621 772 q 459 751 507 772 q 375 692 411 731 q 320 603 339 654 q 301 490 301 551 q 320 377 301 429 q 375 288 339 325 q 459 229 411 250 q 564 208 507 208 m 314 1096 l 314 1236 l 813 1236 l 813 1096 l 314 1096 m 700 1303 l 385 1411 l 461 1574 l 751 1414 l 700 1303 z "},"Ǫ":{"ha":1128,"x_min":60,"x_max":1067,"o":"m 694 -293 q 579 -251 625 -293 q 533 -139 533 -208 q 553 -56 533 -94 q 610 16 574 -17 q 695 77 647 49 q 800 133 743 106 l 847 68 q 787 28 815 49 q 735 -12 758 8 q 700 -56 713 -33 q 688 -103 688 -78 q 698 -137 688 -124 q 726 -150 708 -150 q 751 -142 740 -150 q 772 -117 763 -133 l 869 -187 q 802 -261 849 -229 q 694 -293 756 -293 m 564 -14 q 363 24 454 -14 q 203 129 271 61 q 97 289 135 197 q 60 490 60 381 q 97 692 60 600 q 203 851 135 783 q 363 957 271 919 q 564 994 454 994 q 765 957 674 994 q 925 851 857 919 q 1030 692 993 783 q 1067 490 1067 600 q 1030 290 1067 382 q 925 129 993 197 q 765 24 857 61 q 564 -14 674 -14 m 564 208 q 669 229 621 208 q 752 288 717 250 q 807 378 788 326 q 826 490 826 429 q 807 603 826 551 q 752 692 788 654 q 669 751 717 731 q 564 772 621 772 q 459 751 507 772 q 375 692 411 731 q 320 603 339 654 q 301 490 301 551 q 320 377 301 429 q 375 288 339 325 q 459 229 411 250 q 564 208 507 208 z "},"Ø":{"ha":1121,"x_min":60,"x_max":1067,"o":"m 193 -46 l 106 28 l 924 1029 l 1018 964 l 193 -46 m 564 -14 q 362 24 454 -14 q 201 129 269 61 q 97 289 133 197 q 60 490 60 381 q 97 692 60 600 q 201 851 133 783 q 362 957 269 919 q 564 994 454 994 q 765 957 674 994 q 925 851 857 919 q 1030 692 993 783 q 1067 490 1067 600 q 1030 290 1067 382 q 925 129 993 197 q 765 24 857 61 q 564 -14 674 -14 m 564 208 q 669 229 621 208 q 752 288 717 250 q 807 378 788 326 q 826 490 826 429 q 807 603 826 551 q 752 692 788 654 q 669 751 717 731 q 564 772 621 772 q 458 751 506 772 q 374 692 410 731 q 319 603 339 654 q 300 490 300 551 q 319 377 300 429 q 374 288 339 325 q 458 229 410 250 q 564 208 506 208 z "},"Ǿ":{"ha":1121,"x_min":60,"x_max":1067,"o":"m 193 -46 l 106 28 l 924 1029 l 1018 964 l 193 -46 m 564 -14 q 362 24 454 -14 q 201 129 269 61 q 97 289 133 197 q 60 490 60 381 q 97 692 60 600 q 201 851 133 783 q 362 957 269 919 q 564 994 454 994 q 765 957 674 994 q 925 851 857 919 q 1030 692 993 783 q 1067 490 1067 600 q 1030 290 1067 382 q 925 129 993 197 q 765 24 857 61 q 564 -14 674 -14 m 564 208 q 669 229 621 208 q 752 288 717 250 q 807 378 788 326 q 826 490 826 429 q 807 603 826 551 q 752 692 788 654 q 669 751 717 731 q 564 772 621 772 q 458 751 506 772 q 374 692 410 731 q 319 603 339 654 q 300 490 300 551 q 319 377 300 429 q 374 288 339 325 q 458 229 410 250 q 564 208 506 208 m 438 1039 l 386 1150 l 676 1310 l 753 1147 l 438 1039 z "},"Õ":{"ha":1128,"x_min":60,"x_max":1067,"o":"m 565 -14 q 363 24 454 -14 q 203 129 271 61 q 97 289 135 197 q 60 490 60 381 q 97 692 60 600 q 203 851 135 783 q 363 957 271 919 q 564 994 454 994 q 765 957 674 994 q 925 851 857 919 q 1030 692 993 783 q 1067 490 1067 600 q 1030 290 1067 382 q 925 129 993 197 q 765 24 857 61 q 565 -14 674 -14 m 564 208 q 669 229 621 208 q 752 288 717 250 q 807 378 788 326 q 826 490 826 429 q 807 603 826 551 q 752 692 788 654 q 669 751 717 731 q 564 772 621 772 q 459 751 507 772 q 375 692 411 731 q 320 603 339 654 q 301 490 301 551 q 320 377 301 429 q 375 288 339 325 q 459 229 411 250 q 564 208 507 208 m 671 1067 q 615 1075 643 1067 q 554 1097 588 1083 q 512 1115 529 1110 q 481 1121 494 1121 q 449 1107 461 1121 q 438 1068 438 1093 l 299 1068 q 349 1212 299 1160 q 476 1264 400 1264 q 526 1257 501 1264 q 588 1233 550 1250 q 625 1217 610 1222 q 653 1211 640 1211 q 681 1226 671 1211 q 690 1264 692 1240 l 828 1264 q 808 1165 828 1211 q 753 1093 788 1119 q 671 1067 718 1067 z "},"Ṍ":{"ha":1128,"x_min":60,"x_max":1067,"o":"m 565 -14 q 363 24 454 -14 q 203 129 271 61 q 97 289 135 197 q 60 490 60 381 q 97 692 60 600 q 203 851 135 783 q 363 957 271 919 q 564 994 454 994 q 765 957 674 994 q 925 851 857 919 q 1030 692 993 783 q 1067 490 1067 600 q 1030 290 1067 382 q 925 129 993 197 q 765 24 857 61 q 565 -14 674 -14 m 564 208 q 669 229 621 208 q 752 288 717 250 q 807 378 788 326 q 826 490 826 429 q 807 603 826 551 q 752 692 788 654 q 669 751 717 731 q 564 772 621 772 q 459 751 507 772 q 375 692 411 731 q 320 603 339 654 q 301 490 301 551 q 320 377 301 429 q 375 288 339 325 q 459 229 411 250 q 564 208 507 208 m 671 1067 q 615 1075 643 1067 q 554 1097 588 1083 q 512 1115 529 1110 q 481 1121 494 1121 q 449 1107 461 1121 q 438 1068 438 1093 l 299 1068 q 349 1212 299 1160 q 476 1264 400 1264 q 526 1257 501 1264 q 588 1233 550 1250 q 625 1217 610 1222 q 653 1211 640 1211 q 681 1226 671 1211 q 690 1264 692 1240 l 828 1264 q 808 1165 828 1211 q 753 1093 788 1119 q 671 1067 718 1067 m 440 1303 l 389 1414 l 679 1574 l 756 1411 l 440 1303 z "},"Ṏ":{"ha":1128,"x_min":60,"x_max":1067,"o":"m 565 -14 q 363 24 454 -14 q 203 129 271 61 q 97 289 135 197 q 60 490 60 381 q 97 692 60 600 q 203 851 135 783 q 363 957 271 919 q 564 994 454 994 q 765 957 674 994 q 925 851 857 919 q 1030 692 993 783 q 1067 490 1067 600 q 1030 290 1067 382 q 925 129 993 197 q 765 24 857 61 q 565 -14 674 -14 m 564 208 q 669 229 621 208 q 752 288 717 250 q 807 378 788 326 q 826 490 826 429 q 807 603 826 551 q 752 692 788 654 q 669 751 717 731 q 564 772 621 772 q 459 751 507 772 q 375 692 411 731 q 320 603 339 654 q 301 490 301 551 q 320 377 301 429 q 375 288 339 325 q 459 229 411 250 q 564 208 507 208 m 671 1067 q 615 1075 643 1067 q 554 1097 588 1083 q 512 1115 529 1110 q 481 1121 494 1121 q 449 1107 461 1121 q 438 1068 438 1093 l 299 1068 q 349 1212 299 1160 q 476 1264 400 1264 q 526 1257 501 1264 q 588 1233 550 1250 q 625 1217 610 1222 q 653 1211 640 1211 q 681 1226 671 1211 q 690 1264 692 1240 l 828 1264 q 808 1165 828 1211 q 753 1093 788 1119 q 671 1067 718 1067 m 732 1311 q 642 1342 672 1311 q 611 1429 611 1374 q 643 1513 611 1479 q 732 1547 675 1547 q 822 1516 790 1547 q 853 1429 853 1485 q 821 1345 853 1379 q 732 1311 789 1311 m 394 1311 q 304 1342 335 1311 q 274 1429 274 1374 q 305 1513 274 1479 q 394 1547 336 1547 q 483 1516 453 1547 q 514 1429 514 1485 q 483 1345 514 1379 q 394 1311 451 1311 z "},"Ȭ":{"ha":1128,"x_min":60,"x_max":1067,"o":"m 565 -14 q 363 24 454 -14 q 203 129 271 61 q 97 289 135 197 q 60 490 60 381 q 97 692 60 600 q 203 851 135 783 q 363 957 271 919 q 564 994 454 994 q 765 957 674 994 q 925 851 857 919 q 1030 692 993 783 q 1067 490 1067 600 q 1030 290 1067 382 q 925 129 993 197 q 765 24 857 61 q 565 -14 674 -14 m 564 208 q 669 229 621 208 q 752 288 717 250 q 807 378 788 326 q 826 490 826 429 q 807 603 826 551 q 752 692 788 654 q 669 751 717 731 q 564 772 621 772 q 459 751 507 772 q 375 692 411 731 q 320 603 339 654 q 301 490 301 551 q 320 377 301 429 q 375 288 339 325 q 459 229 411 250 q 564 208 507 208 m 671 1067 q 615 1075 643 1067 q 554 1097 588 1083 q 512 1115 529 1110 q 481 1121 494 1121 q 449 1107 461 1121 q 438 1068 438 1093 l 299 1068 q 349 1212 299 1160 q 476 1264 400 1264 q 526 1257 501 1264 q 588 1233 550 1250 q 625 1217 610 1222 q 653 1211 640 1211 q 681 1226 671 1211 q 690 1264 692 1240 l 828 1264 q 808 1165 828 1211 q 753 1093 788 1119 q 671 1067 718 1067 m 314 1360 l 314 1500 l 813 1500 l 813 1360 l 314 1360 z "},"Œ":{"ha":1499,"x_min":60,"x_max":1417,"o":"m 521 0 q 330 35 415 0 q 185 134 244 69 q 92 288 125 199 q 60 486 60 378 q 94 683 60 594 q 193 838 129 772 q 347 938 257 903 q 549 972 438 972 l 1417 972 l 1417 771 l 954 771 l 954 594 l 1340 594 l 1340 403 l 954 403 l 954 201 l 1417 201 l 1417 0 l 521 0 m 299 486 q 315 369 299 421 q 364 283 332 318 q 442 228 396 247 q 549 208 489 208 l 725 208 l 725 764 l 560 764 q 449 744 497 764 q 368 689 401 725 q 317 602 335 653 q 299 486 299 551 z "},"P":{"ha":919,"x_min":122,"x_max":861,"o":"m 122 0 l 122 972 l 542 972 q 705 931 633 972 q 819 817 776 889 q 861 654 861 744 q 819 485 861 560 q 705 368 776 411 q 542 325 633 325 l 358 325 l 358 0 l 122 0 m 354 532 l 508 532 q 564 547 539 532 q 604 589 589 563 q 619 650 619 615 q 604 711 619 686 q 564 750 589 736 q 508 764 539 764 l 354 764 l 354 532 z "},"Þ":{"ha":919,"x_min":122,"x_max":861,"o":"m 122 0 l 122 972 l 358 972 l 358 818 l 542 818 q 705 776 633 818 q 819 663 776 735 q 861 499 861 590 q 819 331 861 406 q 705 213 776 256 q 542 169 633 169 l 358 169 l 358 0 l 122 0 m 358 378 l 508 378 q 564 393 539 378 q 604 435 589 408 q 619 496 619 461 q 604 556 619 531 q 564 595 589 581 q 508 610 539 610 l 358 610 l 358 378 z "},"Q":{"ha":1128,"x_min":60,"x_max":1067,"o":"m 854 -153 l 482 351 l 656 472 l 1024 -28 l 854 -153 m 564 -14 q 363 24 454 -14 q 203 129 271 61 q 97 289 135 197 q 60 490 60 381 q 97 692 60 600 q 203 851 135 783 q 363 957 271 919 q 564 994 454 994 q 765 957 674 994 q 925 851 857 919 q 1030 692 993 783 q 1067 490 1067 600 q 1030 290 1067 382 q 925 129 993 197 q 765 24 857 61 q 564 -14 674 -14 m 564 208 q 669 229 621 208 q 752 288 717 250 q 807 378 788 326 q 826 490 826 429 q 807 603 826 551 q 752 692 788 654 q 669 751 717 731 q 564 772 621 772 q 459 751 507 772 q 375 692 411 731 q 320 603 339 654 q 301 490 301 551 q 320 377 301 429 q 375 288 339 325 q 459 229 411 250 q 564 208 507 208 z "},"R":{"ha":975,"x_min":122,"x_max":931,"o":"m 122 0 l 122 972 l 560 972 q 728 932 653 972 q 847 822 804 892 q 890 663 890 751 q 847 498 890 571 q 729 383 804 425 q 560 342 654 342 l 347 342 l 347 0 l 122 0 m 661 0 l 414 439 l 656 474 l 931 0 l 661 0 m 347 522 l 539 522 q 602 538 575 522 q 644 583 629 554 q 658 650 658 613 q 642 716 658 688 q 594 760 625 744 q 518 775 563 775 l 347 775 l 347 522 z "},"Ŕ":{"ha":975,"x_min":122,"x_max":931,"o":"m 122 0 l 122 972 l 560 972 q 728 932 653 972 q 847 822 804 892 q 890 663 890 751 q 847 498 890 571 q 729 383 804 425 q 560 342 654 342 l 347 342 l 347 0 l 122 0 m 661 0 l 414 439 l 656 474 l 931 0 l 661 0 m 347 522 l 539 522 q 602 538 575 522 q 644 583 629 554 q 658 650 658 613 q 642 716 658 688 q 594 760 625 744 q 518 775 563 775 l 347 775 l 347 522 m 339 1039 l 288 1150 l 578 1310 l 654 1147 l 339 1039 z "},"Ř":{"ha":975,"x_min":122,"x_max":931,"o":"m 122 0 l 122 972 l 560 972 q 728 932 653 972 q 847 822 804 892 q 890 663 890 751 q 847 498 890 571 q 729 383 804 425 q 560 342 654 342 l 347 342 l 347 0 l 122 0 m 661 0 l 414 439 l 656 474 l 931 0 l 661 0 m 347 522 l 539 522 q 602 538 575 522 q 644 583 629 554 q 658 650 658 613 q 642 716 658 688 q 594 760 625 744 q 518 775 563 775 l 347 775 l 347 522 m 396 1049 l 210 1197 l 279 1275 l 483 1178 l 442 1178 l 646 1275 l 715 1197 l 529 1049 l 396 1049 z "},"Ŗ":{"ha":975,"x_min":122,"x_max":931,"o":"m 122 0 l 122 972 l 560 972 q 728 932 653 972 q 847 822 804 892 q 890 663 890 751 q 847 498 890 571 q 729 383 804 425 q 560 342 654 342 l 347 342 l 347 0 l 122 0 m 661 0 l 414 439 l 656 474 l 931 0 l 661 0 m 347 522 l 539 522 q 602 538 575 522 q 644 583 629 554 q 658 650 658 613 q 642 716 658 688 q 594 760 625 744 q 518 775 563 775 l 347 775 l 347 522 m 411 -408 l 356 -332 q 398 -313 375 -325 q 438 -285 421 -301 q 456 -251 456 -268 q 448 -234 456 -240 q 422 -219 440 -228 q 381 -191 393 -208 q 368 -146 368 -174 q 400 -78 368 -101 q 481 -56 432 -56 q 579 -90 539 -56 q 619 -190 619 -124 q 605 -265 619 -231 q 563 -326 590 -299 q 497 -373 536 -353 q 411 -408 458 -393 z "},"Ȑ":{"ha":975,"x_min":78,"x_max":931,"o":"m 122 0 l 122 972 l 560 972 q 728 932 653 972 q 847 822 804 892 q 890 663 890 751 q 847 498 890 571 q 729 383 804 425 q 560 342 654 342 l 347 342 l 347 0 l 122 0 m 661 0 l 414 439 l 656 474 l 931 0 l 661 0 m 347 522 l 539 522 q 602 538 575 522 q 644 583 629 554 q 658 650 658 613 q 642 716 658 688 q 594 760 625 744 q 518 775 563 775 l 347 775 l 347 522 m 633 1032 l 397 1203 l 513 1333 l 710 1122 l 633 1032 m 325 1028 l 79 1194 l 193 1331 l 400 1122 l 325 1028 z "},"Ṛ":{"ha":975,"x_min":122,"x_max":931,"o":"m 122 0 l 122 972 l 560 972 q 728 932 653 972 q 847 822 804 892 q 890 663 890 751 q 847 498 890 571 q 729 383 804 425 q 560 342 654 342 l 347 342 l 347 0 l 122 0 m 661 0 l 414 439 l 656 474 l 931 0 l 661 0 m 347 522 l 539 522 q 602 538 575 522 q 644 583 629 554 q 658 650 658 613 q 642 716 658 688 q 594 760 625 744 q 518 775 563 775 l 347 775 l 347 522 m 488 -311 q 388 -280 424 -311 q 351 -193 351 -249 q 388 -108 351 -140 q 488 -75 425 -75 q 588 -106 551 -75 q 624 -193 624 -136 q 587 -278 624 -244 q 488 -311 550 -311 z "},"Ȓ":{"ha":975,"x_min":122,"x_max":931,"o":"m 122 0 l 122 972 l 560 972 q 728 932 653 972 q 847 822 804 892 q 890 663 890 751 q 847 498 890 571 q 729 383 804 425 q 560 342 654 342 l 347 342 l 347 0 l 122 0 m 661 0 l 414 439 l 656 474 l 931 0 l 661 0 m 347 522 l 539 522 q 602 538 575 522 q 644 583 629 554 q 658 650 658 613 q 642 716 658 688 q 594 760 625 744 q 518 775 563 775 l 347 775 l 347 522 m 356 1053 l 214 1069 q 262 1179 226 1132 q 349 1253 297 1226 q 463 1279 400 1279 q 577 1253 526 1279 q 663 1179 628 1226 q 711 1069 699 1132 l 569 1053 q 526 1111 556 1088 q 463 1135 497 1135 q 399 1111 428 1135 q 356 1053 369 1088 z "},"Ṟ":{"ha":975,"x_min":122,"x_max":931,"o":"m 122 0 l 122 972 l 560 972 q 728 932 653 972 q 847 822 804 892 q 890 663 890 751 q 847 498 890 571 q 729 383 804 425 q 560 342 654 342 l 347 342 l 347 0 l 122 0 m 661 0 l 414 439 l 656 474 l 931 0 l 661 0 m 347 522 l 539 522 q 602 538 575 522 q 644 583 629 554 q 658 650 658 613 q 642 716 658 688 q 594 760 625 744 q 518 775 563 775 l 347 775 l 347 522 m 275 -275 l 275 -111 l 700 -111 l 700 -275 l 275 -275 z "},"S":{"ha":881,"x_min":28,"x_max":825,"o":"m 444 -14 q 272 9 349 -14 q 135 76 194 32 q 28 179 75 119 l 171 342 q 310 217 240 249 q 456 185 381 185 q 524 194 493 185 q 571 223 554 204 q 588 269 588 242 q 577 307 588 290 q 549 336 567 324 q 506 359 531 349 q 453 377 481 369 q 396 390 425 385 q 256 435 315 408 q 156 499 196 461 q 97 587 117 538 q 78 697 78 636 q 108 817 78 763 q 188 912 138 872 q 306 973 239 951 q 444 994 372 994 q 609 974 540 994 q 727 917 678 954 q 811 826 776 879 l 665 686 q 602 746 636 722 q 530 782 568 769 q 451 794 492 794 q 380 784 410 794 q 333 755 350 774 q 317 710 317 736 q 331 669 317 686 q 368 640 344 653 q 422 617 392 626 q 486 603 453 608 q 624 563 563 588 q 731 501 686 538 q 801 416 776 465 q 825 301 825 367 q 776 130 825 200 q 641 23 726 60 q 444 -14 556 -14 z "},"Ś":{"ha":881,"x_min":28,"x_max":825,"o":"m 444 -14 q 272 9 349 -14 q 135 76 194 32 q 28 179 75 119 l 171 342 q 310 217 240 249 q 456 185 381 185 q 524 194 493 185 q 571 223 554 204 q 588 269 588 242 q 577 307 588 290 q 549 336 567 324 q 506 359 531 349 q 453 377 481 369 q 396 390 425 385 q 256 435 315 408 q 156 499 196 461 q 97 587 117 538 q 78 697 78 636 q 108 817 78 763 q 188 912 138 872 q 306 973 239 951 q 444 994 372 994 q 609 974 540 994 q 727 917 678 954 q 811 826 776 879 l 665 686 q 602 746 636 722 q 530 782 568 769 q 451 794 492 794 q 380 784 410 794 q 333 755 350 774 q 317 710 317 736 q 331 669 317 686 q 368 640 344 653 q 422 617 392 626 q 486 603 453 608 q 624 563 563 588 q 731 501 686 538 q 801 416 776 465 q 825 301 825 367 q 776 130 825 200 q 641 23 726 60 q 444 -14 556 -14 m 338 1039 l 286 1150 l 576 1310 l 653 1147 l 338 1039 z "},"Ṥ":{"ha":881,"x_min":28,"x_max":825,"o":"m 444 -14 q 272 9 349 -14 q 135 76 194 32 q 28 179 75 119 l 171 342 q 310 217 240 249 q 456 185 381 185 q 524 194 493 185 q 571 223 554 204 q 588 269 588 242 q 577 307 588 290 q 549 336 567 324 q 506 359 531 349 q 453 377 481 369 q 396 390 425 385 q 256 435 315 408 q 156 499 196 461 q 97 587 117 538 q 78 697 78 636 q 108 817 78 763 q 188 912 138 872 q 306 973 239 951 q 444 994 372 994 q 609 974 540 994 q 727 917 678 954 q 811 826 776 879 l 665 686 q 602 746 636 722 q 530 782 568 769 q 451 794 492 794 q 380 784 410 794 q 333 755 350 774 q 317 710 317 736 q 331 669 317 686 q 368 640 344 653 q 422 617 392 626 q 486 603 453 608 q 624 563 563 588 q 731 501 686 538 q 801 416 776 465 q 825 301 825 367 q 776 130 825 200 q 641 23 726 60 q 444 -14 556 -14 m 582 1044 l 489 1106 l 619 1335 l 760 1233 l 582 1044 m 331 1047 q 240 1076 272 1047 q 208 1154 208 1104 q 241 1231 208 1201 q 331 1260 274 1260 q 420 1233 388 1260 q 453 1154 453 1206 q 419 1077 453 1107 q 331 1047 386 1047 z "},"Š":{"ha":881,"x_min":28,"x_max":825,"o":"m 444 -14 q 272 9 349 -14 q 135 76 194 32 q 28 179 75 119 l 171 342 q 310 217 240 249 q 456 185 381 185 q 524 194 493 185 q 571 223 554 204 q 588 269 588 242 q 577 307 588 290 q 549 336 567 324 q 506 359 531 349 q 453 377 481 369 q 396 390 425 385 q 256 435 315 408 q 156 499 196 461 q 97 587 117 538 q 78 697 78 636 q 108 817 78 763 q 188 912 138 872 q 306 973 239 951 q 444 994 372 994 q 609 974 540 994 q 727 917 678 954 q 811 826 776 879 l 665 686 q 602 746 636 722 q 530 782 568 769 q 451 794 492 794 q 380 784 410 794 q 333 755 350 774 q 317 710 317 736 q 331 669 317 686 q 368 640 344 653 q 422 617 392 626 q 486 603 453 608 q 624 563 563 588 q 731 501 686 538 q 801 416 776 465 q 825 301 825 367 q 776 130 825 200 q 641 23 726 60 q 444 -14 556 -14 m 394 1049 l 208 1197 l 278 1275 l 482 1178 l 440 1178 l 644 1275 l 714 1197 l 528 1049 l 394 1049 z "},"Ṧ":{"ha":881,"x_min":28,"x_max":825,"o":"m 444 -14 q 272 9 349 -14 q 135 76 194 32 q 28 179 75 119 l 171 342 q 310 217 240 249 q 456 185 381 185 q 524 194 493 185 q 571 223 554 204 q 588 269 588 242 q 577 307 588 290 q 549 336 567 324 q 506 359 531 349 q 453 377 481 369 q 396 390 425 385 q 256 435 315 408 q 156 499 196 461 q 97 587 117 538 q 78 697 78 636 q 108 817 78 763 q 188 912 138 872 q 306 973 239 951 q 444 994 372 994 q 609 974 540 994 q 727 917 678 954 q 811 826 776 879 l 665 686 q 602 746 636 722 q 530 782 568 769 q 451 794 492 794 q 380 784 410 794 q 333 755 350 774 q 317 710 317 736 q 331 669 317 686 q 368 640 344 653 q 422 617 392 626 q 486 603 453 608 q 624 563 563 588 q 731 501 686 538 q 801 416 776 465 q 825 301 825 367 q 776 130 825 200 q 641 23 726 60 q 444 -14 556 -14 m 394 1049 l 208 1197 l 278 1275 l 482 1178 l 440 1178 l 644 1275 l 714 1197 l 528 1049 l 394 1049 m 460 1314 q 362 1344 396 1314 q 328 1429 328 1375 q 363 1511 328 1478 q 460 1544 397 1544 q 558 1514 524 1544 q 592 1429 592 1483 q 557 1347 592 1381 q 460 1314 522 1314 z "},"Ş":{"ha":881,"x_min":28,"x_max":825,"o":"m 444 -14 q 272 9 349 -14 q 135 76 194 32 q 28 179 75 119 l 171 342 q 310 217 240 249 q 456 185 381 185 q 524 194 493 185 q 571 223 554 204 q 588 269 588 242 q 577 307 588 290 q 549 336 567 324 q 506 359 531 349 q 453 377 481 369 q 396 390 425 385 q 256 435 315 408 q 156 499 196 461 q 97 587 117 538 q 78 697 78 636 q 108 817 78 763 q 188 912 138 872 q 306 973 239 951 q 444 994 372 994 q 609 974 540 994 q 727 917 678 954 q 811 826 776 879 l 665 686 q 602 746 636 722 q 530 782 568 769 q 451 794 492 794 q 380 784 410 794 q 333 755 350 774 q 317 710 317 736 q 331 669 317 686 q 368 640 344 653 q 422 617 392 626 q 486 603 453 608 q 624 563 563 588 q 731 501 686 538 q 801 416 776 465 q 825 301 825 367 q 776 130 825 200 q 641 23 726 60 q 444 -14 556 -14 m 331 -342 l 318 -237 q 377 -231 346 -237 q 431 -210 408 -224 q 453 -182 453 -197 q 437 -156 453 -165 q 399 -141 421 -146 q 354 -136 376 -136 l 329 -117 l 425 33 l 539 33 l 476 -60 q 583 -105 549 -68 q 618 -193 618 -142 q 592 -265 618 -236 q 522 -311 565 -293 q 429 -336 479 -329 q 331 -342 379 -343 z "},"Ŝ":{"ha":881,"x_min":28,"x_max":825,"o":"m 444 -14 q 272 9 349 -14 q 135 76 194 32 q 28 179 75 119 l 171 342 q 310 217 240 249 q 456 185 381 185 q 524 194 493 185 q 571 223 554 204 q 588 269 588 242 q 577 307 588 290 q 549 336 567 324 q 506 359 531 349 q 453 377 481 369 q 396 390 425 385 q 256 435 315 408 q 156 499 196 461 q 97 587 117 538 q 78 697 78 636 q 108 817 78 763 q 188 912 138 872 q 306 973 239 951 q 444 994 372 994 q 609 974 540 994 q 727 917 678 954 q 811 826 776 879 l 665 686 q 602 746 636 722 q 530 782 568 769 q 451 794 492 794 q 380 784 410 794 q 333 755 350 774 q 317 710 317 736 q 331 669 317 686 q 368 640 344 653 q 422 617 392 626 q 486 603 453 608 q 624 563 563 588 q 731 501 686 538 q 801 416 776 465 q 825 301 825 367 q 776 130 825 200 q 641 23 726 60 q 444 -14 556 -14 m 276 1047 l 208 1126 l 397 1274 l 522 1274 l 711 1126 l 643 1047 l 439 1146 l 481 1146 l 276 1047 z "},"Ș":{"ha":881,"x_min":28,"x_max":825,"o":"m 444 -14 q 272 9 349 -14 q 135 76 194 32 q 28 179 75 119 l 171 342 q 310 217 240 249 q 456 185 381 185 q 524 194 493 185 q 571 223 554 204 q 588 269 588 242 q 577 307 588 290 q 549 336 567 324 q 506 359 531 349 q 453 377 481 369 q 396 390 425 385 q 256 435 315 408 q 156 499 196 461 q 97 587 117 538 q 78 697 78 636 q 108 817 78 763 q 188 912 138 872 q 306 973 239 951 q 444 994 372 994 q 609 974 540 994 q 727 917 678 954 q 811 826 776 879 l 665 686 q 602 746 636 722 q 530 782 568 769 q 451 794 492 794 q 380 784 410 794 q 333 755 350 774 q 317 710 317 736 q 331 669 317 686 q 368 640 344 653 q 422 617 392 626 q 486 603 453 608 q 624 563 563 588 q 731 501 686 538 q 801 416 776 465 q 825 301 825 367 q 776 130 825 200 q 641 23 726 60 q 444 -14 556 -14 m 392 -408 l 336 -332 q 378 -313 356 -325 q 419 -285 401 -301 q 436 -251 436 -268 q 428 -234 436 -240 q 403 -219 421 -228 q 361 -191 374 -208 q 349 -146 349 -174 q 381 -78 349 -101 q 461 -56 413 -56 q 560 -90 519 -56 q 600 -190 600 -124 q 585 -265 600 -231 q 544 -326 571 -299 q 478 -373 517 -353 q 392 -408 439 -393 z "},"Ṡ":{"ha":881,"x_min":28,"x_max":825,"o":"m 444 -14 q 272 9 349 -14 q 135 76 194 32 q 28 179 75 119 l 171 342 q 310 217 240 249 q 456 185 381 185 q 524 194 493 185 q 571 223 554 204 q 588 269 588 242 q 577 307 588 290 q 549 336 567 324 q 506 359 531 349 q 453 377 481 369 q 396 390 425 385 q 256 435 315 408 q 156 499 196 461 q 97 587 117 538 q 78 697 78 636 q 108 817 78 763 q 188 912 138 872 q 306 973 239 951 q 444 994 372 994 q 609 974 540 994 q 727 917 678 954 q 811 826 776 879 l 665 686 q 602 746 636 722 q 530 782 568 769 q 451 794 492 794 q 380 784 410 794 q 333 755 350 774 q 317 710 317 736 q 331 669 317 686 q 368 640 344 653 q 422 617 392 626 q 486 603 453 608 q 624 563 563 588 q 731 501 686 538 q 801 416 776 465 q 825 301 825 367 q 776 130 825 200 q 641 23 726 60 q 444 -14 556 -14 m 461 1050 q 363 1081 397 1050 q 329 1165 329 1111 q 364 1247 329 1214 q 461 1281 399 1281 q 559 1250 525 1281 q 593 1165 593 1219 q 558 1083 593 1117 q 461 1050 524 1050 z "},"Ṣ":{"ha":881,"x_min":28,"x_max":825,"o":"m 444 -14 q 272 9 349 -14 q 135 76 194 32 q 28 179 75 119 l 171 342 q 310 217 240 249 q 456 185 381 185 q 524 194 493 185 q 571 223 554 204 q 588 269 588 242 q 577 307 588 290 q 549 336 567 324 q 506 359 531 349 q 453 377 481 369 q 396 390 425 385 q 256 435 315 408 q 156 499 196 461 q 97 587 117 538 q 78 697 78 636 q 108 817 78 763 q 188 912 138 872 q 306 973 239 951 q 444 994 372 994 q 609 974 540 994 q 727 917 678 954 q 811 826 776 879 l 665 686 q 602 746 636 722 q 530 782 568 769 q 451 794 492 794 q 380 784 410 794 q 333 755 350 774 q 317 710 317 736 q 331 669 317 686 q 368 640 344 653 q 422 617 392 626 q 486 603 453 608 q 624 563 563 588 q 731 501 686 538 q 801 416 776 465 q 825 301 825 367 q 776 130 825 200 q 641 23 726 60 q 444 -14 556 -14 m 468 -311 q 368 -280 404 -311 q 332 -193 332 -249 q 369 -108 332 -140 q 468 -75 406 -75 q 568 -106 532 -75 q 604 -193 604 -136 q 567 -278 604 -244 q 468 -311 531 -311 z "},"Ṩ":{"ha":881,"x_min":28,"x_max":825,"o":"m 444 -14 q 272 9 349 -14 q 135 76 194 32 q 28 179 75 119 l 171 342 q 310 217 240 249 q 456 185 381 185 q 524 194 493 185 q 571 223 554 204 q 588 269 588 242 q 577 307 588 290 q 549 336 567 324 q 506 359 531 349 q 453 377 481 369 q 396 390 425 385 q 256 435 315 408 q 156 499 196 461 q 97 587 117 538 q 78 697 78 636 q 108 817 78 763 q 188 912 138 872 q 306 973 239 951 q 444 994 372 994 q 609 974 540 994 q 727 917 678 954 q 811 826 776 879 l 665 686 q 602 746 636 722 q 530 782 568 769 q 451 794 492 794 q 380 784 410 794 q 333 755 350 774 q 317 710 317 736 q 331 669 317 686 q 368 640 344 653 q 422 617 392 626 q 486 603 453 608 q 624 563 563 588 q 731 501 686 538 q 801 416 776 465 q 825 301 825 367 q 776 130 825 200 q 641 23 726 60 q 444 -14 556 -14 m 468 -311 q 368 -280 404 -311 q 332 -193 332 -249 q 369 -108 332 -140 q 468 -75 406 -75 q 568 -106 532 -75 q 604 -193 604 -136 q 567 -278 604 -244 q 468 -311 531 -311 m 461 1050 q 363 1081 397 1050 q 329 1165 329 1111 q 364 1247 329 1214 q 461 1281 399 1281 q 559 1250 525 1281 q 593 1165 593 1219 q 558 1083 593 1117 q 461 1050 524 1050 z "},"ẞ":{"ha":1126,"x_min":122,"x_max":1071,"o":"m 732 -14 q 614 2 671 -14 q 510 44 557 18 q 435 104 464 71 l 561 256 q 638 197 599 218 q 715 176 678 176 q 794 200 765 176 q 822 260 822 224 q 806 306 822 286 q 755 349 790 326 q 661 404 719 372 q 568 468 603 438 q 518 534 533 499 q 503 615 503 569 q 526 705 503 664 q 590 776 550 746 q 681 825 631 807 q 788 846 732 843 l 863 793 q 753 819 819 808 q 629 831 686 831 q 517 807 567 831 q 433 737 468 783 q 378 625 397 690 q 360 476 360 560 l 358 0 l 122 0 l 122 486 q 185 760 124 643 q 357 943 246 878 q 617 1008 468 1008 q 794 994 708 1008 q 957 947 881 979 l 960 782 q 836 755 885 774 q 763 710 788 736 q 739 656 739 685 q 753 609 739 629 q 796 569 768 589 q 864 531 824 550 q 975 467 929 499 q 1046 389 1021 435 q 1071 268 1071 343 q 1024 126 1071 190 q 901 24 978 63 q 732 -14 825 -14 z "},"Ə":{"ha":1071,"x_min":60,"x_max":1010,"o":"m 535 -14 q 356 19 440 -14 q 208 114 272 53 q 103 257 143 175 q 60 435 64 339 l 60 574 l 946 574 l 958 383 l 308 383 q 343 309 321 342 q 395 253 365 276 q 461 216 425 229 q 535 203 497 203 q 631 222 588 203 q 706 277 674 240 q 756 367 739 314 q 774 488 774 419 q 755 603 774 551 q 702 693 736 656 q 621 750 668 731 q 515 769 574 769 q 417 760 461 769 q 333 729 372 750 q 251 676 293 708 l 149 854 q 266 929 210 900 q 386 972 322 958 q 531 986 450 986 q 716 947 629 986 q 869 840 803 908 q 972 681 935 771 q 1010 486 1010 590 q 973 292 1010 382 q 870 133 936 201 q 719 25 804 64 q 535 -14 633 -14 z "},"T":{"ha":910,"x_min":44,"x_max":865,"o":"m 333 0 l 333 764 l 44 764 l 44 972 l 865 972 l 865 764 l 569 764 l 569 0 l 333 0 z "},"Ŧ":{"ha":910,"x_min":44,"x_max":865,"o":"m 235 406 l 235 571 l 686 571 l 686 406 l 235 406 m 333 0 l 333 764 l 44 764 l 44 972 l 865 972 l 865 764 l 569 764 l 569 0 l 333 0 z "},"Ť":{"ha":910,"x_min":44,"x_max":865,"o":"m 333 0 l 333 764 l 44 764 l 44 972 l 865 972 l 865 764 l 569 764 l 569 0 l 333 0 m 389 1049 l 203 1197 l 272 1275 l 476 1178 l 435 1178 l 639 1275 l 708 1197 l 522 1049 l 389 1049 z "},"Ţ":{"ha":910,"x_min":44,"x_max":865,"o":"m 333 0 l 333 764 l 44 764 l 44 972 l 865 972 l 865 764 l 569 764 l 569 0 l 333 0 m 317 -342 l 304 -237 q 363 -231 332 -237 q 417 -210 394 -224 q 439 -182 439 -197 q 423 -156 439 -165 q 385 -141 407 -146 q 340 -136 363 -136 l 315 -117 l 411 33 l 525 33 l 463 -60 q 569 -105 535 -68 q 604 -193 604 -142 q 578 -265 604 -236 q 508 -311 551 -293 q 415 -336 465 -329 q 317 -342 365 -343 z "},"Ț":{"ha":910,"x_min":44,"x_max":865,"o":"m 333 0 l 333 764 l 44 764 l 44 972 l 865 972 l 865 764 l 569 764 l 569 0 l 333 0 m 379 -408 l 324 -332 q 366 -313 343 -325 q 406 -285 389 -301 q 424 -251 424 -268 q 416 -234 424 -240 q 390 -219 408 -228 q 349 -191 361 -208 q 336 -146 336 -174 q 368 -78 336 -101 q 449 -56 400 -56 q 547 -90 507 -56 q 588 -190 588 -124 q 573 -265 588 -231 q 531 -326 558 -299 q 465 -373 504 -353 q 379 -408 426 -393 z "},"Ṭ":{"ha":910,"x_min":44,"x_max":865,"o":"m 333 0 l 333 764 l 44 764 l 44 972 l 865 972 l 865 764 l 569 764 l 569 0 l 333 0 m 456 -311 q 356 -280 392 -311 q 319 -193 319 -249 q 356 -108 319 -140 q 456 -75 393 -75 q 556 -106 519 -75 q 592 -193 592 -136 q 555 -278 592 -244 q 456 -311 518 -311 z "},"Ṯ":{"ha":910,"x_min":44,"x_max":865,"o":"m 333 0 l 333 764 l 44 764 l 44 972 l 865 972 l 865 764 l 569 764 l 569 0 l 333 0 m 242 -275 l 242 -111 l 667 -111 l 667 -275 l 242 -275 z "},"U":{"ha":1063,"x_min":115,"x_max":947,"o":"m 532 -8 q 317 41 411 -8 q 169 176 222 90 q 115 374 115 263 l 115 972 l 354 972 l 354 386 q 378 291 354 333 q 442 224 401 249 q 532 200 482 200 q 626 224 585 200 q 692 291 667 249 q 717 386 717 333 l 717 972 l 947 972 l 947 374 q 894 176 947 263 q 746 41 840 90 q 532 -8 651 -8 z "},"Ú":{"ha":1063,"x_min":115,"x_max":947,"o":"m 532 -8 q 317 41 411 -8 q 169 176 222 90 q 115 374 115 263 l 115 972 l 354 972 l 354 386 q 378 291 354 333 q 442 224 401 249 q 532 200 482 200 q 626 224 585 200 q 692 291 667 249 q 717 386 717 333 l 717 972 l 947 972 l 947 374 q 894 176 947 263 q 746 41 840 90 q 532 -8 651 -8 m 408 1039 l 357 1150 l 647 1310 l 724 1147 l 408 1039 z "},"Ŭ":{"ha":1063,"x_min":115,"x_max":947,"o":"m 532 -8 q 317 41 411 -8 q 169 176 222 90 q 115 374 115 263 l 115 972 l 354 972 l 354 386 q 378 291 354 333 q 442 224 401 249 q 532 200 482 200 q 626 224 585 200 q 692 291 667 249 q 717 386 717 333 l 717 972 l 947 972 l 947 374 q 894 176 947 263 q 746 41 840 90 q 532 -8 651 -8 m 532 1051 q 418 1078 469 1051 q 331 1152 367 1104 q 283 1263 296 1200 l 425 1279 q 468 1219 439 1243 q 532 1196 497 1196 q 596 1219 567 1196 q 639 1279 625 1243 l 781 1263 q 733 1152 768 1200 q 647 1078 697 1104 q 532 1051 596 1051 z "},"Ǔ":{"ha":1063,"x_min":115,"x_max":947,"o":"m 532 -8 q 317 41 411 -8 q 169 176 222 90 q 115 374 115 263 l 115 972 l 354 972 l 354 386 q 378 291 354 333 q 442 224 401 249 q 532 200 482 200 q 626 224 585 200 q 692 291 667 249 q 717 386 717 333 l 717 972 l 947 972 l 947 374 q 894 176 947 263 q 746 41 840 90 q 532 -8 651 -8 m 465 1049 l 279 1197 l 349 1275 l 553 1178 l 511 1178 l 715 1275 l 785 1197 l 599 1049 l 465 1049 z "},"Û":{"ha":1063,"x_min":115,"x_max":947,"o":"m 532 -8 q 317 41 411 -8 q 169 176 222 90 q 115 374 115 263 l 115 972 l 354 972 l 354 386 q 378 291 354 333 q 442 224 401 249 q 532 200 482 200 q 626 224 585 200 q 692 291 667 249 q 717 386 717 333 l 717 972 l 947 972 l 947 374 q 894 176 947 263 q 746 41 840 90 q 532 -8 651 -8 m 347 1047 l 279 1126 l 468 1274 l 593 1274 l 782 1126 l 714 1047 l 510 1146 l 551 1146 l 347 1047 z "},"Ȕ":{"ha":1063,"x_min":115,"x_max":947,"o":"m 532 -8 q 317 41 411 -8 q 169 176 222 90 q 115 374 115 263 l 115 972 l 354 972 l 354 386 q 378 291 354 333 q 442 224 401 249 q 532 200 482 200 q 626 224 585 200 q 692 291 667 249 q 717 386 717 333 l 717 972 l 947 972 l 947 374 q 894 176 947 263 q 746 41 840 90 q 532 -8 651 -8 m 703 1032 l 467 1203 l 582 1333 l 779 1122 l 703 1032 m 394 1028 l 149 1194 l 263 1331 l 469 1122 l 394 1028 z "},"Ü":{"ha":1063,"x_min":115,"x_max":947,"o":"m 532 -8 q 317 41 411 -8 q 169 176 222 90 q 115 374 115 263 l 115 972 l 354 972 l 354 386 q 378 291 354 333 q 442 224 401 249 q 532 200 482 200 q 626 224 585 200 q 692 291 667 249 q 717 386 717 333 l 717 972 l 947 972 l 947 374 q 894 176 947 263 q 746 41 840 90 q 532 -8 651 -8 m 700 1047 q 610 1078 640 1047 q 579 1165 579 1110 q 611 1249 579 1215 q 700 1283 643 1283 q 790 1252 758 1283 q 821 1165 821 1221 q 789 1081 821 1115 q 700 1047 757 1047 m 363 1047 q 272 1078 303 1047 q 242 1165 242 1110 q 273 1249 242 1215 q 363 1283 304 1283 q 451 1252 421 1283 q 482 1165 482 1221 q 451 1081 482 1115 q 363 1047 419 1047 z "},"Ụ":{"ha":1063,"x_min":115,"x_max":947,"o":"m 532 -8 q 317 41 411 -8 q 169 176 222 90 q 115 374 115 263 l 115 972 l 354 972 l 354 386 q 378 291 354 333 q 442 224 401 249 q 532 200 482 200 q 626 224 585 200 q 692 291 667 249 q 717 386 717 333 l 717 972 l 947 972 l 947 374 q 894 176 947 263 q 746 41 840 90 q 532 -8 651 -8 m 532 -311 q 432 -280 468 -311 q 396 -193 396 -249 q 433 -108 396 -140 q 532 -75 469 -75 q 632 -106 596 -75 q 668 -193 668 -136 q 631 -278 668 -244 q 532 -311 594 -311 z "},"Ù":{"ha":1063,"x_min":115,"x_max":947,"o":"m 532 -8 q 317 41 411 -8 q 169 176 222 90 q 115 374 115 263 l 115 972 l 354 972 l 354 386 q 378 291 354 333 q 442 224 401 249 q 532 200 482 200 q 626 224 585 200 q 692 291 667 249 q 717 386 717 333 l 717 972 l 947 972 l 947 374 q 894 176 947 263 q 746 41 840 90 q 532 -8 651 -8 m 668 1039 l 353 1147 l 429 1310 l 719 1150 l 668 1039 z "},"Ủ":{"ha":1063,"x_min":115,"x_max":947,"o":"m 532 -8 q 317 41 411 -8 q 169 176 222 90 q 115 374 115 263 l 115 972 l 354 972 l 354 386 q 378 291 354 333 q 442 224 401 249 q 532 200 482 200 q 626 224 585 200 q 692 291 667 249 q 717 386 717 333 l 717 972 l 947 972 l 947 374 q 894 176 947 263 q 746 41 840 90 q 532 -8 651 -8 m 496 1036 q 478 1064 486 1049 q 469 1096 469 1079 q 478 1128 469 1113 q 513 1163 488 1144 q 543 1185 532 1175 q 554 1208 554 1194 q 542 1227 554 1221 q 513 1233 531 1233 q 454 1225 485 1233 q 393 1203 424 1217 l 361 1321 q 437 1349 392 1338 q 529 1361 482 1361 q 655 1327 608 1361 q 701 1236 701 1293 q 682 1167 701 1190 q 640 1129 663 1143 q 603 1103 618 1115 q 589 1076 589 1090 q 590 1067 589 1071 q 593 1057 592 1063 l 496 1036 z "},"Ư":{"ha":1063,"x_min":115,"x_max":1099,"o":"m 532 -8 q 317 41 411 -8 q 169 176 222 90 q 115 374 115 263 l 115 972 l 354 972 l 354 386 q 378 291 354 333 q 442 224 401 249 q 532 200 482 200 q 626 224 585 200 q 692 291 667 249 q 717 386 717 333 l 717 972 l 801 972 q 894 1017 865 972 q 924 1146 924 1063 l 1099 1146 q 1076 1010 1099 1072 q 1005 907 1053 947 q 882 858 957 867 l 947 924 l 947 374 q 894 176 947 263 q 746 41 840 90 q 532 -8 651 -8 z "},"Ứ":{"ha":1063,"x_min":115,"x_max":1099,"o":"m 532 -8 q 317 41 411 -8 q 169 176 222 90 q 115 374 115 263 l 115 972 l 354 972 l 354 386 q 378 291 354 333 q 442 224 401 249 q 532 200 482 200 q 626 224 585 200 q 692 291 667 249 q 717 386 717 333 l 717 972 l 801 972 q 894 1017 865 972 q 924 1146 924 1063 l 1099 1146 q 1076 1010 1099 1072 q 1005 907 1053 947 q 882 858 957 867 l 947 924 l 947 374 q 894 176 947 263 q 746 41 840 90 q 532 -8 651 -8 m 408 1039 l 357 1150 l 647 1310 l 724 1147 l 408 1039 z "},"Ự":{"ha":1063,"x_min":115,"x_max":1099,"o":"m 532 -8 q 317 41 411 -8 q 169 176 222 90 q 115 374 115 263 l 115 972 l 354 972 l 354 386 q 378 291 354 333 q 442 224 401 249 q 532 200 482 200 q 626 224 585 200 q 692 291 667 249 q 717 386 717 333 l 717 972 l 801 972 q 894 1017 865 972 q 924 1146 924 1063 l 1099 1146 q 1076 1010 1099 1072 q 1005 907 1053 947 q 882 858 957 867 l 947 924 l 947 374 q 894 176 947 263 q 746 41 840 90 q 532 -8 651 -8 m 532 -311 q 432 -280 468 -311 q 396 -193 396 -249 q 433 -108 396 -140 q 532 -75 469 -75 q 632 -106 596 -75 q 668 -193 668 -136 q 631 -278 668 -244 q 532 -311 594 -311 z "},"Ừ":{"ha":1063,"x_min":115,"x_max":1099,"o":"m 532 -8 q 317 41 411 -8 q 169 176 222 90 q 115 374 115 263 l 115 972 l 354 972 l 354 386 q 378 291 354 333 q 442 224 401 249 q 532 200 482 200 q 626 224 585 200 q 692 291 667 249 q 717 386 717 333 l 717 972 l 801 972 q 894 1017 865 972 q 924 1146 924 1063 l 1099 1146 q 1076 1010 1099 1072 q 1005 907 1053 947 q 882 858 957 867 l 947 924 l 947 374 q 894 176 947 263 q 746 41 840 90 q 532 -8 651 -8 m 668 1039 l 353 1147 l 429 1310 l 719 1150 l 668 1039 z "},"Ử":{"ha":1063,"x_min":115,"x_max":1099,"o":"m 532 -8 q 317 41 411 -8 q 169 176 222 90 q 115 374 115 263 l 115 972 l 354 972 l 354 386 q 378 291 354 333 q 442 224 401 249 q 532 200 482 200 q 626 224 585 200 q 692 291 667 249 q 717 386 717 333 l 717 972 l 801 972 q 894 1017 865 972 q 924 1146 924 1063 l 1099 1146 q 1076 1010 1099 1072 q 1005 907 1053 947 q 882 858 957 867 l 947 924 l 947 374 q 894 176 947 263 q 746 41 840 90 q 532 -8 651 -8 m 496 1036 q 478 1064 486 1049 q 469 1096 469 1079 q 478 1128 469 1113 q 513 1163 488 1144 q 543 1185 532 1175 q 554 1208 554 1194 q 542 1227 554 1221 q 513 1233 531 1233 q 454 1225 485 1233 q 393 1203 424 1217 l 361 1321 q 437 1349 392 1338 q 529 1361 482 1361 q 655 1327 608 1361 q 701 1236 701 1293 q 682 1167 701 1190 q 640 1129 663 1143 q 603 1103 618 1115 q 589 1076 589 1090 q 590 1067 589 1071 q 593 1057 592 1063 l 496 1036 z "},"Ữ":{"ha":1063,"x_min":115,"x_max":1099,"o":"m 532 -8 q 317 41 411 -8 q 169 176 222 90 q 115 374 115 263 l 115 972 l 354 972 l 354 386 q 378 291 354 333 q 442 224 401 249 q 532 200 482 200 q 626 224 585 200 q 692 291 667 249 q 717 386 717 333 l 717 972 l 801 972 q 894 1017 865 972 q 924 1146 924 1063 l 1099 1146 q 1076 1010 1099 1072 q 1005 907 1053 947 q 882 858 957 867 l 947 924 l 947 374 q 894 176 947 263 q 746 41 840 90 q 532 -8 651 -8 m 639 1067 q 583 1075 611 1067 q 522 1097 556 1083 q 480 1115 497 1110 q 449 1121 463 1121 q 417 1107 429 1121 q 406 1068 406 1093 l 267 1068 q 317 1212 267 1160 q 444 1264 368 1264 q 494 1257 469 1264 q 556 1233 518 1250 q 593 1217 578 1222 q 621 1211 608 1211 q 649 1226 639 1211 q 658 1264 660 1240 l 796 1264 q 776 1165 796 1211 q 721 1093 756 1119 q 639 1067 686 1067 z "},"Ű":{"ha":1063,"x_min":115,"x_max":947,"o":"m 532 -8 q 317 41 411 -8 q 169 176 222 90 q 115 374 115 263 l 115 972 l 354 972 l 354 386 q 378 291 354 333 q 442 224 401 249 q 532 200 482 200 q 626 224 585 200 q 692 291 667 249 q 717 386 717 333 l 717 972 l 947 972 l 947 374 q 894 176 947 263 q 746 41 840 90 q 532 -8 651 -8 m 363 1046 l 290 1143 l 500 1342 l 607 1206 l 363 1046 m 671 1043 l 601 1143 l 819 1339 l 926 1197 l 671 1043 z "},"Ȗ":{"ha":1063,"x_min":115,"x_max":947,"o":"m 532 -8 q 317 41 411 -8 q 169 176 222 90 q 115 374 115 263 l 115 972 l 354 972 l 354 386 q 378 291 354 333 q 442 224 401 249 q 532 200 482 200 q 626 224 585 200 q 692 291 667 249 q 717 386 717 333 l 717 972 l 947 972 l 947 374 q 894 176 947 263 q 746 41 840 90 q 532 -8 651 -8 m 425 1053 l 283 1069 q 331 1179 296 1132 q 418 1253 367 1226 q 532 1279 469 1279 q 647 1253 596 1279 q 733 1179 697 1226 q 781 1069 768 1132 l 639 1053 q 596 1111 625 1088 q 532 1135 567 1135 q 468 1111 497 1135 q 425 1053 439 1088 z "},"Ū":{"ha":1063,"x_min":115,"x_max":947,"o":"m 532 -8 q 317 41 411 -8 q 169 176 222 90 q 115 374 115 263 l 115 972 l 354 972 l 354 386 q 378 291 354 333 q 442 224 401 249 q 532 200 482 200 q 626 224 585 200 q 692 291 667 249 q 717 386 717 333 l 717 972 l 947 972 l 947 374 q 894 176 947 263 q 746 41 840 90 q 532 -8 651 -8 m 282 1096 l 282 1236 l 781 1236 l 781 1096 l 282 1096 z "},"Ṻ":{"ha":1063,"x_min":115,"x_max":947,"o":"m 532 -8 q 317 41 411 -8 q 169 176 222 90 q 115 374 115 263 l 115 972 l 354 972 l 354 386 q 378 291 354 333 q 442 224 401 249 q 532 200 482 200 q 626 224 585 200 q 692 291 667 249 q 717 386 717 333 l 717 972 l 947 972 l 947 374 q 894 176 947 263 q 746 41 840 90 q 532 -8 651 -8 m 282 1096 l 282 1236 l 781 1236 l 781 1096 l 282 1096 m 700 1311 q 610 1342 640 1311 q 579 1429 579 1374 q 611 1513 579 1479 q 700 1547 643 1547 q 790 1516 758 1547 q 821 1429 821 1485 q 789 1345 821 1379 q 700 1311 757 1311 m 363 1311 q 272 1342 303 1311 q 242 1429 242 1374 q 273 1513 242 1479 q 363 1547 304 1547 q 451 1516 421 1547 q 482 1429 482 1485 q 451 1345 482 1379 q 363 1311 419 1311 z "},"Ų":{"ha":1063,"x_min":115,"x_max":947,"o":"m 636 -293 q 520 -251 567 -293 q 474 -139 474 -208 q 494 -56 474 -94 q 551 16 514 -17 q 636 77 588 49 q 740 133 685 106 l 789 68 q 727 28 756 49 q 676 -12 699 8 q 641 -56 654 -33 q 628 -103 628 -78 q 639 -137 628 -124 q 667 -150 650 -150 q 692 -142 682 -150 q 713 -117 703 -133 l 810 -187 q 743 -261 789 -229 q 636 -293 697 -293 m 532 -8 q 317 41 411 -8 q 169 176 222 90 q 115 374 115 263 l 115 972 l 354 972 l 354 386 q 378 291 354 333 q 442 224 401 249 q 532 200 482 200 q 626 224 585 200 q 692 291 667 249 q 717 386 717 333 l 717 972 l 947 972 l 947 374 q 894 176 947 263 q 746 41 840 90 q 532 -8 651 -8 z "},"Ů":{"ha":1063,"x_min":115,"x_max":947,"o":"m 532 -8 q 317 41 411 -8 q 169 176 222 90 q 115 374 115 263 l 115 972 l 354 972 l 354 386 q 378 291 354 333 q 442 224 401 249 q 532 200 482 200 q 626 224 585 200 q 692 291 667 249 q 717 386 717 333 l 717 972 l 947 972 l 947 374 q 894 176 947 263 q 746 41 840 90 q 532 -8 651 -8 m 532 935 q 441 958 483 935 q 373 1021 399 982 q 347 1104 347 1060 q 373 1195 347 1154 q 440 1260 399 1236 q 532 1283 482 1283 q 622 1260 581 1283 q 690 1195 664 1236 q 715 1104 715 1154 q 690 1021 715 1060 q 622 958 664 982 q 532 935 581 935 m 532 1049 q 572 1065 556 1049 q 589 1104 589 1082 q 572 1147 589 1131 q 532 1163 554 1163 q 492 1147 508 1163 q 475 1104 475 1131 q 492 1065 475 1082 q 532 1049 508 1049 z "},"Ũ":{"ha":1063,"x_min":115,"x_max":947,"o":"m 532 -8 q 317 41 411 -8 q 169 176 222 90 q 115 374 115 263 l 115 972 l 354 972 l 354 386 q 378 291 354 333 q 442 224 401 249 q 532 200 482 200 q 626 224 585 200 q 692 291 667 249 q 717 386 717 333 l 717 972 l 947 972 l 947 374 q 894 176 947 263 q 746 41 840 90 q 532 -8 651 -8 m 639 1067 q 583 1075 611 1067 q 522 1097 556 1083 q 480 1115 497 1110 q 449 1121 463 1121 q 417 1107 429 1121 q 406 1068 406 1093 l 267 1068 q 317 1212 267 1160 q 444 1264 368 1264 q 494 1257 469 1264 q 556 1233 518 1250 q 593 1217 578 1222 q 621 1211 608 1211 q 649 1226 639 1211 q 658 1264 660 1240 l 796 1264 q 776 1165 796 1211 q 721 1093 756 1119 q 639 1067 686 1067 z "},"Ṹ":{"ha":1063,"x_min":115,"x_max":947,"o":"m 532 -8 q 317 41 411 -8 q 169 176 222 90 q 115 374 115 263 l 115 972 l 354 972 l 354 386 q 378 291 354 333 q 442 224 401 249 q 532 200 482 200 q 626 224 585 200 q 692 291 667 249 q 717 386 717 333 l 717 972 l 947 972 l 947 374 q 894 176 947 263 q 746 41 840 90 q 532 -8 651 -8 m 639 1067 q 583 1075 611 1067 q 522 1097 556 1083 q 480 1115 497 1110 q 449 1121 463 1121 q 417 1107 429 1121 q 406 1068 406 1093 l 267 1068 q 317 1212 267 1160 q 444 1264 368 1264 q 494 1257 469 1264 q 556 1233 518 1250 q 593 1217 578 1222 q 621 1211 608 1211 q 649 1226 639 1211 q 658 1264 660 1240 l 796 1264 q 776 1165 796 1211 q 721 1093 756 1119 q 639 1067 686 1067 m 408 1303 l 357 1414 l 647 1574 l 724 1411 l 408 1303 z "},"V":{"ha":989,"x_min":6,"x_max":983,"o":"m 394 0 l 6 972 l 251 972 l 439 476 q 467 401 456 433 q 488 342 479 369 q 505 285 497 314 q 522 221 513 257 l 479 221 q 501 305 490 268 q 526 381 513 342 q 561 476 540 421 l 742 972 l 983 972 l 592 0 l 394 0 z "},"W":{"ha":1379,"x_min":6,"x_max":1372,"o":"m 297 0 l 6 972 l 246 972 l 392 461 q 409 391 401 426 q 422 324 417 356 q 429 265 426 292 q 435 219 432 238 l 404 219 q 419 311 413 271 q 433 387 425 351 q 454 461 442 422 l 599 846 l 788 846 l 929 461 q 957 375 946 415 q 974 298 968 335 q 985 225 981 261 l 957 221 q 961 267 960 246 q 965 309 963 289 q 969 351 967 329 q 978 401 972 374 q 993 463 983 428 l 1138 972 l 1372 972 l 1081 0 l 900 0 l 669 560 l 696 557 l 483 0 l 297 0 z "},"Ẃ":{"ha":1379,"x_min":6,"x_max":1372,"o":"m 297 0 l 6 972 l 246 972 l 392 461 q 409 391 401 426 q 422 324 417 356 q 429 265 426 292 q 435 219 432 238 l 404 219 q 419 311 413 271 q 433 387 425 351 q 454 461 442 422 l 599 846 l 788 846 l 929 461 q 957 375 946 415 q 974 298 968 335 q 985 225 981 261 l 957 221 q 961 267 960 246 q 965 309 963 289 q 969 351 967 329 q 978 401 972 374 q 993 463 983 428 l 1138 972 l 1372 972 l 1081 0 l 900 0 l 669 560 l 696 557 l 483 0 l 297 0 m 567 1039 l 515 1150 l 806 1310 l 882 1147 l 567 1039 z "},"Ŵ":{"ha":1379,"x_min":6,"x_max":1372,"o":"m 297 0 l 6 972 l 246 972 l 392 461 q 409 391 401 426 q 422 324 417 356 q 429 265 426 292 q 435 219 432 238 l 404 219 q 419 311 413 271 q 433 387 425 351 q 454 461 442 422 l 599 846 l 788 846 l 929 461 q 957 375 946 415 q 974 298 968 335 q 985 225 981 261 l 957 221 q 961 267 960 246 q 965 309 963 289 q 969 351 967 329 q 978 401 972 374 q 993 463 983 428 l 1138 972 l 1372 972 l 1081 0 l 900 0 l 669 560 l 696 557 l 483 0 l 297 0 m 506 1047 l 438 1126 l 626 1274 l 751 1274 l 940 1126 l 872 1047 l 668 1146 l 710 1146 l 506 1047 z "},"Ẅ":{"ha":1379,"x_min":6,"x_max":1372,"o":"m 297 0 l 6 972 l 246 972 l 392 461 q 409 391 401 426 q 422 324 417 356 q 429 265 426 292 q 435 219 432 238 l 404 219 q 419 311 413 271 q 433 387 425 351 q 454 461 442 422 l 599 846 l 788 846 l 929 461 q 957 375 946 415 q 974 298 968 335 q 985 225 981 261 l 957 221 q 961 267 960 246 q 965 309 963 289 q 969 351 967 329 q 978 401 972 374 q 993 463 983 428 l 1138 972 l 1372 972 l 1081 0 l 900 0 l 669 560 l 696 557 l 483 0 l 297 0 m 858 1047 q 768 1078 799 1047 q 738 1165 738 1110 q 769 1249 738 1215 q 858 1283 801 1283 q 948 1252 917 1283 q 979 1165 979 1221 q 947 1081 979 1115 q 858 1047 915 1047 m 521 1047 q 431 1078 461 1047 q 400 1165 400 1110 q 431 1249 400 1215 q 521 1283 463 1283 q 610 1252 579 1283 q 640 1165 640 1221 q 609 1081 640 1115 q 521 1047 578 1047 z "},"Ẁ":{"ha":1379,"x_min":6,"x_max":1372,"o":"m 297 0 l 6 972 l 246 972 l 392 461 q 409 391 401 426 q 422 324 417 356 q 429 265 426 292 q 435 219 432 238 l 404 219 q 419 311 413 271 q 433 387 425 351 q 454 461 442 422 l 599 846 l 788 846 l 929 461 q 957 375 946 415 q 974 298 968 335 q 985 225 981 261 l 957 221 q 961 267 960 246 q 965 309 963 289 q 969 351 967 329 q 978 401 972 374 q 993 463 983 428 l 1138 972 l 1372 972 l 1081 0 l 900 0 l 669 560 l 696 557 l 483 0 l 297 0 m 825 1039 l 510 1147 l 586 1310 l 876 1150 l 825 1039 z "},"X":{"ha":979,"x_min":-1,"x_max":981,"o":"m 693 0 l 392 436 l 6 972 l 293 972 l 588 542 l 981 0 l 693 0 m -1 0 l 369 529 l 560 419 l 272 0 l -1 0 m 610 451 l 421 557 l 693 972 l 967 972 l 610 451 z "},"Y":{"ha":957,"x_min":-10,"x_max":967,"o":"m 374 0 l 374 485 l 383 417 l -10 972 l 258 972 l 558 542 l 436 546 l 707 972 l 967 972 l 590 401 l 611 496 l 611 0 l 374 0 z "},"Ý":{"ha":957,"x_min":-10,"x_max":967,"o":"m 374 0 l 374 485 l 383 417 l -10 972 l 258 972 l 558 542 l 436 546 l 707 972 l 967 972 l 590 401 l 611 496 l 611 0 l 374 0 m 356 1039 l 304 1150 l 594 1310 l 671 1147 l 356 1039 z "},"Ŷ":{"ha":957,"x_min":-10,"x_max":967,"o":"m 374 0 l 374 485 l 383 417 l -10 972 l 258 972 l 558 542 l 436 546 l 707 972 l 967 972 l 590 401 l 611 496 l 611 0 l 374 0 m 294 1047 l 226 1126 l 415 1274 l 540 1274 l 729 1126 l 661 1047 l 457 1146 l 499 1146 l 294 1047 z "},"Ÿ":{"ha":957,"x_min":-10,"x_max":967,"o":"m 374 0 l 374 485 l 383 417 l -10 972 l 258 972 l 558 542 l 436 546 l 707 972 l 967 972 l 590 401 l 611 496 l 611 0 l 374 0 m 647 1047 q 557 1078 588 1047 q 526 1165 526 1110 q 558 1249 526 1215 q 647 1283 590 1283 q 737 1252 706 1283 q 768 1165 768 1221 q 736 1081 768 1115 q 647 1047 704 1047 m 310 1047 q 219 1078 250 1047 q 189 1165 189 1110 q 220 1249 189 1215 q 310 1283 251 1283 q 399 1252 368 1283 q 429 1165 429 1221 q 398 1081 429 1115 q 310 1047 367 1047 z "},"Ẏ":{"ha":957,"x_min":-10,"x_max":967,"o":"m 374 0 l 374 485 l 383 417 l -10 972 l 258 972 l 558 542 l 436 546 l 707 972 l 967 972 l 590 401 l 611 496 l 611 0 l 374 0 m 478 1050 q 380 1081 414 1050 q 346 1165 346 1111 q 381 1247 346 1214 q 478 1281 415 1281 q 576 1250 542 1281 q 610 1165 610 1219 q 575 1083 610 1117 q 478 1050 540 1050 z "},"Ỵ":{"ha":957,"x_min":-10,"x_max":967,"o":"m 374 0 l 374 485 l 383 417 l -10 972 l 258 972 l 558 542 l 436 546 l 707 972 l 967 972 l 590 401 l 611 496 l 611 0 l 374 0 m 478 -311 q 378 -280 414 -311 q 342 -193 342 -249 q 378 -108 342 -140 q 478 -75 415 -75 q 578 -106 542 -75 q 614 -193 614 -136 q 577 -278 614 -244 q 478 -311 540 -311 z "},"Ỳ":{"ha":957,"x_min":-10,"x_max":967,"o":"m 374 0 l 374 485 l 383 417 l -10 972 l 258 972 l 558 542 l 436 546 l 707 972 l 967 972 l 590 401 l 611 496 l 611 0 l 374 0 m 615 1039 l 300 1147 l 376 1310 l 667 1150 l 615 1039 z "},"Ỷ":{"ha":957,"x_min":-10,"x_max":967,"o":"m 374 0 l 374 485 l 383 417 l -10 972 l 258 972 l 558 542 l 436 546 l 707 972 l 967 972 l 590 401 l 611 496 l 611 0 l 374 0 m 443 1036 q 425 1064 433 1049 q 417 1096 417 1079 q 426 1128 417 1113 q 460 1163 435 1144 q 490 1185 479 1175 q 501 1208 501 1194 q 490 1227 501 1221 q 460 1233 478 1233 q 401 1225 432 1233 q 340 1203 371 1217 l 308 1321 q 384 1349 339 1338 q 476 1361 429 1361 q 602 1327 556 1361 q 649 1236 649 1293 q 629 1167 649 1190 q 588 1129 610 1143 q 551 1103 565 1115 q 536 1076 536 1090 q 538 1067 536 1071 q 540 1057 539 1063 l 443 1036 z "},"Ȳ":{"ha":957,"x_min":-10,"x_max":967,"o":"m 374 0 l 374 485 l 383 417 l -10 972 l 258 972 l 558 542 l 436 546 l 707 972 l 967 972 l 590 401 l 611 496 l 611 0 l 374 0 m 228 1096 l 228 1236 l 726 1236 l 726 1096 l 228 1096 z "},"Ỹ":{"ha":957,"x_min":-10,"x_max":967,"o":"m 374 0 l 374 485 l 383 417 l -10 972 l 258 972 l 558 542 l 436 546 l 707 972 l 967 972 l 590 401 l 611 496 l 611 0 l 374 0 m 585 1067 q 529 1075 557 1067 q 468 1097 501 1083 q 426 1115 443 1110 q 394 1121 408 1121 q 363 1107 375 1121 q 351 1068 351 1093 l 213 1068 q 263 1212 213 1160 q 390 1264 314 1264 q 440 1257 415 1264 q 501 1233 464 1250 q 539 1217 524 1222 q 567 1211 554 1211 q 595 1226 585 1211 q 604 1264 606 1240 l 742 1264 q 722 1165 742 1211 q 667 1093 701 1119 q 585 1067 632 1067 z "},"Z":{"ha":949,"x_min":83,"x_max":868,"o":"m 83 0 l 83 157 l 606 851 l 688 756 l 119 756 l 119 972 l 853 972 l 853 817 l 333 121 l 250 207 l 868 207 l 868 0 l 83 0 z "},"Ź":{"ha":949,"x_min":83,"x_max":868,"o":"m 83 0 l 83 157 l 606 851 l 688 756 l 119 756 l 119 972 l 853 972 l 853 817 l 333 121 l 250 207 l 868 207 l 868 0 l 83 0 m 353 1039 l 301 1150 l 592 1310 l 668 1147 l 353 1039 z "},"Ž":{"ha":949,"x_min":83,"x_max":868,"o":"m 83 0 l 83 157 l 606 851 l 688 756 l 119 756 l 119 972 l 853 972 l 853 817 l 333 121 l 250 207 l 868 207 l 868 0 l 83 0 m 408 1049 l 222 1197 l 292 1275 l 496 1178 l 454 1178 l 658 1275 l 728 1197 l 542 1049 l 408 1049 z "},"Ż":{"ha":949,"x_min":83,"x_max":868,"o":"m 83 0 l 83 157 l 606 851 l 688 756 l 119 756 l 119 972 l 853 972 l 853 817 l 333 121 l 250 207 l 868 207 l 868 0 l 83 0 m 475 1050 q 377 1081 411 1050 q 343 1165 343 1111 q 378 1247 343 1214 q 475 1281 413 1281 q 573 1250 539 1281 q 607 1165 607 1219 q 572 1083 607 1117 q 475 1050 538 1050 z "},"Ẓ":{"ha":949,"x_min":83,"x_max":868,"o":"m 83 0 l 83 157 l 606 851 l 688 756 l 119 756 l 119 972 l 853 972 l 853 817 l 333 121 l 250 207 l 868 207 l 868 0 l 83 0 m 475 -311 q 375 -280 411 -311 q 339 -193 339 -249 q 376 -108 339 -140 q 475 -75 413 -75 q 575 -106 539 -75 q 611 -193 611 -136 q 574 -278 611 -244 q 475 -311 538 -311 z "},"a":{"ha":915,"x_min":46,"x_max":818,"o":"m 371 -12 q 205 37 278 -12 q 89 173 132 86 q 46 369 46 260 q 89 568 46 482 q 207 703 132 654 q 378 753 282 753 q 474 738 431 753 q 551 695 518 722 q 608 633 585 668 q 643 557 632 597 l 597 563 l 597 738 l 818 738 l 818 0 l 593 0 l 593 178 l 643 179 q 607 106 632 140 q 546 44 582 71 q 465 3 510 18 q 371 -12 421 -12 m 432 175 q 521 199 483 175 q 579 266 558 222 q 600 369 600 310 q 579 473 600 429 q 521 541 558 517 q 432 565 483 565 q 345 541 382 565 q 288 473 308 517 q 267 369 267 429 q 288 266 267 310 q 345 199 308 222 q 432 175 382 175 z "},"á":{"ha":915,"x_min":46,"x_max":818,"o":"m 371 -12 q 205 37 278 -12 q 89 173 132 86 q 46 369 46 260 q 89 568 46 482 q 207 703 132 654 q 378 753 282 753 q 474 738 431 753 q 551 695 518 722 q 608 633 585 668 q 643 557 632 597 l 597 563 l 597 738 l 818 738 l 818 0 l 593 0 l 593 178 l 643 179 q 607 106 632 140 q 546 44 582 71 q 465 3 510 18 q 371 -12 421 -12 m 432 175 q 521 199 483 175 q 579 266 558 222 q 600 369 600 310 q 579 473 600 429 q 521 541 558 517 q 432 565 483 565 q 345 541 382 565 q 288 473 308 517 q 267 369 267 429 q 288 266 267 310 q 345 199 308 222 q 432 175 382 175 m 349 818 l 283 919 l 532 1117 l 633 971 l 349 818 z "},"ă":{"ha":915,"x_min":46,"x_max":818,"o":"m 371 -12 q 205 37 278 -12 q 89 173 132 86 q 46 369 46 260 q 89 568 46 482 q 207 703 132 654 q 378 753 282 753 q 474 738 431 753 q 551 695 518 722 q 608 633 585 668 q 643 557 632 597 l 597 563 l 597 738 l 818 738 l 818 0 l 593 0 l 593 178 l 643 179 q 607 106 632 140 q 546 44 582 71 q 465 3 510 18 q 371 -12 421 -12 m 432 175 q 521 199 483 175 q 579 266 558 222 q 600 369 600 310 q 579 473 600 429 q 521 541 558 517 q 432 565 483 565 q 345 541 382 565 q 288 473 308 517 q 267 369 267 429 q 288 266 267 310 q 345 199 308 222 q 432 175 382 175 m 458 835 q 296 894 363 835 q 210 1057 229 954 l 351 1074 q 395 1005 367 1031 q 458 979 424 979 q 522 1005 493 979 q 565 1074 550 1031 l 707 1057 q 621 894 688 954 q 458 835 554 835 z "},"ắ":{"ha":915,"x_min":46,"x_max":818,"o":"m 371 -12 q 205 37 278 -12 q 89 173 132 86 q 46 369 46 260 q 89 568 46 482 q 207 703 132 654 q 378 753 282 753 q 474 738 431 753 q 551 695 518 722 q 608 633 585 668 q 643 557 632 597 l 597 563 l 597 738 l 818 738 l 818 0 l 593 0 l 593 178 l 643 179 q 607 106 632 140 q 546 44 582 71 q 465 3 510 18 q 371 -12 421 -12 m 432 175 q 521 199 483 175 q 579 266 558 222 q 600 369 600 310 q 579 473 600 429 q 521 541 558 517 q 432 565 483 565 q 345 541 382 565 q 288 473 308 517 q 267 369 267 429 q 288 266 267 310 q 345 199 308 222 q 432 175 382 175 m 458 825 q 296 878 363 825 q 210 1022 229 931 l 346 1039 q 393 979 363 997 q 458 961 424 961 q 524 979 493 961 q 571 1039 554 997 l 707 1022 q 621 878 688 931 q 458 825 554 825 m 471 1069 l 383 1132 l 514 1360 l 654 1260 l 471 1069 z "},"ặ":{"ha":915,"x_min":46,"x_max":818,"o":"m 371 -12 q 205 37 278 -12 q 89 173 132 86 q 46 369 46 260 q 89 568 46 482 q 207 703 132 654 q 378 753 282 753 q 474 738 431 753 q 551 695 518 722 q 608 633 585 668 q 643 557 632 597 l 597 563 l 597 738 l 818 738 l 818 0 l 593 0 l 593 178 l 643 179 q 607 106 632 140 q 546 44 582 71 q 465 3 510 18 q 371 -12 421 -12 m 432 175 q 521 199 483 175 q 579 266 558 222 q 600 369 600 310 q 579 473 600 429 q 521 541 558 517 q 432 565 483 565 q 345 541 382 565 q 288 473 308 517 q 267 369 267 429 q 288 266 267 310 q 345 199 308 222 q 432 175 382 175 m 458 -311 q 358 -280 394 -311 q 322 -193 322 -249 q 359 -108 322 -140 q 458 -75 396 -75 q 558 -106 522 -75 q 594 -193 594 -136 q 558 -278 594 -244 q 458 -311 521 -311 m 458 835 q 296 894 363 835 q 210 1057 229 954 l 351 1074 q 395 1005 367 1031 q 458 979 424 979 q 522 1005 493 979 q 565 1074 550 1031 l 707 1057 q 621 894 688 954 q 458 835 554 835 z "},"ằ":{"ha":915,"x_min":46,"x_max":818,"o":"m 371 -12 q 205 37 278 -12 q 89 173 132 86 q 46 369 46 260 q 89 568 46 482 q 207 703 132 654 q 378 753 282 753 q 474 738 431 753 q 551 695 518 722 q 608 633 585 668 q 643 557 632 597 l 597 563 l 597 738 l 818 738 l 818 0 l 593 0 l 593 178 l 643 179 q 607 106 632 140 q 546 44 582 71 q 465 3 510 18 q 371 -12 421 -12 m 432 175 q 521 199 483 175 q 579 266 558 222 q 600 369 600 310 q 579 473 600 429 q 521 541 558 517 q 432 565 483 565 q 345 541 382 565 q 288 473 308 517 q 267 369 267 429 q 288 266 267 310 q 345 199 308 222 q 432 175 382 175 m 458 825 q 296 878 363 825 q 210 1029 229 932 l 346 1046 q 393 981 363 1000 q 458 961 424 961 q 524 981 493 961 q 571 1046 554 1000 l 707 1029 q 622 879 688 933 q 458 825 556 825 m 458 1068 l 272 1260 l 411 1360 l 543 1132 l 458 1068 z "},"ẳ":{"ha":915,"x_min":46,"x_max":818,"o":"m 371 -12 q 205 37 278 -12 q 89 173 132 86 q 46 369 46 260 q 89 568 46 482 q 207 703 132 654 q 378 753 282 753 q 474 738 431 753 q 551 695 518 722 q 608 633 585 668 q 643 557 632 597 l 597 563 l 597 738 l 818 738 l 818 0 l 593 0 l 593 178 l 643 179 q 607 106 632 140 q 546 44 582 71 q 465 3 510 18 q 371 -12 421 -12 m 432 175 q 521 199 483 175 q 579 266 558 222 q 600 369 600 310 q 579 473 600 429 q 521 541 558 517 q 432 565 483 565 q 345 541 382 565 q 288 473 308 517 q 267 369 267 429 q 288 266 267 310 q 345 199 308 222 q 432 175 382 175 m 458 825 q 296 878 363 825 q 210 1029 229 932 l 346 1046 q 393 981 363 1000 q 458 961 424 961 q 524 981 493 961 q 571 1046 554 1000 l 707 1029 q 622 879 688 933 q 458 825 556 825 m 422 1067 q 403 1094 410 1079 q 397 1124 397 1108 q 404 1151 397 1138 q 433 1179 411 1164 q 460 1200 449 1190 q 471 1219 471 1210 q 458 1240 471 1233 q 425 1247 446 1247 q 369 1239 399 1247 q 310 1219 339 1231 l 281 1338 q 351 1365 308 1354 q 442 1375 394 1375 q 570 1340 522 1375 q 618 1247 618 1306 q 598 1181 618 1203 q 553 1146 578 1158 q 517 1124 531 1135 q 503 1099 503 1113 q 503 1092 503 1096 q 504 1086 503 1089 l 422 1067 z "},"ẵ":{"ha":915,"x_min":46,"x_max":818,"o":"m 371 -12 q 205 37 278 -12 q 89 173 132 86 q 46 369 46 260 q 89 568 46 482 q 207 703 132 654 q 378 753 282 753 q 474 738 431 753 q 551 695 518 722 q 608 633 585 668 q 643 557 632 597 l 597 563 l 597 738 l 818 738 l 818 0 l 593 0 l 593 178 l 643 179 q 607 106 632 140 q 546 44 582 71 q 465 3 510 18 q 371 -12 421 -12 m 432 175 q 521 199 483 175 q 579 266 558 222 q 600 369 600 310 q 579 473 600 429 q 521 541 558 517 q 432 565 483 565 q 345 541 382 565 q 288 473 308 517 q 267 369 267 429 q 288 266 267 310 q 345 199 308 222 q 432 175 382 175 m 460 825 q 297 878 363 825 q 210 1029 231 932 l 347 1046 q 394 981 364 1000 q 460 961 425 961 q 524 981 493 961 q 571 1046 554 1000 l 708 1029 q 622 879 689 933 q 460 825 556 825 m 568 1153 q 511 1162 539 1153 q 451 1183 483 1171 q 414 1198 431 1193 q 385 1203 397 1203 q 350 1190 365 1203 q 331 1153 335 1178 l 207 1171 q 250 1290 208 1240 q 358 1340 292 1340 q 410 1332 383 1340 q 465 1311 436 1324 q 503 1297 486 1303 q 535 1290 519 1290 q 569 1303 554 1290 q 586 1342 583 1317 l 711 1324 q 692 1240 710 1279 q 643 1177 675 1201 q 568 1153 611 1153 z "},"ǎ":{"ha":915,"x_min":46,"x_max":818,"o":"m 371 -12 q 205 37 278 -12 q 89 173 132 86 q 46 369 46 260 q 89 568 46 482 q 207 703 132 654 q 378 753 282 753 q 474 738 431 753 q 551 695 518 722 q 608 633 585 668 q 643 557 632 597 l 597 563 l 597 738 l 818 738 l 818 0 l 593 0 l 593 178 l 643 179 q 607 106 632 140 q 546 44 582 71 q 465 3 510 18 q 371 -12 421 -12 m 432 175 q 521 199 483 175 q 579 266 558 222 q 600 369 600 310 q 579 473 600 429 q 521 541 558 517 q 432 565 483 565 q 345 541 382 565 q 288 473 308 517 q 267 369 267 429 q 288 266 267 310 q 345 199 308 222 q 432 175 382 175 m 392 843 l 197 1022 l 278 1092 l 479 972 l 438 972 l 639 1092 l 719 1022 l 525 843 l 392 843 z "},"â":{"ha":915,"x_min":46,"x_max":818,"o":"m 371 -12 q 205 37 278 -12 q 89 173 132 86 q 46 369 46 260 q 89 568 46 482 q 207 703 132 654 q 378 753 282 753 q 474 738 431 753 q 551 695 518 722 q 608 633 585 668 q 643 557 632 597 l 597 563 l 597 738 l 818 738 l 818 0 l 593 0 l 593 178 l 643 179 q 607 106 632 140 q 546 44 582 71 q 465 3 510 18 q 371 -12 421 -12 m 432 175 q 521 199 483 175 q 579 266 558 222 q 600 369 600 310 q 579 473 600 429 q 521 541 558 517 q 432 565 483 565 q 345 541 382 565 q 288 473 308 517 q 267 369 267 429 q 288 266 267 310 q 345 199 308 222 q 432 175 382 175 m 272 835 l 192 904 l 392 1083 l 525 1083 l 725 904 l 644 835 l 438 954 l 479 954 l 272 835 z "},"ấ":{"ha":915,"x_min":46,"x_max":908,"o":"m 371 -12 q 205 37 278 -12 q 89 173 132 86 q 46 369 46 260 q 89 568 46 482 q 207 703 132 654 q 378 753 282 753 q 474 738 431 753 q 551 695 518 722 q 608 633 585 668 q 643 557 632 597 l 597 563 l 597 738 l 818 738 l 818 0 l 593 0 l 593 178 l 643 179 q 607 106 632 140 q 546 44 582 71 q 465 3 510 18 q 371 -12 421 -12 m 432 175 q 521 199 483 175 q 579 266 558 222 q 600 369 600 310 q 579 473 600 429 q 521 541 558 517 q 432 565 483 565 q 345 541 382 565 q 288 473 308 517 q 267 369 267 429 q 288 266 267 310 q 345 199 308 222 q 432 175 382 175 m 275 836 l 210 910 l 393 1060 l 525 1060 l 710 910 l 643 836 l 439 931 l 481 931 l 275 836 m 728 1047 l 639 1110 l 771 1338 l 910 1239 l 728 1047 z "},"ậ":{"ha":915,"x_min":46,"x_max":818,"o":"m 371 -12 q 205 37 278 -12 q 89 173 132 86 q 46 369 46 260 q 89 568 46 482 q 207 703 132 654 q 378 753 282 753 q 474 738 431 753 q 551 695 518 722 q 608 633 585 668 q 643 557 632 597 l 597 563 l 597 738 l 818 738 l 818 0 l 593 0 l 593 178 l 643 179 q 607 106 632 140 q 546 44 582 71 q 465 3 510 18 q 371 -12 421 -12 m 432 175 q 521 199 483 175 q 579 266 558 222 q 600 369 600 310 q 579 473 600 429 q 521 541 558 517 q 432 565 483 565 q 345 541 382 565 q 288 473 308 517 q 267 369 267 429 q 288 266 267 310 q 345 199 308 222 q 432 175 382 175 m 458 -311 q 358 -280 394 -311 q 322 -193 322 -249 q 359 -108 322 -140 q 458 -75 396 -75 q 558 -106 522 -75 q 594 -193 594 -136 q 558 -278 594 -244 q 458 -311 521 -311 m 272 835 l 192 904 l 392 1083 l 525 1083 l 725 904 l 644 835 l 438 954 l 479 954 l 272 835 z "},"ầ":{"ha":915,"x_min":46,"x_max":818,"o":"m 371 -12 q 205 37 278 -12 q 89 173 132 86 q 46 369 46 260 q 89 568 46 482 q 207 703 132 654 q 378 753 282 753 q 474 738 431 753 q 551 695 518 722 q 608 633 585 668 q 643 557 632 597 l 597 563 l 597 738 l 818 738 l 818 0 l 593 0 l 593 178 l 643 179 q 607 106 632 140 q 546 44 582 71 q 465 3 510 18 q 371 -12 421 -12 m 432 175 q 521 199 483 175 q 579 266 558 222 q 600 369 600 310 q 579 473 600 429 q 521 541 558 517 q 432 565 483 565 q 345 541 382 565 q 288 473 308 517 q 267 369 267 429 q 288 266 267 310 q 345 199 308 222 q 432 175 382 175 m 275 835 l 208 910 l 393 1058 l 525 1058 l 708 910 l 643 835 l 438 929 l 479 929 l 275 835 m 694 1046 l 510 1238 l 649 1338 l 781 1108 l 694 1046 z "},"ẩ":{"ha":915,"x_min":46,"x_max":871,"o":"m 371 -12 q 205 37 278 -12 q 89 173 132 86 q 46 369 46 260 q 89 568 46 482 q 207 703 132 654 q 378 753 282 753 q 474 738 431 753 q 551 695 518 722 q 608 633 585 668 q 643 557 632 597 l 597 563 l 597 738 l 818 738 l 818 0 l 593 0 l 593 178 l 643 179 q 607 106 632 140 q 546 44 582 71 q 465 3 510 18 q 371 -12 421 -12 m 432 175 q 521 199 483 175 q 579 266 558 222 q 600 369 600 310 q 579 473 600 429 q 521 541 558 517 q 432 565 483 565 q 345 541 382 565 q 288 473 308 517 q 267 369 267 429 q 288 266 267 310 q 345 199 308 222 q 432 175 382 175 m 274 836 l 207 910 l 392 1060 l 524 1060 l 708 910 l 642 836 l 438 931 l 479 931 l 274 836 m 674 1036 q 656 1063 663 1049 q 649 1093 649 1078 q 656 1121 649 1107 q 685 1149 663 1135 q 712 1169 701 1160 q 722 1190 722 1179 q 710 1210 722 1203 q 678 1217 697 1217 q 621 1209 650 1217 q 561 1189 592 1201 l 532 1307 q 604 1333 561 1322 q 693 1344 647 1344 q 822 1310 774 1344 q 871 1217 871 1275 q 850 1151 871 1174 q 804 1115 829 1129 q 769 1094 783 1104 q 754 1068 754 1083 q 754 1063 754 1065 q 756 1056 754 1060 l 674 1036 z "},"ẫ":{"ha":915,"x_min":46,"x_max":818,"o":"m 371 -12 q 205 37 278 -12 q 89 173 132 86 q 46 369 46 260 q 89 568 46 482 q 207 703 132 654 q 378 753 282 753 q 474 738 431 753 q 551 695 518 722 q 608 633 585 668 q 643 557 632 597 l 597 563 l 597 738 l 818 738 l 818 0 l 593 0 l 593 178 l 643 179 q 607 106 632 140 q 546 44 582 71 q 465 3 510 18 q 371 -12 421 -12 m 432 175 q 521 199 483 175 q 579 266 558 222 q 600 369 600 310 q 579 473 600 429 q 521 541 558 517 q 432 565 483 565 q 345 541 382 565 q 288 473 308 517 q 267 369 267 429 q 288 266 267 310 q 345 199 308 222 q 432 175 382 175 m 274 836 l 208 910 l 392 1060 l 524 1060 l 707 910 l 642 836 l 438 931 l 479 931 l 274 836 m 567 1147 q 510 1156 538 1147 q 450 1178 482 1164 q 413 1192 429 1186 q 383 1197 396 1197 q 349 1185 364 1197 q 329 1147 333 1172 l 206 1164 q 249 1285 207 1235 q 357 1335 290 1335 q 408 1326 382 1335 q 464 1306 435 1318 q 501 1290 485 1296 q 533 1285 518 1285 q 567 1298 553 1285 q 585 1335 582 1311 l 710 1317 q 691 1235 708 1274 q 642 1172 674 1196 q 567 1147 610 1147 z "},"ȁ":{"ha":915,"x_min":46,"x_max":818,"o":"m 371 -12 q 205 37 278 -12 q 89 173 132 86 q 46 369 46 260 q 89 568 46 482 q 207 703 132 654 q 378 753 282 753 q 474 738 431 753 q 551 695 518 722 q 608 633 585 668 q 643 557 632 597 l 597 563 l 597 738 l 818 738 l 818 0 l 593 0 l 593 178 l 643 179 q 607 106 632 140 q 546 44 582 71 q 465 3 510 18 q 371 -12 421 -12 m 432 175 q 521 199 483 175 q 579 266 558 222 q 600 369 600 310 q 579 473 600 429 q 521 541 558 517 q 432 565 483 565 q 345 541 382 565 q 288 473 308 517 q 267 369 267 429 q 288 266 267 310 q 345 199 308 222 q 432 175 382 175 m 593 815 l 357 1010 l 489 1126 l 686 882 l 593 815 m 307 819 l 60 1000 l 185 1125 l 396 890 l 307 819 z "},"ä":{"ha":915,"x_min":46,"x_max":818,"o":"m 371 -12 q 205 37 278 -12 q 89 173 132 86 q 46 369 46 260 q 89 568 46 482 q 207 703 132 654 q 378 753 282 753 q 474 738 431 753 q 551 695 518 722 q 608 633 585 668 q 643 557 632 597 l 597 563 l 597 738 l 818 738 l 818 0 l 593 0 l 593 178 l 643 179 q 607 106 632 140 q 546 44 582 71 q 465 3 510 18 q 371 -12 421 -12 m 432 175 q 521 199 483 175 q 579 266 558 222 q 600 369 600 310 q 579 473 600 429 q 521 541 558 517 q 432 565 483 565 q 345 541 382 565 q 288 473 308 517 q 267 369 267 429 q 288 266 267 310 q 345 199 308 222 q 432 175 382 175 m 626 878 q 537 908 568 878 q 506 996 506 939 q 538 1081 506 1049 q 626 1114 571 1114 q 715 1083 683 1114 q 746 996 746 1053 q 714 910 746 943 q 626 878 682 878 m 292 878 q 202 908 233 878 q 171 996 171 939 q 203 1081 171 1049 q 292 1114 236 1114 q 381 1083 350 1114 q 413 996 413 1053 q 380 910 413 943 q 292 878 347 878 z "},"ạ":{"ha":915,"x_min":46,"x_max":818,"o":"m 371 -12 q 205 37 278 -12 q 89 173 132 86 q 46 369 46 260 q 89 568 46 482 q 207 703 132 654 q 378 753 282 753 q 474 738 431 753 q 551 695 518 722 q 608 633 585 668 q 643 557 632 597 l 597 563 l 597 738 l 818 738 l 818 0 l 593 0 l 593 178 l 643 179 q 607 106 632 140 q 546 44 582 71 q 465 3 510 18 q 371 -12 421 -12 m 432 175 q 521 199 483 175 q 579 266 558 222 q 600 369 600 310 q 579 473 600 429 q 521 541 558 517 q 432 565 483 565 q 345 541 382 565 q 288 473 308 517 q 267 369 267 429 q 288 266 267 310 q 345 199 308 222 q 432 175 382 175 m 458 -311 q 358 -280 394 -311 q 322 -193 322 -249 q 359 -108 322 -140 q 458 -75 396 -75 q 558 -106 522 -75 q 594 -193 594 -136 q 558 -278 594 -244 q 458 -311 521 -311 z "},"à":{"ha":915,"x_min":46,"x_max":818,"o":"m 371 -12 q 205 37 278 -12 q 89 173 132 86 q 46 369 46 260 q 89 568 46 482 q 207 703 132 654 q 378 753 282 753 q 474 738 431 753 q 551 695 518 722 q 608 633 585 668 q 643 557 632 597 l 597 563 l 597 738 l 818 738 l 818 0 l 593 0 l 593 178 l 643 179 q 607 106 632 140 q 546 44 582 71 q 465 3 510 18 q 371 -12 421 -12 m 432 175 q 521 199 483 175 q 579 266 558 222 q 600 369 600 310 q 579 473 600 429 q 521 541 558 517 q 432 565 483 565 q 345 541 382 565 q 288 473 308 517 q 267 369 267 429 q 288 266 267 310 q 345 199 308 222 q 432 175 382 175 m 540 819 l 256 972 l 357 1117 l 606 919 l 540 819 z "},"ả":{"ha":915,"x_min":46,"x_max":818,"o":"m 371 -12 q 205 37 278 -12 q 89 173 132 86 q 46 369 46 260 q 89 568 46 482 q 207 703 132 654 q 378 753 282 753 q 474 738 431 753 q 551 695 518 722 q 608 633 585 668 q 643 557 632 597 l 597 563 l 597 738 l 818 738 l 818 0 l 593 0 l 593 178 l 643 179 q 607 106 632 140 q 546 44 582 71 q 465 3 510 18 q 371 -12 421 -12 m 432 175 q 521 199 483 175 q 579 266 558 222 q 600 369 600 310 q 579 473 600 429 q 521 541 558 517 q 432 565 483 565 q 345 541 382 565 q 288 473 308 517 q 267 369 267 429 q 288 266 267 310 q 345 199 308 222 q 432 175 382 175 m 424 822 q 406 849 414 835 q 397 881 397 864 q 406 915 397 899 q 440 947 415 931 q 471 970 460 961 q 482 993 482 979 q 470 1012 482 1006 q 440 1018 458 1018 q 382 1010 413 1018 q 321 989 351 1001 l 289 1106 q 365 1135 319 1122 q 457 1147 410 1147 q 583 1113 536 1147 q 629 1021 629 1079 q 610 953 629 976 q 568 914 590 929 q 531 888 546 901 q 517 861 517 875 q 518 852 517 857 q 521 843 519 847 l 424 822 z "},"ȃ":{"ha":915,"x_min":46,"x_max":818,"o":"m 371 -12 q 205 37 278 -12 q 89 173 132 86 q 46 369 46 260 q 89 568 46 482 q 207 703 132 654 q 378 753 282 753 q 474 738 431 753 q 551 695 518 722 q 608 633 585 668 q 643 557 632 597 l 597 563 l 597 738 l 818 738 l 818 0 l 593 0 l 593 178 l 643 179 q 607 106 632 140 q 546 44 582 71 q 465 3 510 18 q 371 -12 421 -12 m 432 175 q 521 199 483 175 q 579 266 558 222 q 600 369 600 310 q 579 473 600 429 q 521 541 558 517 q 432 565 483 565 q 345 541 382 565 q 288 473 308 517 q 267 369 267 429 q 288 266 267 310 q 345 199 308 222 q 432 175 382 175 m 351 849 l 210 865 q 296 1028 229 969 q 458 1088 363 1088 q 621 1028 554 1088 q 707 865 688 969 l 565 849 q 522 918 550 893 q 458 943 493 943 q 395 918 424 943 q 351 849 367 893 z "},"ā":{"ha":915,"x_min":46,"x_max":818,"o":"m 371 -12 q 205 37 278 -12 q 89 173 132 86 q 46 369 46 260 q 89 568 46 482 q 207 703 132 654 q 378 753 282 753 q 474 738 431 753 q 551 695 518 722 q 608 633 585 668 q 643 557 632 597 l 597 563 l 597 738 l 818 738 l 818 0 l 593 0 l 593 178 l 643 179 q 607 106 632 140 q 546 44 582 71 q 465 3 510 18 q 371 -12 421 -12 m 432 175 q 521 199 483 175 q 579 266 558 222 q 600 369 600 310 q 579 473 600 429 q 521 541 558 517 q 432 565 483 565 q 345 541 382 565 q 288 473 308 517 q 267 369 267 429 q 288 266 267 310 q 345 199 308 222 q 432 175 382 175 m 225 889 l 225 1029 l 692 1029 l 692 889 l 225 889 z "},"ą":{"ha":915,"x_min":46,"x_max":818,"o":"m 371 -12 q 205 37 278 -12 q 89 173 132 86 q 46 369 46 260 q 89 568 46 482 q 207 703 132 654 q 378 753 282 753 q 474 738 431 753 q 551 695 518 722 q 608 633 585 668 q 643 557 632 597 l 597 563 l 597 738 l 818 738 l 818 0 l 593 0 l 593 178 l 643 179 q 607 106 632 140 q 546 44 582 71 q 465 3 510 18 q 371 -12 421 -12 m 432 175 q 521 199 483 175 q 579 266 558 222 q 600 369 600 310 q 579 473 600 429 q 521 541 558 517 q 432 565 483 565 q 345 541 382 565 q 288 473 308 517 q 267 369 267 429 q 288 266 267 310 q 345 199 308 222 q 432 175 382 175 m 646 -293 q 560 -272 599 -293 q 501 -217 522 -251 q 479 -139 479 -182 q 494 -73 479 -103 q 538 -18 508 -43 q 613 28 568 7 q 718 64 658 49 l 774 0 q 703 -26 735 -8 q 652 -65 671 -43 q 633 -111 633 -86 q 644 -138 633 -128 q 671 -149 654 -149 q 695 -141 685 -149 q 717 -117 706 -133 l 813 -187 q 775 -237 800 -212 q 718 -277 750 -261 q 646 -293 686 -293 z "},"å":{"ha":915,"x_min":46,"x_max":818,"o":"m 371 -12 q 205 37 278 -12 q 89 173 132 86 q 46 369 46 260 q 89 568 46 482 q 207 703 132 654 q 378 753 282 753 q 474 738 431 753 q 551 695 518 722 q 608 633 585 668 q 643 557 632 597 l 597 563 l 597 738 l 818 738 l 818 0 l 593 0 l 593 178 l 643 179 q 607 106 632 140 q 546 44 582 71 q 465 3 510 18 q 371 -12 421 -12 m 432 175 q 521 199 483 175 q 579 266 558 222 q 600 369 600 310 q 579 473 600 429 q 521 541 558 517 q 432 565 483 565 q 345 541 382 565 q 288 473 308 517 q 267 369 267 429 q 288 266 267 310 q 345 199 308 222 q 432 175 382 175 m 458 839 q 376 861 415 839 q 315 920 338 883 q 292 1000 292 957 q 314 1083 292 1046 q 375 1142 336 1119 q 458 1164 414 1164 q 542 1142 504 1164 q 603 1083 581 1119 q 626 1000 626 1046 q 603 920 626 957 q 542 861 579 883 q 458 839 504 839 m 458 951 q 495 965 481 951 q 510 1000 510 979 q 495 1038 510 1024 q 458 1051 481 1051 q 422 1038 436 1051 q 407 1001 407 1024 q 422 965 407 979 q 458 951 438 951 z "},"ǻ":{"ha":915,"x_min":46,"x_max":818,"o":"m 371 -12 q 205 37 278 -12 q 89 173 132 86 q 46 369 46 260 q 89 568 46 482 q 207 703 132 654 q 378 753 282 753 q 474 738 431 753 q 551 695 518 722 q 608 633 585 668 q 643 557 632 597 l 597 563 l 597 738 l 818 738 l 818 0 l 593 0 l 593 178 l 643 179 q 607 106 632 140 q 546 44 582 71 q 465 3 510 18 q 371 -12 421 -12 m 432 175 q 521 199 483 175 q 579 266 558 222 q 600 369 600 310 q 579 473 600 429 q 521 541 558 517 q 432 565 483 565 q 345 541 382 565 q 288 473 308 517 q 267 369 267 429 q 288 266 267 310 q 345 199 308 222 q 432 175 382 175 m 458 839 q 376 861 415 839 q 315 920 338 883 q 292 1000 292 957 q 314 1083 292 1046 q 375 1142 336 1119 q 458 1164 414 1164 q 542 1142 504 1164 q 603 1083 581 1119 q 626 1000 626 1046 q 603 920 626 957 q 542 861 579 883 q 458 839 504 839 m 458 951 q 495 965 481 951 q 510 1000 510 979 q 495 1038 510 1024 q 458 1051 481 1051 q 422 1038 436 1051 q 407 1001 407 1024 q 422 965 407 979 q 458 951 438 951 m 349 1200 l 283 1301 l 532 1499 l 633 1353 l 349 1200 z "},"ã":{"ha":915,"x_min":46,"x_max":818,"o":"m 371 -12 q 205 37 278 -12 q 89 173 132 86 q 46 369 46 260 q 89 568 46 482 q 207 703 132 654 q 378 753 282 753 q 474 738 431 753 q 551 695 518 722 q 608 633 585 668 q 643 557 632 597 l 597 563 l 597 738 l 818 738 l 818 0 l 593 0 l 593 178 l 643 179 q 607 106 632 140 q 546 44 582 71 q 465 3 510 18 q 371 -12 421 -12 m 432 175 q 521 199 483 175 q 579 266 558 222 q 600 369 600 310 q 579 473 600 429 q 521 541 558 517 q 432 565 483 565 q 345 541 382 565 q 288 473 308 517 q 267 369 267 429 q 288 266 267 310 q 345 199 308 222 q 432 175 382 175 m 554 853 q 506 861 531 853 q 449 892 481 869 q 410 919 425 911 q 385 926 394 926 q 350 910 365 926 q 331 860 335 894 l 207 878 q 251 1011 208 956 q 367 1067 294 1067 q 414 1058 390 1067 q 469 1029 438 1050 q 503 1003 488 1014 q 535 993 519 993 q 569 1010 554 993 q 586 1060 583 1028 l 711 1042 q 690 949 710 993 q 635 879 671 906 q 554 853 600 853 z "},"æ":{"ha":1250,"x_min":46,"x_max":1208,"o":"m 297 -14 q 169 14 226 -14 q 79 91 113 42 q 46 207 46 140 q 67 306 46 263 q 131 378 89 349 q 234 421 172 407 q 378 435 296 435 l 1014 435 l 1001 418 l 1001 447 q 981 509 999 482 q 933 551 963 536 q 865 567 903 567 q 772 545 810 567 q 714 483 733 524 q 694 382 694 442 q 722 277 694 322 q 801 206 750 232 q 922 181 853 181 q 1011 194 972 181 q 1094 242 1050 207 l 1189 93 q 1097 33 1146 56 q 999 -2 1049 10 q 899 -14 949 -14 q 687 35 776 -14 q 549 169 597 83 q 500 365 500 254 q 527 521 500 450 q 603 644 554 592 q 718 724 651 696 q 863 753 785 753 q 1042 703 964 751 q 1165 572 1121 656 q 1207 381 1208 488 l 1206 314 l 385 314 q 333 308 356 314 q 296 290 311 301 q 273 262 281 278 q 265 224 265 246 q 276 185 265 203 q 306 158 286 168 q 351 149 326 149 q 420 160 388 149 q 479 194 453 172 q 521 246 506 217 l 594 133 q 518 54 565 88 q 414 3 471 21 q 297 -14 357 -14 m 496 344 l 496 461 q 488 508 496 489 q 463 540 479 528 q 422 559 446 553 q 369 565 399 565 q 276 545 315 565 q 204 478 238 525 l 72 608 q 158 684 108 651 q 269 735 207 717 q 401 753 332 753 q 522 738 468 753 q 613 693 575 724 q 671 617 650 663 q 692 510 692 572 l 692 349 l 496 344 z "},"ǽ":{"ha":1250,"x_min":46,"x_max":1208,"o":"m 297 -14 q 169 14 226 -14 q 79 91 113 42 q 46 207 46 140 q 67 306 46 263 q 131 378 89 349 q 234 421 172 407 q 378 435 296 435 l 1014 435 l 1001 418 l 1001 447 q 981 509 999 482 q 933 551 963 536 q 865 567 903 567 q 772 545 810 567 q 714 483 733 524 q 694 382 694 442 q 722 277 694 322 q 801 206 750 232 q 922 181 853 181 q 1011 194 972 181 q 1094 242 1050 207 l 1189 93 q 1097 33 1146 56 q 999 -2 1049 10 q 899 -14 949 -14 q 687 35 776 -14 q 549 169 597 83 q 500 365 500 254 q 527 521 500 450 q 603 644 554 592 q 718 724 651 696 q 863 753 785 753 q 1042 703 964 751 q 1165 572 1121 656 q 1207 381 1208 488 l 1206 314 l 385 314 q 333 308 356 314 q 296 290 311 301 q 273 262 281 278 q 265 224 265 246 q 276 185 265 203 q 306 158 286 168 q 351 149 326 149 q 420 160 388 149 q 479 194 453 172 q 521 246 506 217 l 594 133 q 518 54 565 88 q 414 3 471 21 q 297 -14 357 -14 m 496 344 l 496 461 q 488 508 496 489 q 463 540 479 528 q 422 559 446 553 q 369 565 399 565 q 276 545 315 565 q 204 478 238 525 l 72 608 q 158 684 108 651 q 269 735 207 717 q 401 753 332 753 q 522 738 468 753 q 613 693 575 724 q 671 617 650 663 q 692 510 692 572 l 692 349 l 496 344 m 525 818 l 460 919 l 708 1117 l 810 971 l 525 818 z "},"b":{"ha":914,"x_min":99,"x_max":867,"o":"m 542 -15 q 446 -1 492 -15 q 363 36 400 13 q 302 91 326 60 q 269 156 278 122 l 318 172 l 306 1 l 99 1 l 99 1028 l 322 1028 l 322 561 l 276 578 q 308 645 285 614 q 368 701 332 676 q 447 739 404 725 q 536 753 490 753 q 706 703 632 753 q 824 567 781 654 q 867 369 867 481 q 824 170 867 257 q 708 34 782 83 q 542 -15 635 -15 m 483 172 q 571 197 533 172 q 628 266 608 222 q 649 369 649 310 q 628 472 649 428 q 571 540 608 517 q 483 564 533 564 q 394 540 432 564 q 336 472 357 517 q 315 369 315 428 q 336 266 315 310 q 394 197 357 222 q 483 172 432 172 z "},"c":{"ha":757,"x_min":47,"x_max":735,"o":"m 422 -14 q 231 36 315 -14 q 97 173 146 86 q 47 369 47 260 q 97 566 47 479 q 231 703 146 653 q 422 753 315 753 q 603 718 521 753 q 735 621 686 683 l 614 476 q 568 518 594 499 q 510 549 542 538 q 443 560 478 560 q 350 535 390 560 q 288 468 310 511 q 265 369 265 425 q 288 274 265 317 q 351 206 311 231 q 443 181 392 181 q 510 190 479 181 q 566 217 540 199 q 614 261 592 235 l 733 115 q 602 21 686 56 q 422 -14 518 -14 z "},"ć":{"ha":757,"x_min":47,"x_max":735,"o":"m 422 -14 q 231 36 315 -14 q 97 173 146 86 q 47 369 47 260 q 97 566 47 479 q 231 703 146 653 q 422 753 315 753 q 603 718 521 753 q 735 621 686 683 l 614 476 q 568 518 594 499 q 510 549 542 538 q 443 560 478 560 q 350 535 390 560 q 288 468 310 511 q 265 369 265 425 q 288 274 265 317 q 351 206 311 231 q 443 181 392 181 q 510 190 479 181 q 566 217 540 199 q 614 261 592 235 l 733 115 q 602 21 686 56 q 422 -14 518 -14 m 313 818 l 247 919 l 496 1117 l 597 971 l 313 818 z "},"č":{"ha":757,"x_min":47,"x_max":735,"o":"m 422 -14 q 231 36 315 -14 q 97 173 146 86 q 47 369 47 260 q 97 566 47 479 q 231 703 146 653 q 422 753 315 753 q 603 718 521 753 q 735 621 686 683 l 614 476 q 568 518 594 499 q 510 549 542 538 q 443 560 478 560 q 350 535 390 560 q 288 468 310 511 q 265 369 265 425 q 288 274 265 317 q 351 206 311 231 q 443 181 392 181 q 510 190 479 181 q 566 217 540 199 q 614 261 592 235 l 733 115 q 602 21 686 56 q 422 -14 518 -14 m 356 843 l 161 1022 l 242 1092 l 443 972 l 401 972 l 603 1092 l 683 1022 l 489 843 l 356 843 z "},"ç":{"ha":757,"x_min":47,"x_max":735,"o":"m 422 -14 q 231 36 315 -14 q 97 173 146 86 q 47 369 47 260 q 97 566 47 479 q 231 703 146 653 q 422 753 315 753 q 603 718 521 753 q 735 621 686 683 l 614 476 q 568 518 594 499 q 510 549 542 538 q 443 560 478 560 q 350 535 390 560 q 288 468 310 511 q 265 369 265 425 q 288 274 265 317 q 351 206 311 231 q 443 181 392 181 q 510 190 479 181 q 566 217 540 199 q 614 261 592 235 l 733 115 q 602 21 686 56 q 422 -14 518 -14 m 286 -342 l 272 -237 q 333 -231 301 -237 q 385 -210 364 -224 q 407 -182 407 -197 q 391 -156 407 -165 q 353 -141 375 -146 q 308 -136 331 -136 l 285 -117 l 381 33 l 494 33 l 431 -60 q 538 -105 503 -68 q 574 -193 574 -142 q 547 -265 574 -236 q 476 -311 519 -293 q 383 -336 433 -329 q 286 -342 333 -343 z "},"ḉ":{"ha":757,"x_min":47,"x_max":735,"o":"m 422 -14 q 231 36 315 -14 q 97 173 146 86 q 47 369 47 260 q 97 566 47 479 q 231 703 146 653 q 422 753 315 753 q 603 718 521 753 q 735 621 686 683 l 614 476 q 568 518 594 499 q 510 549 542 538 q 443 560 478 560 q 350 535 390 560 q 288 468 310 511 q 265 369 265 425 q 288 274 265 317 q 351 206 311 231 q 443 181 392 181 q 510 190 479 181 q 566 217 540 199 q 614 261 592 235 l 733 115 q 602 21 686 56 q 422 -14 518 -14 m 286 -342 l 272 -237 q 333 -231 301 -237 q 385 -210 364 -224 q 407 -182 407 -197 q 391 -156 407 -165 q 353 -141 375 -146 q 308 -136 331 -136 l 285 -117 l 381 33 l 494 33 l 431 -60 q 538 -105 503 -68 q 574 -193 574 -142 q 547 -265 574 -236 q 476 -311 519 -293 q 383 -336 433 -329 q 286 -342 333 -343 m 313 818 l 247 919 l 496 1117 l 597 971 l 313 818 z "},"ĉ":{"ha":757,"x_min":47,"x_max":735,"o":"m 422 -14 q 231 36 315 -14 q 97 173 146 86 q 47 369 47 260 q 97 566 47 479 q 231 703 146 653 q 422 753 315 753 q 603 718 521 753 q 735 621 686 683 l 614 476 q 568 518 594 499 q 510 549 542 538 q 443 560 478 560 q 350 535 390 560 q 288 468 310 511 q 265 369 265 425 q 288 274 265 317 q 351 206 311 231 q 443 181 392 181 q 510 190 479 181 q 566 217 540 199 q 614 261 592 235 l 733 115 q 602 21 686 56 q 422 -14 518 -14 m 236 835 l 156 904 l 356 1083 l 489 1083 l 689 904 l 608 835 l 401 954 l 443 954 l 236 835 z "},"ċ":{"ha":757,"x_min":47,"x_max":735,"o":"m 422 -14 q 231 36 315 -14 q 97 173 146 86 q 47 369 47 260 q 97 566 47 479 q 231 703 146 653 q 422 753 315 753 q 603 718 521 753 q 735 621 686 683 l 614 476 q 568 518 594 499 q 510 549 542 538 q 443 560 478 560 q 350 535 390 560 q 288 468 310 511 q 265 369 265 425 q 288 274 265 317 q 351 206 311 231 q 443 181 392 181 q 510 190 479 181 q 566 217 540 199 q 614 261 592 235 l 733 115 q 602 21 686 56 q 422 -14 518 -14 m 422 883 q 325 913 360 883 q 290 999 290 943 q 326 1081 290 1049 q 422 1114 361 1114 q 519 1084 485 1114 q 554 999 554 1054 q 519 915 554 947 q 422 883 483 883 z "},"d":{"ha":908,"x_min":47,"x_max":819,"o":"m 378 -15 q 208 34 282 -15 q 90 170 133 83 q 47 368 47 257 q 90 566 47 479 q 208 703 133 653 q 381 753 283 753 q 476 738 431 753 q 560 696 522 722 q 621 635 597 669 q 649 565 644 601 l 596 553 l 596 1028 l 819 1028 l 819 0 l 613 0 l 600 168 l 644 161 q 617 94 640 126 q 558 38 594 63 q 476 -1 522 14 q 378 -15 429 -15 m 435 169 q 524 194 486 169 q 581 264 561 219 q 601 368 601 308 q 581 474 601 429 q 524 543 561 518 q 435 568 486 568 q 347 543 383 568 q 289 474 310 518 q 268 368 268 429 q 289 264 268 308 q 347 194 310 219 q 435 169 383 169 z "},"ð":{"ha":829,"x_min":47,"x_max":782,"o":"m 413 -10 q 224 39 306 -10 q 94 170 142 88 q 47 356 47 253 q 76 494 47 429 q 153 610 104 560 q 266 690 203 661 q 397 718 329 718 q 522 689 467 718 q 615 608 578 660 q 665 483 653 556 l 533 526 q 518 637 531 588 q 483 726 506 686 q 427 797 461 765 q 345 852 393 828 q 235 896 297 876 l 301 1036 q 463 976 389 1015 q 597 879 538 936 q 697 749 656 822 q 760 589 738 676 q 782 400 782 501 q 735 187 782 279 q 606 42 689 94 q 413 -10 524 -10 m 414 179 q 496 203 460 179 q 553 269 532 228 q 575 364 575 311 q 553 455 575 414 q 496 520 532 496 q 414 544 460 544 q 333 521 369 544 q 276 456 297 497 q 254 364 254 415 q 276 269 254 311 q 333 203 297 228 q 414 179 369 179 m 208 718 l 190 808 l 413 865 l 492 903 l 694 949 l 719 857 l 563 821 l 503 788 l 208 718 z "},"ď":{"ha":1047,"x_min":47,"x_max":1161,"o":"m 378 -15 q 208 34 282 -15 q 90 170 133 83 q 47 368 47 257 q 90 566 47 479 q 208 703 133 653 q 381 753 283 753 q 476 738 431 753 q 560 696 522 722 q 621 635 597 669 q 649 565 644 601 l 596 553 l 596 1028 l 819 1028 l 819 0 l 613 0 l 600 168 l 644 161 q 617 94 640 126 q 558 38 594 63 q 476 -1 522 14 q 378 -15 429 -15 m 435 169 q 524 194 486 169 q 581 264 561 219 q 601 368 601 308 q 581 474 601 429 q 524 543 561 518 q 435 568 486 568 q 347 543 383 568 q 289 474 310 518 q 268 368 268 429 q 289 264 268 308 q 347 194 310 219 q 435 169 383 169 m 953 675 l 897 751 q 940 770 917 758 q 980 799 963 782 q 997 832 997 815 q 990 849 997 843 q 964 864 982 856 q 922 892 935 875 q 910 938 910 910 q 942 1005 910 982 q 1022 1028 974 1028 q 1121 994 1081 1028 q 1161 893 1161 960 q 1147 819 1161 853 q 1105 758 1132 785 q 1039 710 1078 731 q 953 675 1000 690 z "},"đ":{"ha":908,"x_min":47,"x_max":893,"o":"m 440 799 l 440 963 l 893 963 l 893 799 l 440 799 m 378 -15 q 208 34 282 -15 q 90 170 133 83 q 47 368 47 257 q 90 566 47 479 q 208 703 133 653 q 381 753 283 753 q 476 738 431 753 q 560 696 522 722 q 621 635 597 669 q 649 565 644 601 l 596 553 l 596 1028 l 819 1028 l 819 0 l 613 0 l 600 168 l 644 161 q 617 94 640 126 q 558 38 594 63 q 476 -1 522 14 q 378 -15 429 -15 m 435 169 q 524 194 486 169 q 581 264 561 219 q 601 368 601 308 q 581 474 601 429 q 524 543 561 518 q 435 568 486 568 q 347 543 383 568 q 289 474 310 518 q 268 368 268 429 q 289 264 268 308 q 347 194 310 219 q 435 169 383 169 z "},"ḍ":{"ha":908,"x_min":47,"x_max":819,"o":"m 378 -15 q 208 34 282 -15 q 90 170 133 83 q 47 368 47 257 q 90 566 47 479 q 208 703 133 653 q 381 753 283 753 q 476 738 431 753 q 560 696 522 722 q 621 635 597 669 q 649 565 644 601 l 596 553 l 596 1028 l 819 1028 l 819 0 l 613 0 l 600 168 l 644 161 q 617 94 640 126 q 558 38 594 63 q 476 -1 522 14 q 378 -15 429 -15 m 435 169 q 524 194 486 169 q 581 264 561 219 q 601 368 601 308 q 581 474 601 429 q 524 543 561 518 q 435 568 486 568 q 347 543 383 568 q 289 474 310 518 q 268 368 268 429 q 289 264 268 308 q 347 194 310 219 q 435 169 383 169 m 454 -311 q 354 -280 390 -311 q 318 -193 318 -249 q 355 -108 318 -140 q 454 -75 392 -75 q 554 -106 518 -75 q 590 -193 590 -136 q 553 -278 590 -244 q 454 -311 517 -311 z "},"ḏ":{"ha":908,"x_min":47,"x_max":819,"o":"m 378 -15 q 208 34 282 -15 q 90 170 133 83 q 47 368 47 257 q 90 566 47 479 q 208 703 133 653 q 381 753 283 753 q 476 738 431 753 q 560 696 522 722 q 621 635 597 669 q 649 565 644 601 l 596 553 l 596 1028 l 819 1028 l 819 0 l 613 0 l 600 168 l 644 161 q 617 94 640 126 q 558 38 594 63 q 476 -1 522 14 q 378 -15 429 -15 m 435 169 q 524 194 486 169 q 581 264 561 219 q 601 368 601 308 q 581 474 601 429 q 524 543 561 518 q 435 568 486 568 q 347 543 383 568 q 289 474 310 518 q 268 368 268 429 q 289 264 268 308 q 347 194 310 219 q 435 169 383 169 m 242 -275 l 242 -111 l 667 -111 l 667 -275 l 242 -275 z "},"ǆ":{"ha":1672,"x_min":47,"x_max":1601,"o":"m 378 -15 q 208 34 282 -15 q 90 170 133 83 q 47 368 47 257 q 90 566 47 479 q 208 703 133 653 q 381 753 283 753 q 476 738 431 753 q 560 696 522 722 q 621 635 597 669 q 649 565 644 601 l 596 553 l 596 1028 l 819 1028 l 819 0 l 613 0 l 600 168 l 644 161 q 617 94 640 126 q 558 38 594 63 q 476 -1 522 14 q 378 -15 429 -15 m 435 169 q 524 194 486 169 q 581 264 561 219 q 601 368 601 308 q 581 474 601 429 q 524 543 561 518 q 435 568 486 568 q 347 543 383 568 q 289 474 310 518 q 268 368 268 429 q 289 264 268 308 q 347 194 310 219 q 435 169 383 169 m 978 0 l 978 128 l 1369 631 l 1369 557 l 978 557 l 978 738 l 1589 738 l 1589 604 l 1218 117 l 1213 181 l 1601 181 l 1601 0 l 978 0 m 1224 843 l 1029 1022 l 1110 1092 l 1311 972 l 1269 972 l 1471 1092 l 1551 1022 l 1357 843 l 1224 843 z "},"e":{"ha":814,"x_min":47,"x_max":774,"o":"m 450 -14 q 238 35 328 -14 q 97 170 147 85 q 47 365 47 256 q 75 521 47 450 q 153 644 103 592 q 272 724 203 696 q 422 753 340 753 q 565 725 500 753 q 676 647 629 697 q 749 529 724 597 q 771 381 774 461 l 769 321 l 182 321 l 150 446 l 589 446 l 565 419 l 565 447 q 544 509 563 482 q 494 551 525 536 q 425 567 464 567 q 333 545 371 567 q 275 483 294 524 q 256 382 256 442 q 281 276 256 321 q 356 206 307 231 q 474 181 406 181 q 558 194 521 181 q 638 242 594 208 l 742 94 q 650 33 699 57 q 551 -2 601 10 q 450 -14 500 -14 z "},"é":{"ha":814,"x_min":47,"x_max":774,"o":"m 450 -14 q 238 35 328 -14 q 97 170 147 85 q 47 365 47 256 q 75 521 47 450 q 153 644 103 592 q 272 724 203 696 q 422 753 340 753 q 565 725 500 753 q 676 647 629 697 q 749 529 724 597 q 771 381 774 461 l 769 321 l 182 321 l 150 446 l 589 446 l 565 419 l 565 447 q 544 509 563 482 q 494 551 525 536 q 425 567 464 567 q 333 545 371 567 q 275 483 294 524 q 256 382 256 442 q 281 276 256 321 q 356 206 307 231 q 474 181 406 181 q 558 194 521 181 q 638 242 594 208 l 742 94 q 650 33 699 57 q 551 -2 601 10 q 450 -14 500 -14 m 313 818 l 247 919 l 496 1117 l 597 971 l 313 818 z "},"ĕ":{"ha":814,"x_min":47,"x_max":774,"o":"m 450 -14 q 238 35 328 -14 q 97 170 147 85 q 47 365 47 256 q 75 521 47 450 q 153 644 103 592 q 272 724 203 696 q 422 753 340 753 q 565 725 500 753 q 676 647 629 697 q 749 529 724 597 q 771 381 774 461 l 769 321 l 182 321 l 150 446 l 589 446 l 565 419 l 565 447 q 544 509 563 482 q 494 551 525 536 q 425 567 464 567 q 333 545 371 567 q 275 483 294 524 q 256 382 256 442 q 281 276 256 321 q 356 206 307 231 q 474 181 406 181 q 558 194 521 181 q 638 242 594 208 l 742 94 q 650 33 699 57 q 551 -2 601 10 q 450 -14 500 -14 m 422 835 q 260 894 326 835 q 174 1057 193 954 l 315 1074 q 359 1005 331 1031 q 422 979 388 979 q 485 1005 457 979 q 529 1074 514 1031 l 671 1057 q 585 894 651 954 q 422 835 518 835 z "},"ě":{"ha":814,"x_min":47,"x_max":774,"o":"m 450 -14 q 238 35 328 -14 q 97 170 147 85 q 47 365 47 256 q 75 521 47 450 q 153 644 103 592 q 272 724 203 696 q 422 753 340 753 q 565 725 500 753 q 676 647 629 697 q 749 529 724 597 q 771 381 774 461 l 769 321 l 182 321 l 150 446 l 589 446 l 565 419 l 565 447 q 544 509 563 482 q 494 551 525 536 q 425 567 464 567 q 333 545 371 567 q 275 483 294 524 q 256 382 256 442 q 281 276 256 321 q 356 206 307 231 q 474 181 406 181 q 558 194 521 181 q 638 242 594 208 l 742 94 q 650 33 699 57 q 551 -2 601 10 q 450 -14 500 -14 m 356 843 l 161 1022 l 242 1092 l 443 972 l 401 972 l 603 1092 l 683 1022 l 489 843 l 356 843 z "},"ḝ":{"ha":814,"x_min":47,"x_max":774,"o":"m 450 -14 q 238 35 328 -14 q 97 170 147 85 q 47 365 47 256 q 75 521 47 450 q 153 644 103 592 q 272 724 203 696 q 422 753 340 753 q 565 725 500 753 q 676 647 629 697 q 749 529 724 597 q 771 381 774 461 l 769 321 l 182 321 l 150 446 l 589 446 l 565 419 l 565 447 q 544 509 563 482 q 494 551 525 536 q 425 567 464 567 q 333 545 371 567 q 275 483 294 524 q 256 382 256 442 q 281 276 256 321 q 356 206 307 231 q 474 181 406 181 q 558 194 521 181 q 638 242 594 208 l 742 94 q 650 33 699 57 q 551 -2 601 10 q 450 -14 500 -14 m 313 -342 l 299 -237 q 359 -231 328 -237 q 412 -210 390 -224 q 433 -182 433 -197 q 417 -156 433 -165 q 379 -141 401 -146 q 335 -136 357 -136 l 311 -117 l 407 33 l 521 33 l 457 -60 q 565 -105 529 -68 q 600 -193 600 -142 q 573 -265 600 -236 q 503 -311 546 -293 q 410 -336 460 -329 q 313 -342 360 -343 m 422 835 q 260 894 326 835 q 174 1057 193 954 l 315 1074 q 359 1005 331 1031 q 422 979 388 979 q 485 1005 457 979 q 529 1074 514 1031 l 671 1057 q 585 894 651 954 q 422 835 518 835 z "},"ê":{"ha":814,"x_min":47,"x_max":774,"o":"m 450 -14 q 238 35 328 -14 q 97 170 147 85 q 47 365 47 256 q 75 521 47 450 q 153 644 103 592 q 272 724 203 696 q 422 753 340 753 q 565 725 500 753 q 676 647 629 697 q 749 529 724 597 q 771 381 774 461 l 769 321 l 182 321 l 150 446 l 589 446 l 565 419 l 565 447 q 544 509 563 482 q 494 551 525 536 q 425 567 464 567 q 333 545 371 567 q 275 483 294 524 q 256 382 256 442 q 281 276 256 321 q 356 206 307 231 q 474 181 406 181 q 558 194 521 181 q 638 242 594 208 l 742 94 q 650 33 699 57 q 551 -2 601 10 q 450 -14 500 -14 m 236 835 l 156 904 l 356 1083 l 489 1083 l 689 904 l 608 835 l 401 954 l 443 954 l 236 835 z "},"ế":{"ha":814,"x_min":47,"x_max":872,"o":"m 450 -14 q 238 35 328 -14 q 97 170 147 85 q 47 365 47 256 q 75 521 47 450 q 153 644 103 592 q 272 724 203 696 q 422 753 340 753 q 565 725 500 753 q 676 647 629 697 q 749 529 724 597 q 771 381 774 461 l 769 321 l 182 321 l 150 446 l 589 446 l 565 419 l 565 447 q 544 509 563 482 q 494 551 525 536 q 425 567 464 567 q 333 545 371 567 q 275 483 294 524 q 256 382 256 442 q 281 276 256 321 q 356 206 307 231 q 474 181 406 181 q 558 194 521 181 q 638 242 594 208 l 742 94 q 650 33 699 57 q 551 -2 601 10 q 450 -14 500 -14 m 238 836 l 172 910 l 356 1060 l 488 1060 l 672 910 l 606 836 l 401 931 l 443 931 l 238 836 m 690 1047 l 601 1110 l 733 1338 l 872 1239 l 690 1047 z "},"ệ":{"ha":814,"x_min":47,"x_max":774,"o":"m 450 -14 q 238 35 328 -14 q 97 170 147 85 q 47 365 47 256 q 75 521 47 450 q 153 644 103 592 q 272 724 203 696 q 422 753 340 753 q 565 725 500 753 q 676 647 629 697 q 749 529 724 597 q 771 381 774 461 l 769 321 l 182 321 l 150 446 l 589 446 l 565 419 l 565 447 q 544 509 563 482 q 494 551 525 536 q 425 567 464 567 q 333 545 371 567 q 275 483 294 524 q 256 382 256 442 q 281 276 256 321 q 356 206 307 231 q 474 181 406 181 q 558 194 521 181 q 638 242 594 208 l 742 94 q 650 33 699 57 q 551 -2 601 10 q 450 -14 500 -14 m 450 -311 q 350 -280 386 -311 q 314 -193 314 -249 q 351 -108 314 -140 q 450 -75 388 -75 q 550 -106 514 -75 q 586 -193 586 -136 q 549 -278 586 -244 q 450 -311 513 -311 m 236 835 l 156 904 l 356 1083 l 489 1083 l 689 904 l 608 835 l 401 954 l 443 954 l 236 835 z "},"ề":{"ha":814,"x_min":47,"x_max":774,"o":"m 450 -14 q 238 35 328 -14 q 97 170 147 85 q 47 365 47 256 q 75 521 47 450 q 153 644 103 592 q 272 724 203 696 q 422 753 340 753 q 565 725 500 753 q 676 647 629 697 q 749 529 724 597 q 771 381 774 461 l 769 321 l 182 321 l 150 446 l 589 446 l 565 419 l 565 447 q 544 509 563 482 q 494 551 525 536 q 425 567 464 567 q 333 545 371 567 q 275 483 294 524 q 256 382 256 442 q 281 276 256 321 q 356 206 307 231 q 474 181 406 181 q 558 194 521 181 q 638 242 594 208 l 742 94 q 650 33 699 57 q 551 -2 601 10 q 450 -14 500 -14 m 239 835 l 172 910 l 357 1058 l 489 1058 l 672 910 l 607 835 l 401 929 l 443 929 l 239 835 m 658 1046 l 474 1238 l 613 1338 l 744 1108 l 658 1046 z "},"ể":{"ha":814,"x_min":47,"x_max":835,"o":"m 450 -14 q 238 35 328 -14 q 97 170 147 85 q 47 365 47 256 q 75 521 47 450 q 153 644 103 592 q 272 724 203 696 q 422 753 340 753 q 565 725 500 753 q 676 647 629 697 q 749 529 724 597 q 771 381 774 461 l 769 321 l 182 321 l 150 446 l 589 446 l 565 419 l 565 447 q 544 509 563 482 q 494 551 525 536 q 425 567 464 567 q 333 545 371 567 q 275 483 294 524 q 256 382 256 442 q 281 276 256 321 q 356 206 307 231 q 474 181 406 181 q 558 194 521 181 q 638 242 594 208 l 742 94 q 650 33 699 57 q 551 -2 601 10 q 450 -14 500 -14 m 238 836 l 171 910 l 356 1060 l 488 1060 l 672 910 l 606 836 l 401 931 l 443 931 l 238 836 m 638 1036 q 619 1063 626 1049 q 613 1093 613 1078 q 619 1121 613 1107 q 649 1149 626 1135 q 676 1169 665 1160 q 686 1190 686 1179 q 674 1210 686 1203 q 642 1217 661 1217 q 585 1209 614 1217 q 525 1189 556 1201 l 496 1307 q 568 1333 525 1322 q 657 1344 611 1344 q 786 1310 738 1344 q 835 1217 835 1275 q 814 1151 835 1174 q 768 1115 793 1129 q 733 1094 747 1104 q 718 1068 718 1083 q 718 1063 718 1065 q 719 1056 718 1060 l 638 1036 z "},"ễ":{"ha":814,"x_min":47,"x_max":774,"o":"m 450 -14 q 238 35 328 -14 q 97 170 147 85 q 47 365 47 256 q 75 521 47 450 q 153 644 103 592 q 272 724 203 696 q 422 753 340 753 q 565 725 500 753 q 676 647 629 697 q 749 529 724 597 q 771 381 774 461 l 769 321 l 182 321 l 150 446 l 589 446 l 565 419 l 565 447 q 544 509 563 482 q 494 551 525 536 q 425 567 464 567 q 333 545 371 567 q 275 483 294 524 q 256 382 256 442 q 281 276 256 321 q 356 206 307 231 q 474 181 406 181 q 558 194 521 181 q 638 242 594 208 l 742 94 q 650 33 699 57 q 551 -2 601 10 q 450 -14 500 -14 m 238 836 l 172 910 l 356 1060 l 488 1060 l 671 910 l 606 836 l 401 931 l 443 931 l 238 836 m 531 1147 q 474 1156 501 1147 q 414 1178 446 1164 q 376 1192 393 1186 q 347 1197 360 1197 q 313 1185 328 1197 q 293 1147 297 1172 l 169 1164 q 213 1285 171 1235 q 321 1335 254 1335 q 372 1326 346 1335 q 428 1306 399 1318 q 465 1290 449 1296 q 497 1285 482 1285 q 531 1298 517 1285 q 549 1335 546 1311 l 674 1317 q 655 1235 672 1274 q 606 1172 638 1196 q 531 1147 574 1147 z "},"ȅ":{"ha":814,"x_min":22,"x_max":774,"o":"m 450 -14 q 238 35 328 -14 q 97 170 147 85 q 47 365 47 256 q 75 521 47 450 q 153 644 103 592 q 272 724 203 696 q 422 753 340 753 q 565 725 500 753 q 676 647 629 697 q 749 529 724 597 q 771 381 774 461 l 769 321 l 182 321 l 150 446 l 589 446 l 565 419 l 565 447 q 544 509 563 482 q 494 551 525 536 q 425 567 464 567 q 333 545 371 567 q 275 483 294 524 q 256 382 256 442 q 281 276 256 321 q 356 206 307 231 q 474 181 406 181 q 558 194 521 181 q 638 242 594 208 l 742 94 q 650 33 699 57 q 551 -2 601 10 q 450 -14 500 -14 m 557 815 l 321 1010 l 453 1126 l 650 882 l 557 815 m 271 819 l 24 1000 l 149 1125 l 360 890 l 271 819 z "},"ë":{"ha":814,"x_min":47,"x_max":774,"o":"m 450 -14 q 238 35 328 -14 q 97 170 147 85 q 47 365 47 256 q 75 521 47 450 q 153 644 103 592 q 272 724 203 696 q 422 753 340 753 q 565 725 500 753 q 676 647 629 697 q 749 529 724 597 q 771 381 774 461 l 769 321 l 182 321 l 150 446 l 589 446 l 565 419 l 565 447 q 544 509 563 482 q 494 551 525 536 q 425 567 464 567 q 333 545 371 567 q 275 483 294 524 q 256 382 256 442 q 281 276 256 321 q 356 206 307 231 q 474 181 406 181 q 558 194 521 181 q 638 242 594 208 l 742 94 q 650 33 699 57 q 551 -2 601 10 q 450 -14 500 -14 m 589 878 q 499 908 531 878 q 468 996 468 939 q 501 1081 468 1049 q 589 1114 533 1114 q 677 1083 646 1114 q 708 996 708 1053 q 676 910 708 943 q 589 878 644 878 m 254 878 q 165 908 196 878 q 133 996 133 939 q 166 1081 133 1049 q 254 1114 199 1114 q 344 1083 313 1114 q 375 996 375 1053 q 342 910 375 943 q 254 878 310 878 z "},"ė":{"ha":814,"x_min":47,"x_max":774,"o":"m 450 -14 q 238 35 328 -14 q 97 170 147 85 q 47 365 47 256 q 75 521 47 450 q 153 644 103 592 q 272 724 203 696 q 422 753 340 753 q 565 725 500 753 q 676 647 629 697 q 749 529 724 597 q 771 381 774 461 l 769 321 l 182 321 l 150 446 l 589 446 l 565 419 l 565 447 q 544 509 563 482 q 494 551 525 536 q 425 567 464 567 q 333 545 371 567 q 275 483 294 524 q 256 382 256 442 q 281 276 256 321 q 356 206 307 231 q 474 181 406 181 q 558 194 521 181 q 638 242 594 208 l 742 94 q 650 33 699 57 q 551 -2 601 10 q 450 -14 500 -14 m 422 883 q 325 913 360 883 q 290 999 290 943 q 326 1081 290 1049 q 422 1114 361 1114 q 519 1084 485 1114 q 554 999 554 1054 q 519 915 554 947 q 422 883 483 883 z "},"ẹ":{"ha":814,"x_min":47,"x_max":774,"o":"m 450 -14 q 238 35 328 -14 q 97 170 147 85 q 47 365 47 256 q 75 521 47 450 q 153 644 103 592 q 272 724 203 696 q 422 753 340 753 q 565 725 500 753 q 676 647 629 697 q 749 529 724 597 q 771 381 774 461 l 769 321 l 182 321 l 150 446 l 589 446 l 565 419 l 565 447 q 544 509 563 482 q 494 551 525 536 q 425 567 464 567 q 333 545 371 567 q 275 483 294 524 q 256 382 256 442 q 281 276 256 321 q 356 206 307 231 q 474 181 406 181 q 558 194 521 181 q 638 242 594 208 l 742 94 q 650 33 699 57 q 551 -2 601 10 q 450 -14 500 -14 m 450 -311 q 350 -280 386 -311 q 314 -193 314 -249 q 351 -108 314 -140 q 450 -75 388 -75 q 550 -106 514 -75 q 586 -193 586 -136 q 549 -278 586 -244 q 450 -311 513 -311 z "},"è":{"ha":814,"x_min":47,"x_max":774,"o":"m 450 -14 q 238 35 328 -14 q 97 170 147 85 q 47 365 47 256 q 75 521 47 450 q 153 644 103 592 q 272 724 203 696 q 422 753 340 753 q 565 725 500 753 q 676 647 629 697 q 749 529 724 597 q 771 381 774 461 l 769 321 l 182 321 l 150 446 l 589 446 l 565 419 l 565 447 q 544 509 563 482 q 494 551 525 536 q 425 567 464 567 q 333 545 371 567 q 275 483 294 524 q 256 382 256 442 q 281 276 256 321 q 356 206 307 231 q 474 181 406 181 q 558 194 521 181 q 638 242 594 208 l 742 94 q 650 33 699 57 q 551 -2 601 10 q 450 -14 500 -14 m 504 819 l 219 972 l 321 1117 l 569 919 l 504 819 z "},"ẻ":{"ha":814,"x_min":47,"x_max":774,"o":"m 450 -14 q 238 35 328 -14 q 97 170 147 85 q 47 365 47 256 q 75 521 47 450 q 153 644 103 592 q 272 724 203 696 q 422 753 340 753 q 565 725 500 753 q 676 647 629 697 q 749 529 724 597 q 771 381 774 461 l 769 321 l 182 321 l 150 446 l 589 446 l 565 419 l 565 447 q 544 509 563 482 q 494 551 525 536 q 425 567 464 567 q 333 545 371 567 q 275 483 294 524 q 256 382 256 442 q 281 276 256 321 q 356 206 307 231 q 474 181 406 181 q 558 194 521 181 q 638 242 594 208 l 742 94 q 650 33 699 57 q 551 -2 601 10 q 450 -14 500 -14 m 388 822 q 369 849 378 835 q 361 881 361 864 q 370 915 361 899 q 404 947 379 931 q 435 970 424 961 q 446 993 446 979 q 434 1012 446 1006 q 404 1018 422 1018 q 346 1010 376 1018 q 285 989 315 1001 l 253 1106 q 328 1135 283 1122 q 421 1147 374 1147 q 547 1113 500 1147 q 593 1021 593 1079 q 574 953 593 976 q 532 914 554 929 q 495 888 510 901 q 481 861 481 875 q 482 852 481 857 q 485 843 483 847 l 388 822 z "},"ȇ":{"ha":814,"x_min":47,"x_max":774,"o":"m 450 -14 q 238 35 328 -14 q 97 170 147 85 q 47 365 47 256 q 75 521 47 450 q 153 644 103 592 q 272 724 203 696 q 422 753 340 753 q 565 725 500 753 q 676 647 629 697 q 749 529 724 597 q 771 381 774 461 l 769 321 l 182 321 l 150 446 l 589 446 l 565 419 l 565 447 q 544 509 563 482 q 494 551 525 536 q 425 567 464 567 q 333 545 371 567 q 275 483 294 524 q 256 382 256 442 q 281 276 256 321 q 356 206 307 231 q 474 181 406 181 q 558 194 521 181 q 638 242 594 208 l 742 94 q 650 33 699 57 q 551 -2 601 10 q 450 -14 500 -14 m 315 849 l 174 865 q 260 1028 193 969 q 422 1088 326 1088 q 585 1028 518 1088 q 671 865 651 969 l 529 849 q 485 918 514 893 q 422 943 457 943 q 359 918 388 943 q 315 849 331 893 z "},"ē":{"ha":814,"x_min":47,"x_max":774,"o":"m 450 -14 q 238 35 328 -14 q 97 170 147 85 q 47 365 47 256 q 75 521 47 450 q 153 644 103 592 q 272 724 203 696 q 422 753 340 753 q 565 725 500 753 q 676 647 629 697 q 749 529 724 597 q 771 381 774 461 l 769 321 l 182 321 l 150 446 l 589 446 l 565 419 l 565 447 q 544 509 563 482 q 494 551 525 536 q 425 567 464 567 q 333 545 371 567 q 275 483 294 524 q 256 382 256 442 q 281 276 256 321 q 356 206 307 231 q 474 181 406 181 q 558 194 521 181 q 638 242 594 208 l 742 94 q 650 33 699 57 q 551 -2 601 10 q 450 -14 500 -14 m 189 889 l 189 1029 l 656 1029 l 656 889 l 189 889 z "},"ḗ":{"ha":814,"x_min":47,"x_max":774,"o":"m 450 -14 q 238 35 328 -14 q 97 170 147 85 q 47 365 47 256 q 75 521 47 450 q 153 644 103 592 q 272 724 203 696 q 422 753 340 753 q 565 725 500 753 q 676 647 629 697 q 749 529 724 597 q 771 381 774 461 l 769 321 l 182 321 l 150 446 l 589 446 l 565 419 l 565 447 q 544 509 563 482 q 494 551 525 536 q 425 567 464 567 q 333 545 371 567 q 275 483 294 524 q 256 382 256 442 q 281 276 256 321 q 356 206 307 231 q 474 181 406 181 q 558 194 521 181 q 638 242 594 208 l 742 94 q 650 33 699 57 q 551 -2 601 10 q 450 -14 500 -14 m 189 875 l 189 1015 l 656 1015 l 656 875 l 189 875 m 431 1079 l 338 1140 l 468 1369 l 608 1268 l 431 1079 z "},"ḕ":{"ha":814,"x_min":47,"x_max":774,"o":"m 450 -14 q 238 35 328 -14 q 97 170 147 85 q 47 365 47 256 q 75 521 47 450 q 153 644 103 592 q 272 724 203 696 q 422 753 340 753 q 565 725 500 753 q 676 647 629 697 q 749 529 724 597 q 771 381 774 461 l 769 321 l 182 321 l 150 446 l 589 446 l 565 419 l 565 447 q 544 509 563 482 q 494 551 525 536 q 425 567 464 567 q 333 545 371 567 q 275 483 294 524 q 256 382 256 442 q 281 276 256 321 q 356 206 307 231 q 474 181 406 181 q 558 194 521 181 q 638 242 594 208 l 742 94 q 650 33 699 57 q 551 -2 601 10 q 450 -14 500 -14 m 436 1079 l 260 1268 l 400 1369 l 531 1140 l 436 1079 m 189 875 l 189 1015 l 656 1015 l 656 875 l 189 875 z "},"ę":{"ha":814,"x_min":47,"x_max":774,"o":"m 532 -285 q 415 -241 457 -285 q 372 -137 372 -197 q 408 -35 372 -79 q 508 49 444 10 q 654 125 571 88 l 692 58 q 569 -22 611 14 q 526 -96 526 -57 q 538 -129 526 -117 q 565 -142 549 -142 q 592 -133 581 -142 q 615 -108 603 -125 l 711 -179 q 672 -228 697 -204 q 612 -269 647 -253 q 532 -285 576 -285 m 450 -14 q 238 35 328 -14 q 97 170 147 85 q 47 365 47 256 q 75 521 47 450 q 153 644 103 592 q 272 724 203 696 q 422 753 340 753 q 565 725 500 753 q 676 647 629 697 q 749 529 724 597 q 771 381 774 461 l 769 321 l 182 321 l 150 446 l 589 446 l 565 419 l 565 447 q 544 509 563 482 q 494 551 525 536 q 425 567 464 567 q 333 545 371 567 q 275 483 294 524 q 256 382 256 442 q 281 276 256 321 q 356 206 307 231 q 474 181 406 181 q 558 194 521 181 q 638 242 594 208 l 742 94 q 650 33 699 57 q 551 -2 601 10 q 450 -14 500 -14 z "},"ẽ":{"ha":814,"x_min":47,"x_max":774,"o":"m 450 -14 q 238 35 328 -14 q 97 170 147 85 q 47 365 47 256 q 75 521 47 450 q 153 644 103 592 q 272 724 203 696 q 422 753 340 753 q 565 725 500 753 q 676 647 629 697 q 749 529 724 597 q 771 381 774 461 l 769 321 l 182 321 l 150 446 l 589 446 l 565 419 l 565 447 q 544 509 563 482 q 494 551 525 536 q 425 567 464 567 q 333 545 371 567 q 275 483 294 524 q 256 382 256 442 q 281 276 256 321 q 356 206 307 231 q 474 181 406 181 q 558 194 521 181 q 638 242 594 208 l 742 94 q 650 33 699 57 q 551 -2 601 10 q 450 -14 500 -14 m 518 853 q 469 861 494 853 q 413 892 444 869 q 374 919 389 911 q 349 926 358 926 q 314 910 329 926 q 294 860 299 894 l 171 878 q 215 1011 172 956 q 331 1067 258 1067 q 378 1058 354 1067 q 433 1029 401 1050 q 467 1003 451 1014 q 499 993 483 993 q 533 1010 518 993 q 550 1060 547 1028 l 675 1042 q 654 949 674 993 q 599 879 635 906 q 518 853 564 853 z "},"ə":{"ha":814,"x_min":43,"x_max":767,"o":"m 392 -15 q 210 33 289 -15 q 88 165 132 81 q 43 357 43 250 l 44 417 l 632 417 l 664 292 l 225 292 l 249 318 l 249 289 q 269 228 251 256 q 319 186 288 201 q 389 171 350 171 q 482 192 444 171 q 539 255 519 214 q 558 354 558 296 q 533 460 558 415 q 458 531 507 506 q 340 557 410 557 q 256 543 293 557 q 176 496 219 529 l 72 643 q 165 704 117 681 q 263 740 213 728 q 364 751 314 751 q 577 702 488 751 q 717 567 667 653 q 767 371 767 482 q 739 217 767 288 q 661 94 711 146 q 542 13 611 42 q 392 -15 474 -15 z "},"f":{"ha":546,"x_min":38,"x_max":571,"o":"m 144 0 l 144 774 q 176 904 144 846 q 263 997 207 963 q 394 1031 319 1031 q 492 1015 447 1031 q 571 972 536 1000 l 507 810 q 472 825 489 819 q 442 831 456 831 q 400 822 417 831 q 376 797 383 814 q 368 754 368 779 l 368 0 l 257 0 q 191 0 219 0 q 144 0 163 0 m 38 533 l 38 717 l 519 717 l 519 533 l 38 533 z "},"g":{"ha":929,"x_min":47,"x_max":835,"o":"m 436 -319 q 256 -293 346 -319 q 111 -225 167 -267 l 189 -69 q 253 -103 218 -89 q 328 -126 289 -118 q 407 -135 367 -135 q 522 -114 478 -135 q 589 -51 567 -93 q 611 56 611 -8 l 611 179 l 654 172 q 606 89 644 126 q 513 28 568 51 q 394 6 457 6 q 216 52 294 6 q 92 181 138 99 q 47 372 47 264 q 92 569 47 483 q 214 703 136 654 q 389 753 292 753 q 469 743 431 753 q 540 717 507 733 q 598 680 572 701 q 640 633 624 658 q 661 582 656 608 l 615 571 l 624 738 l 835 738 l 835 60 q 808 -101 835 -31 q 728 -220 781 -171 q 603 -294 676 -269 q 436 -319 529 -319 m 442 178 q 535 202 496 178 q 597 269 575 226 q 618 371 618 313 q 597 473 618 429 q 535 541 575 517 q 442 565 496 565 q 350 541 389 565 q 290 473 311 517 q 268 371 268 429 q 290 269 268 313 q 350 202 311 226 q 442 178 389 178 z "},"ğ":{"ha":929,"x_min":47,"x_max":835,"o":"m 436 -319 q 256 -293 346 -319 q 111 -225 167 -267 l 189 -69 q 253 -103 218 -89 q 328 -126 289 -118 q 407 -135 367 -135 q 522 -114 478 -135 q 589 -51 567 -93 q 611 56 611 -8 l 611 179 l 654 172 q 606 89 644 126 q 513 28 568 51 q 394 6 457 6 q 216 52 294 6 q 92 181 138 99 q 47 372 47 264 q 92 569 47 483 q 214 703 136 654 q 389 753 292 753 q 469 743 431 753 q 540 717 507 733 q 598 680 572 701 q 640 633 624 658 q 661 582 656 608 l 615 571 l 624 738 l 835 738 l 835 60 q 808 -101 835 -31 q 728 -220 781 -171 q 603 -294 676 -269 q 436 -319 529 -319 m 442 178 q 535 202 496 178 q 597 269 575 226 q 618 371 618 313 q 597 473 618 429 q 535 541 575 517 q 442 565 496 565 q 350 541 389 565 q 290 473 311 517 q 268 371 268 429 q 290 269 268 313 q 350 202 311 226 q 442 178 389 178 m 465 835 q 303 894 369 835 q 217 1057 236 954 l 358 1074 q 402 1005 374 1031 q 465 979 431 979 q 528 1005 500 979 q 572 1074 557 1031 l 714 1057 q 628 894 694 954 q 465 835 561 835 z "},"ǧ":{"ha":929,"x_min":47,"x_max":835,"o":"m 436 -319 q 256 -293 346 -319 q 111 -225 167 -267 l 189 -69 q 253 -103 218 -89 q 328 -126 289 -118 q 407 -135 367 -135 q 522 -114 478 -135 q 589 -51 567 -93 q 611 56 611 -8 l 611 179 l 654 172 q 606 89 644 126 q 513 28 568 51 q 394 6 457 6 q 216 52 294 6 q 92 181 138 99 q 47 372 47 264 q 92 569 47 483 q 214 703 136 654 q 389 753 292 753 q 469 743 431 753 q 540 717 507 733 q 598 680 572 701 q 640 633 624 658 q 661 582 656 608 l 615 571 l 624 738 l 835 738 l 835 60 q 808 -101 835 -31 q 728 -220 781 -171 q 603 -294 676 -269 q 436 -319 529 -319 m 442 178 q 535 202 496 178 q 597 269 575 226 q 618 371 618 313 q 597 473 618 429 q 535 541 575 517 q 442 565 496 565 q 350 541 389 565 q 290 473 311 517 q 268 371 268 429 q 290 269 268 313 q 350 202 311 226 q 442 178 389 178 m 399 843 l 204 1022 l 285 1092 l 486 972 l 444 972 l 646 1092 l 726 1022 l 532 843 l 399 843 z "},"ĝ":{"ha":929,"x_min":47,"x_max":835,"o":"m 436 -319 q 256 -293 346 -319 q 111 -225 167 -267 l 189 -69 q 253 -103 218 -89 q 328 -126 289 -118 q 407 -135 367 -135 q 522 -114 478 -135 q 589 -51 567 -93 q 611 56 611 -8 l 611 179 l 654 172 q 606 89 644 126 q 513 28 568 51 q 394 6 457 6 q 216 52 294 6 q 92 181 138 99 q 47 372 47 264 q 92 569 47 483 q 214 703 136 654 q 389 753 292 753 q 469 743 431 753 q 540 717 507 733 q 598 680 572 701 q 640 633 624 658 q 661 582 656 608 l 615 571 l 624 738 l 835 738 l 835 60 q 808 -101 835 -31 q 728 -220 781 -171 q 603 -294 676 -269 q 436 -319 529 -319 m 442 178 q 535 202 496 178 q 597 269 575 226 q 618 371 618 313 q 597 473 618 429 q 535 541 575 517 q 442 565 496 565 q 350 541 389 565 q 290 473 311 517 q 268 371 268 429 q 290 269 268 313 q 350 202 311 226 q 442 178 389 178 m 279 835 l 199 904 l 399 1083 l 532 1083 l 732 904 l 651 835 l 444 954 l 486 954 l 279 835 z "},"ģ":{"ha":929,"x_min":47,"x_max":835,"o":"m 436 -319 q 256 -293 346 -319 q 111 -225 167 -267 l 189 -69 q 253 -103 218 -89 q 328 -126 289 -118 q 407 -135 367 -135 q 522 -114 478 -135 q 589 -51 567 -93 q 611 56 611 -8 l 611 179 l 654 172 q 606 89 644 126 q 513 28 568 51 q 394 6 457 6 q 216 52 294 6 q 92 181 138 99 q 47 372 47 264 q 92 569 47 483 q 214 703 136 654 q 389 753 292 753 q 469 743 431 753 q 540 717 507 733 q 598 680 572 701 q 640 633 624 658 q 661 582 656 608 l 615 571 l 624 738 l 835 738 l 835 60 q 808 -101 835 -31 q 728 -220 781 -171 q 603 -294 676 -269 q 436 -319 529 -319 m 442 178 q 535 202 496 178 q 597 269 575 226 q 618 371 618 313 q 597 473 618 429 q 535 541 575 517 q 442 565 496 565 q 350 541 389 565 q 290 473 311 517 q 268 371 268 429 q 290 269 268 313 q 350 202 311 226 q 442 178 389 178 m 468 828 q 374 861 415 828 q 333 967 333 894 q 351 1040 333 1007 q 398 1099 368 1072 q 465 1145 428 1125 q 542 1181 503 1165 l 597 1104 q 556 1087 579 1099 q 515 1059 532 1075 q 497 1024 497 1043 q 507 1004 497 1010 q 532 992 517 999 q 570 965 556 981 q 585 918 585 950 q 551 850 585 872 q 468 828 517 828 z "},"ġ":{"ha":929,"x_min":47,"x_max":835,"o":"m 436 -319 q 256 -293 346 -319 q 111 -225 167 -267 l 189 -69 q 253 -103 218 -89 q 328 -126 289 -118 q 407 -135 367 -135 q 522 -114 478 -135 q 589 -51 567 -93 q 611 56 611 -8 l 611 179 l 654 172 q 606 89 644 126 q 513 28 568 51 q 394 6 457 6 q 216 52 294 6 q 92 181 138 99 q 47 372 47 264 q 92 569 47 483 q 214 703 136 654 q 389 753 292 753 q 469 743 431 753 q 540 717 507 733 q 598 680 572 701 q 640 633 624 658 q 661 582 656 608 l 615 571 l 624 738 l 835 738 l 835 60 q 808 -101 835 -31 q 728 -220 781 -171 q 603 -294 676 -269 q 436 -319 529 -319 m 442 178 q 535 202 496 178 q 597 269 575 226 q 618 371 618 313 q 597 473 618 429 q 535 541 575 517 q 442 565 496 565 q 350 541 389 565 q 290 473 311 517 q 268 371 268 429 q 290 269 268 313 q 350 202 311 226 q 442 178 389 178 m 465 883 q 368 913 403 883 q 333 999 333 943 q 369 1081 333 1049 q 465 1114 404 1114 q 563 1084 528 1114 q 597 999 597 1054 q 562 915 597 947 q 465 883 526 883 z "}}}
